<svg xmlns="http://www.w3.org/2000/svg" viewBox="0 0 32 32"><path fill-rule="evenodd" fill="#3B3938" d="M13.373 26.737a13.333 13.333 0 01-9.456-3.911A13.289 13.289 0 010 13.369c0-3.572 1.391-6.931 3.917-9.456 5.214-5.216 13.699-5.215 18.913 0a13.283 13.283 0 013.917 9.456c0 3.572-1.391 6.93-3.917 9.457a13.335 13.335 0 01-9.457 3.911zm7.605-20.972a10.718 10.718 0 00-7.605-3.146 10.721 10.721 0 00-7.605 3.146 10.688 10.688 0 00-3.149 7.604c0 2.873 1.119 5.574 3.149 7.605 4.195 4.193 11.016 4.192 15.21 0a10.677 10.677 0 003.15-7.605c0-2.872-1.117-5.573-3.15-7.604zM32 29.863l-2.132 2.132-6.284-6.282 2.132-2.134L32 29.863z"/></svg>