<svg xmlns="http://www.w3.org/2000/svg" viewBox="0 0 146 35"><path fill-rule="evenodd" fill="#F60" d="M103.725 19.024h10.969v2.321h-10.969v-2.321zM104.624 9.002h9.17v2.322h-9.17V9.002zM124.836 13.29h8.981v2.322h-8.981V13.29zM121.738 19.024l.969-3.434c.048-.17.074-.352.074-.539 0-.963-.684-1.761-1.537-1.761h-4.684v2.322h2.738c.404 0 .739.386.739.841a.93.93 0 01-.035.255l-.655 2.316h-3.304v2.322h8.237v-2.322h-2.542zM144.048 18.529l-1.678-1.678a8.745 8.745 0 001.97-5.527V9.002h-9.287v2.322h6.262v.451c0 1.477-.627 2.84-1.631 3.834l-2.918 2.92c-.307.304-.73.495-1.192.495h-.521v2.322h1.42c.983 0 1.868-.399 2.508-1.039l1.426-1.426 1.426 1.426a3.533 3.533 0 002.507 1.039h.899v-2.322c-.462 0-.884-.191-1.191-.495zM96.047 4.881c-3.958-3.088-9.461-2.832-13.114.342-.382.339-.913.796-1.349 1.179a6.406 6.406 0 01-4.192 1.559 6.339 6.339 0 01-3.607-1.124c-.472-.323-1.007-.689-1.485-1.021a10.345 10.345 0 00-12.962 1.026c-7.931-4.996-18.052-5.606-26.592-1.451-.826.399-2.165 1.06-3.02 1.474a10.696 10.696 0 01-4.715 1.08 10.7 10.7 0 01-6.918-2.525c-1.102-.921-2.04-2.128-3.218-3.116a8.917 8.917 0 00-10.176-.896C.674 3.733-.862 8.729 1.067 12.869 3.69 18.516 8.32 25.094 18.031 27.707a25.042 25.042 0 009.74.658c6.945-.901 8.181-3.47 11.895-3.7a8.51 8.51 0 013.263.448 8.393 8.393 0 014.849 4.285 8.906 8.906 0 0011.911 4.092 8.892 8.892 0 004.995-7.823c11.254 6.077 25.569 3.449 33.165-6.299 3.5-4.496 2.699-10.981-1.802-14.487z"/><path fill-rule="evenodd" fill="#FFF" d="M29.511 13.218l.003-2.571 1.658.002-.004 2.571-1.657-.002zM26.83 10.645h1.653v2.57H26.83v-2.57zM33.502 18.946c-4.106 2.368-8.898 2.988-13.484 1.759a17.613 17.613 0 01-10.779-8.287L6.984 8.516 9.985 7.08l2.127 3.685a14.355 14.355 0 008.766 6.742c3.73 1.001 7.63.493 10.968-1.438l.671-.38 2.366 2.373c-.442.309-.901.61-1.381.884zM48.019 16.628l-.559-.515a7.345 7.345 0 00-1.632-1.14v.918h-1.659l.003-1.531a8.378 8.378 0 00-1.025-.177l-.005 4.727-1.657-.002.005-4.723c-1.573.167-3.099.802-4.302 1.918l-.56.515-1.169-1.17.609-.566c1.511-1.399 3.44-2.181 5.424-2.349l.001-1.875 1.657.001-.001 1.868c.344.031.689.08 1.024.15l.001-2.016h1.659l-.003 2.498c1 .402 1.938.98 2.754 1.734l.608.565-1.173 1.17zM55.229 26.329c-.288.287-.6.543-.936.757L52.191 24.5s.191-.13.328-.212c.129-.091.257-.192.369-.308a2.377 2.377 0 00.001-3.352 5.634 5.634 0 01-1.662-4.024 5.638 5.638 0 011.672-4.016l2.34 2.345a2.377 2.377 0 00-.003 3.354 5.684 5.684 0 01-.007 8.042zM57.576 15.127l-1.661-.005.012-4.45h1.653l-.004 4.455zM91.167 13.679c-1.927 3.507-5.065 5.988-8.805 6.99-3.632.972-7.419.417-10.657-1.555a13.83 13.83 0 01-2.342-1.815 3.75 3.75 0 00-2.692-1.058c-.965.021-1.872.423-2.572 1.12l-2.938 2.927.008-9.612 3.313.002-.002 2.623a7.007 7.007 0 012.105-.375c1.885-.044 3.679.657 5.065 1.972.577.55 1.172 1.014 1.782 1.383 2.454 1.499 5.323 1.92 8.069 1.184 2.87-.765 5.27-2.679 6.762-5.386l.146-.281 3.005 1.433-.247.448z"/></svg>