<svg xmlns="http://www.w3.org/2000/svg" viewBox="0 0 38.1 38.1"><path fill-rule="evenodd" fill="#3B3938" d="M19.979 15.79c.004-.367.004-.728.01-1.095.003-.249.003-.496.026-.735.03-.309.198-.519.506-.591.135-.038.28-.064.427-.064.5-.006 1.004-.006 1.496-.006.086 0 .086 0 .086-.075v-2.701c0-.084 0-.084-.086-.084h-2.051c-.265 0-.526.019-.783.036-.353.03-.698.094-1.029.206-.698.235-1.25.674-1.58 1.347-.232.462-.342.961-.38 1.477-.025.367-.025.726-.028 1.094-.008.398 0 .78 0 1.181 0 .028-.008.052-.011.076h-1.676v2.853h.077c.499 0 .996 0 1.504.004.113 0 .106-.023.106.106v8.142h3.386v-8.182c0-.07 0-.07.076-.07H22.243c.098-.948.198-1.897.3-2.853h-2.554a.294.294 0 01-.01-.066z"/><path fill-rule="evenodd" stroke="#3B3938" stroke-width="1.4" fill="none" d="M18.725 36.2c-9.678 0-17.501-7.822-17.501-17.5S9.047 1.199 18.725 1.199c9.677 0 17.5 7.823 17.5 17.501s-7.823 17.5-17.5 17.5z"/></svg>