<svg xmlns="http://www.w3.org/2000/svg" viewBox="0 0 38.1 38.1"><path fill-rule="evenodd" fill="#3B3938" d="M22.782 13.949a.87.87 0 00-.873.867c0 .502.394.891.886.879a.86.86 0 00.864-.887.87.87 0 00-.877-.859zM18.913 22.429a3.731 3.731 0 01-3.738-3.752c.005-2.052 1.683-3.716 3.753-3.716 2.052 0 3.717 1.682 3.717 3.737a3.737 3.737 0 01-3.732 3.731zm.022-6.144c-1.354 0-2.436 1.061-2.436 2.406a2.41 2.41 0 002.394 2.424 2.415 2.415 0 002.43-2.417c0-1.33-1.069-2.413-2.388-2.413z"/><path fill-rule="evenodd" fill="#3B3938" d="M26.168 20.365c0 .723 0 1.452-.126 2.152-.307 1.894-1.613 3.125-3.512 3.347-.701.091-1.401.095-2.109.095-1.17.009-2.351.009-3.527-.004-.743-.018-1.493-.018-2.224-.193-1.656-.443-2.726-1.698-2.921-3.413-.09-.719-.1-1.426-.1-2.144-.005-1.169-.01-2.343 0-3.512.016-.745.016-1.495.209-2.225.428-1.669 1.683-2.739 3.417-2.934 1.019-.112 2.036-.098 3.058-.098h.434c1.148.009 2.299-.025 3.446.055 1.261.107 2.348.55 3.127 1.599.492.676.712 1.455.77 2.284.11 1.67.058 3.324.058 4.991zm-1.381-4.93c-.045-.627-.211-1.222-.634-1.712-.525-.622-1.239-.844-2.014-.913-1.07-.081-2.149-.057-3.226-.057-.595 0-1.198-.012-1.791 0-.57.023-1.15.023-1.721.091-1.263.157-2.097.941-2.319 2.178-.116.627-.105 1.263-.116 1.886-.01 1.187-.01 2.387 0 3.56.011.578.011 1.162.086 1.728.156 1.28.938 2.101 2.197 2.327.618.116 1.24.102 1.86.116 1.203.011 2.395.011 3.587 0 .574 0 1.149 0 1.719-.093.557-.073 1.063-.253 1.502-.619.595-.536.812-1.239.879-1.991.065-.769.058-1.536.058-2.305.007-1.399.027-2.8-.067-4.196z"/><path fill-rule="evenodd" stroke="#3B3938" stroke-width="1.4" fill="none" d="M18.912 36.2c-9.678 0-17.501-7.822-17.501-17.5S9.234 1.199 18.912 1.199c9.677 0 17.5 7.823 17.5 17.501s-7.823 17.5-17.5 17.5z"/></svg>