<svg xmlns="http://www.w3.org/2000/svg" viewBox="0 0 38.1 38.1"><path fill-rule="evenodd" fill="#3B3938" d="M26.119 13.795a5.125 5.125 0 01-.887.303 5.348 5.348 0 01-.729.148 1.8 1.8 0 00.428-.334c.236-.208.429-.447.586-.725.118-.185.211-.377.276-.596.011-.025.021-.057-.008-.08-.031-.02-.057-.011-.086.012-.228.123-.467.234-.712.348a7.203 7.203 0 01-1.176.37c-.051.006-.094 0-.13-.037-.054-.063-.104-.122-.16-.165a3.206 3.206 0 00-.916-.563 2.612 2.612 0 00-.672-.187c-.097-.011-.195-.011-.292-.022h-.433a.138.138 0 01-.07 0h-.068c-.01.006-.021.006-.032.006-.122.005-.234.005-.351.027a2.646 2.646 0 00-.762.261 3.127 3.127 0 00-1.118.883 3.27 3.27 0 00-.624 1.22 3.428 3.428 0 00-.05 1.474c.008.074 0 .084-.069.074a13.95 13.95 0 01-.588-.054 10.521 10.521 0 01-1.641-.366 8.722 8.722 0 01-1.688-.747 8.911 8.911 0 01-1.237-.835 7.792 7.792 0 01-.897-.82 10.633 10.633 0 01-.427-.468c-.076-.096-.117-.096-.177.004a4.002 4.002 0 00-.214.503 3.245 3.245 0 00-.154 1.398c.034.41.145.79.327 1.151.156.302.353.589.602.825.128.121.254.245.4.351-.055.009-.099-.007-.139-.007a3.333 3.333 0 01-1.113-.344c-.074-.043-.113-.017-.12.063-.005.121.007.245.015.373.052.393.173.777.362 1.133.227.427.536.78.911 1.075.119.091.245.176.368.244.133.065.266.146.41.197.135.055.274.104.418.128a3.124 3.124 0 01-.753.088c-.157 0-.315-.022-.471-.049-.094-.021-.131.027-.1.112.037.101.073.191.113.276.143.313.321.589.554.836.234.272.513.489.816.664.346.188.71.316 1.099.379.118.02.232.02.353.049-.013.01-.016.01-.023.02a7.585 7.585 0 01-1.194.708 6.771 6.771 0 01-1.681.511c-.236.037-.476.049-.719.07a4.49 4.49 0 01-.835-.021c-.071 0-.144-.012-.214 0-.031.041-.024.07.039.105.186.12.37.225.559.324a8.82 8.82 0 001.782.72c.696.204 1.406.33 2.137.325h1.097c.235-.011.476-.022.712-.054a9.378 9.378 0 001.634-.373 8.762 8.762 0 001.62-.717 7 7 0 00.914-.602 7.682 7.682 0 001.089-.975 5.71 5.71 0 00.494-.548c.372-.473.705-.963.994-1.484.262-.5.494-1.023.667-1.555a9.267 9.267 0 00.376-1.543c.063-.416.102-.824.102-1.245v-.459a.17.17 0 01.078-.148 6.54 6.54 0 00.506-.416c.255-.238.506-.489.711-.768.107-.137.232-.266.29-.436v-.015c-.035-.037-.072-.005-.109 0z"/><path fill-rule="evenodd" stroke="#3B3938" stroke-width="1.4" fill="none" d="M18.318 36.2C8.64 36.2.817 28.378.817 18.7S8.64 1.199 18.318 1.199 35.819 9.022 35.819 18.7s-7.823 17.5-17.501 17.5z"/></svg>