<svg xmlns="http://www.w3.org/2000/svg" viewBox="0 0 38.1 38.1"><path fill-rule="evenodd" fill="#3B3938" d="M25.686 22.416l-.019-.303c-.062-.231-.087-.526-.152-.76l-.019-.209c-.027-.083-.089-.182-.114-.265l-.019-.267c-.088-.273-.222-.588-.323-.853-.03-.078-.007-.131-.038-.209-.034-.086-.114-.18-.152-.265-.057-.133-.057-.27-.113-.398a8.566 8.566 0 00-.646-1.178l-.038-.113c-.04-.076-.108-.156-.152-.228-.03-.05-.026-.104-.056-.152-.056-.087-.151-.163-.209-.248-.1-.141-.164-.297-.266-.436-.051-.044-.102-.087-.152-.132-.11-.152-.192-.305-.304-.456-.108-.145-.289-.252-.398-.398-.402-.542-.987-1.028-1.538-1.424-.133-.097-.242-.246-.379-.341-.116-.081-.244-.127-.361-.209-.071-.051-.136-.141-.209-.19-.191-.131-.408-.199-.607-.323-.28-.174-.598-.377-.911-.513-.112-.047-.214-.046-.322-.094-.056-.026-.121-.088-.171-.115-.073-.036-.136-.024-.209-.056-.069-.03-.146-.101-.208-.134a23.836 23.836 0 01-.305-.056c-.079-.03-.171-.104-.246-.132l-.285-.039c-.291-.098-.684-.194-.987-.284-.233-.07-.509-.056-.74-.114h-.247a5.605 5.605 0 00-1.537-.17.709.709 0 01-.115.075c.002.49.019 1.037.019 1.555 0 .31-.039.629.019.874.203.04.535.032.74.038h.305c.175.043.39.071.55.114l.324.019c.152.041.371.061.53.114.086.029.199.088.285.113l.284.04c.076.028.163.102.228.131l.323.058c.213.081.439.233.645.322.076.033.134.024.21.056.093.042.188.13.284.171l.095.021c1.189.717 2.263 1.505 3.075 2.599.043.039.088.077.132.114.105.142.226.277.323.418.044.065.051.143.094.209.027.039.089.075.115.114.037.055.037.117.075.17.028.039.089.072.115.114.053.085.067.177.114.265.104.199.205.376.303.59.042.089.133.187.171.284l.037.171c.05.112.13.237.171.36l.038.228c.019.05.077.123.096.171.039.1.02.201.056.305.031.083.104.197.134.283v.115c.029.102.065.253.094.361v.131c.024.083.071.19.095.286v.246c.027.108.049.253.076.361.036.145-.011.352.019.474.059.242-.091.409.057.588.102.085.451.038.645.038.547 0 1.194-.032 1.652.058a2.01 2.01 0 01.132-.115v-.512c.052-.256-.035-.756-.113-1.063zM14.943 20.366c-.114.081-.375.031-.513.077-.27.089-.681.323-.834.532-.154.207-.337.45-.419.72-.005.19-.012.379-.019.569 0 .189-.014.381.039.532.028.082.109.175.151.246l.058.172c.152.235.475.547.739.664l.571.17c.238.063.641-.046.797-.094l.265-.057c.443-.227.851-.755 1.006-1.272.06-.201.057-.635 0-.836-.217-.744-.877-1.423-1.841-1.423z"/><path fill-rule="evenodd" fill="#3B3938" d="M21.472 22.683a44.368 44.368 0 01-.037-.362c-.043-.154-.092-.345-.134-.493v-.114c-.02-.069-.072-.15-.095-.208-.053-.142-.04-.261-.094-.4-.019-.047-.076-.105-.096-.151-.049-.114-.055-.205-.113-.304l-.038-.018c-.039-.073-.019-.153-.058-.228-.036-.073-.113-.156-.152-.229-.086-.165-.13-.338-.227-.492-.074-.119-.186-.229-.265-.342-.112-.161-.178-.349-.305-.495h-.037c-.177-.2-.329-.413-.493-.625-.019-.025-.053-.018-.077-.038-.052-.044-.077-.129-.132-.171-.051-.038-.128-.071-.171-.114-.02-.019-.016-.059-.039-.076-.138-.106-.254-.222-.379-.342-.099-.094-.229-.147-.341-.227-.047-.033-.086-.1-.133-.132-.182-.128-.38-.203-.57-.325-.258-.163-.564-.365-.855-.492-.144-.064-.278-.124-.417-.171l-.209-.038c-.074-.031-.188-.069-.265-.113l-.019-.039-.417-.057c-.093-.033-.207-.102-.304-.133l-.607-.056c-.308-.085-.718-.113-1.064-.172-.031.026-.102.035-.152.038-.032.171-.019.373-.019.609v1.137c0 .271-.05.55.039.74.135.029.295.038.474.038h.286c.441.113.939.185 1.347.342.087.035.197.113.284.152.075.026.152.052.228.076.053.033.114.102.171.133.14.077.284.106.417.19.118.074.21.204.323.284a5.177 5.177 0 011.784 2.164c.02.044.072.079.095.114.057.09.053.177.095.285.044.112.13.234.171.361.049.156.032.273.076.436.112.408.144.915.189 1.405h.02c.098.081.361.018.53.018h1.235c.182 0 .425-.023.531.058.07-.012.061-.028.132-.038.034-.144.013-.233.019-.4.017-.347-.044-.658-.132-.985z"/><path fill-rule="evenodd" stroke="#3B3938" stroke-width="1.4" fill="none" d="M18.505 36.2c-9.678 0-17.5-7.822-17.5-17.5s7.822-17.501 17.5-17.501S36.006 9.022 36.006 18.7s-7.823 17.5-17.501 17.5z"/></svg>