<svg xmlns="http://www.w3.org/2000/svg" viewBox="0 0 31.5 31.5"><path fill-rule="evenodd" stroke="#F60" fill="#F60" d="M15.5 30.5c-8.295 0-15-6.705-15-15s6.705-15 15-15 15 6.705 15 15-6.705 15-15 15z"/><path fill-rule="evenodd" fill="#FFF" d="M22.186 11.296a4.321 4.321 0 01-.761.26 4.723 4.723 0 01-.624.127c.136-.077.258-.171.367-.286.202-.179.367-.384.503-.622.1-.158.18-.324.236-.511.009-.02.017-.05-.007-.068-.026-.018-.049-.01-.074.009-.195.105-.401.201-.61.298-.324.14-.662.236-1.007.318-.045.005-.081 0-.113-.031a.932.932 0 00-.137-.142 2.835 2.835 0 00-.784-.484 2.258 2.258 0 00-.577-.16c-.083-.008-.167-.008-.25-.017h-.372a.147.147 0 01-.059 0h-.058c-.01.004-.019.004-.028.004-.105.005-.201.005-.301.024a2.228 2.228 0 00-.652.223 2.673 2.673 0 00-.959.757 2.816 2.816 0 00-.535 1.045 2.873 2.873 0 00-.043 1.264c.008.063 0 .073-.059.063a9.21 9.21 0 01-.503-.046 8.838 8.838 0 01-1.407-.315 7.343 7.343 0 01-1.448-.639 7.639 7.639 0 01-1.06-.716 6.596 6.596 0 01-.769-.702 10.048 10.048 0 01-.365-.401c-.066-.082-.1-.082-.152.003a3.404 3.404 0 00-.183.431 2.78 2.78 0 00-.132 1.199c.029.352.125.676.281.985.133.26.302.506.516.708.108.104.217.209.342.301-.048.008-.085-.006-.119-.006a2.863 2.863 0 01-.955-.295c-.063-.037-.097-.014-.102.055-.005.104.005.209.013.319.045.337.149.665.31.972.195.364.459.667.781.921.102.078.21.15.314.209.115.055.229.125.354.168.115.048.234.089.356.109a2.395 2.395 0 01-1.048.035c-.081-.018-.112.023-.085.096.03.086.062.163.096.236.123.269.275.506.474.716.201.232.441.42.7.569.296.161.609.271.943.325.1.018.198.018.301.041-.01.011-.013.011-.019.018a6.353 6.353 0 01-1.023.607 5.733 5.733 0 01-1.442.439c-.202.032-.406.041-.615.06a3.814 3.814 0 01-.716-.019c-.061 0-.123-.009-.184 0-.026.037-.021.06.034.09a7.576 7.576 0 002.007.895 6.327 6.327 0 001.83.278H13.548c.202-.007.408-.017.61-.045.48-.069.947-.17 1.401-.32a7.436 7.436 0 001.389-.614c.274-.151.539-.325.783-.516.338-.255.647-.521.933-.836.147-.146.295-.306.424-.47.318-.406.605-.826.851-1.273.225-.427.423-.876.572-1.333a7.84 7.84 0 00.323-1.321c.054-.356.087-.706.087-1.067v-.395c0-.055.023-.096.067-.126.148-.109.298-.234.434-.357a4.91 4.91 0 00.609-.657c.091-.119.198-.228.248-.374v-.013c-.03-.031-.061-.004-.093 0z"/></svg>