<svg xmlns="http://www.w3.org/2000/svg" viewBox="0 0 31.5 31.5"><path fill-rule="evenodd" stroke="#F60" fill="#F60" d="M15.5 30.5c-8.295 0-15-6.705-15-15s6.705-15 15-15 15 6.705 15 15-6.705 15-15 15z"/><path fill-rule="evenodd" fill="#FFF" d="M23.299 18.968a13.3 13.3 0 01-1.948 2.056c-1.528 1.324-3.182 2.472-4.919 3.502-.356.213-.737.381-1.11.559a.71.71 0 01-.282.069c-.242.011-.366-.108-.339-.392.027-.263.077-.525.121-.788.05-.294.086-.589.046-.89-.027-.206-.149-.337-.324-.432-.241-.127-.502-.183-.768-.221a10.311 10.311 0 01-2.342-.633 8.978 8.978 0 01-2.51-1.49c-1.214-1.03-2.067-2.29-2.416-3.862a5.78 5.78 0 01-.126-1.668c.096-1.362.598-2.566 1.448-3.628.904-1.131 2.048-1.943 3.366-2.519a10.477 10.477 0 013.697-.858c1.989-.104 3.879.268 5.64 1.209 1.362.727 2.479 1.72 3.257 3.068.554.963.841 2.002.844 2.833-.001 1.706-.49 2.96-1.335 4.085zm-10.893-1.96c-.066-.25-.231-.383-.496-.386-.429-.004-.859 0-1.304 0v-.163-2.962a.496.496 0 00-.523-.509c-.268.007-.464.226-.464.527l-.001 3.565c0 .029.003.057.005.086a.49.49 0 00.463.442c.623.002 1.246.005 1.867-.002.293-.001.526-.318.453-.598zm1.42-3.489a.519.519 0 00-.336-.506c-.333-.121-.663.127-.664.516-.004 1.179-.003 2.359.001 3.537 0 .092.025.189.063.271.096.198.342.313.534.265.233-.06.4-.265.401-.507.002-.599.001-1.196.001-1.794v-1.782zm4.372.014c0-.028.001-.058-.001-.085a.493.493 0 00-.322-.429.464.464 0 00-.512.101c-.125.117-.164.269-.164.433v2.115c-.038-.046-.059-.07-.076-.094l-1.168-1.592-.558-.763c-.126-.175-.293-.265-.509-.226a.456.456 0 00-.377.329.973.973 0 00-.033.265 979.266 979.266 0 000 3.428c0 .084.008.173.033.252a.496.496 0 00.535.339.522.522 0 00.426-.497c.005-.43.001-.86.001-1.291v-.905l1.803 2.456c.099.133.223.229.394.239.298.016.528-.222.528-.547v-3.528zm2.933-.545c-.616-.003-1.229-.003-1.845 0a.467.467 0 00-.465.468c-.002 1.225-.002 2.449 0 3.673 0 .262.211.479.47.479.615.001 1.229.002 1.843 0a.488.488 0 00.468-.473c.004-.286-.181-.504-.449-.509-.405-.008-.811-.004-1.217-.004h-.138v-.834h.129c.393 0 .787.002 1.18 0 .272 0 .49-.209.495-.469.005-.295-.184-.508-.471-.512-.398-.007-.795-.004-1.192-.004h-.14v-.833h.127c.401 0 .803.002 1.205-.001a.48.48 0 00.472-.49.475.475 0 00-.472-.491z"/></svg>