<svg xmlns="http://www.w3.org/2000/svg" viewBox="0 0 31.5 31.5"><path fill-rule="evenodd" stroke="#F60" fill="#F60" d="M15.5 30.5c-8.295 0-15-6.705-15-15s6.705-15 15-15 15 6.705 15 15-6.705 15-15 15z"/><path fill-rule="evenodd" fill="#FFF" d="M16.574 13.006c.004-.314.004-.623.01-.939.003-.213.003-.424.022-.63.025-.264.17-.443.434-.506.115-.033.239-.055.366-.055.428-.005.86-.005 1.282-.005.073 0 .073 0 .073-.063V8.492c0-.072 0-.072-.073-.072H16.93c-.226 0-.45.015-.671.031a3.7 3.7 0 00-.882.176c-.598.202-1.071.576-1.354 1.153a3.34 3.34 0 00-.325 1.267c-.022.315-.022.623-.025.938-.007.342 0 .667 0 1.012 0 .024-.007.045-.01.065h-1.436v2.446h.066c.428 0 .854 0 1.289.004.097 0 .091-.02.091.09v6.979h2.901v-7.013c0-.06 0-.06.066-.06h1.875l.258-2.446h-2.189a.214.214 0 01-.01-.056z"/></svg>