<svg xmlns="http://www.w3.org/2000/svg" viewBox="0 0 31.5 31.5"><path fill-rule="evenodd" stroke="#F60" fill="#F60" d="M15.5 30.5c-8.295 0-15-6.705-15-15s6.705-15 15-15 15 6.705 15 15-6.705 15-15 15z"/><path fill-rule="evenodd" fill="#FFF" d="M20.84 11.178c-.681-1.573-1.751-2.285-3.48-2.799l-2.497-.076c-.529.152-1.059.303-1.588.453-1.679.989-2.257 1.717-2.875 3.784-.178.593-.255 1.726 0 2.345.096.235.334.819.529.984.266.224.596.354.833.604.446-.048.779-.378.605-.982-.106-.367-.487-.589-.605-.909l-.075-.832c-.023-.085-.127-.331-.077-.529.436-1.72 1.297-2.75 2.724-3.48.312-.16 1.311-.553 1.815-.454 1.634.315 2.713 1.048 3.178 2.496.679 2.113-.634 4.943-1.89 5.599-.408.212-.744.086-1.288.074-.29-.3-.76-.464-.907-.906-.293-.878.274-1.727.454-2.195.119-.311.045-.513.151-.832.12-.362.409-1.036.076-1.437-.086-.267-.246-.321-.379-.529-.139-.049-.068-.006-.151-.076-.303.024-.605.05-.908.076-.481.244-1.319 1.576-1.059 2.571.111.427.543 1.153.303 1.891-.044.136-.248.398-.303.531-.289.696-.405 1.544-.606 2.269v.529c-.094.37-.452 2.336-.226 2.648.006.216.028.324.075.455.808-.133 1.518-2.335 1.74-3.178.112-.425-.05-.835.153-1.135v-.151c.993-.163.996.404 1.587.68 1.32.616 3.347-.767 3.783-1.361.44-.598.759-1.396 1.059-2.118.154-.366.21-.838.303-1.211.268-1.069-.195-2.2-.454-2.799z"/></svg>