<svg xmlns="http://www.w3.org/2000/svg" viewBox="0 0 31.5 31.5"><path fill-rule="evenodd" stroke="#F60" fill="#F60" d="M15.5 30.5c-8.295 0-15-6.705-15-15s6.705-15 15-15 15 6.705 15 15-6.705 15-15 15z"/><path fill-rule="evenodd" fill="#FFF" d="M20.086 17.43l-.258-8.067h3.028l-.259 8.067h-2.511zm1.255 1.222c.866 0 1.572.657 1.572 1.489 0 .839-.706 1.497-1.572 1.497-.873 0-1.58-.658-1.58-1.497 0-.832.707-1.489 1.58-1.489zm-3.09-.748c0 2.104-1.622 3.459-4.191 3.459H8.329v-12h5.58c2.363 0 3.784 1.139 3.784 2.994 0 1.347-1.015 2.419-2.346 2.603v.065c1.622.076 2.904 1.282 2.904 2.879zm-5.148-6.38h-1.722v2.729h1.571c1.108 0 1.772-.525 1.772-1.389 0-.841-.598-1.34-1.621-1.34zm.074 4.583h-1.796v3.094h1.813c1.255 0 1.955-.549 1.955-1.563 0-.982-.716-1.531-1.972-1.531z"/></svg>