<svg xmlns="http://www.w3.org/2000/svg" viewBox="0 0 152.57 54.75"><g data-name="レイヤー 2"><path d="M.81.86a2.09 2.09 0 01.19.28 1.27 1.27 0 00-.24.6.51.51 0 000 .42 2.29 2.29 0 01.06.9c.06.66.06 1.38.12 2a9.55 9.55 0 00.3 1.09c.78-.18 1.56-.3 2.34-.42a2.45 2.45 0 011.14.06h.12a4.69 4.69 0 012.05-.12 4.21 4.21 0 011.5.06 3.82 3.82 0 01.42.12.89.89 0 00.42-.06 2.41 2.41 0 011.44-.18 6.52 6.52 0 001.08.06c.18 0 .36.06.48.06v.54a5.16 5.16 0 01-.06 1 4.15 4.15 0 000 1.92 21.58 21.58 0 01.48 3.36v.12c-.36.3-.12.66-.12 1v.6l-.18.18a3.54 3.54 0 01-.12 2.23.45.45 0 000 .54c.12.06.12.3.06.42A5.84 5.84 0 0012.2 19c0 .12-.12.24-.24.42.48.24.48.36.36.9a4.85 4.85 0 00-.06 1l-.26-.06v.12c.36.18.3.54.24.84a1.66 1.66 0 00.06 1.2.72.72 0 01-.24 1 .13.13 0 00-.12.12c0 .36.42.24.6.48-.06.12-.18.18-.24.24s-.3.24-.06.55a.47.47 0 010 .66c-.3.48-.3.3-.3.84 0 .18-.06.36 0 .48s0 .18.06.24c.18.24.12.42-.12.6a.83.83 0 01.18.24l.18.66v.18a.61.61 0 01-.24.42v.06a1.31 1.31 0 01.24.3 1.05 1.05 0 01.24.3c.06.06 0 .18-.06.24h-.36a5.9 5.9 0 00.3 1 .6.6 0 00.06.18 1.18 1.18 0 00-.36.84c.06.06.24.12.24.24s0 .24-.06.48c.06 0 .12.06.24.12a.19.19 0 00-.06.12h-.52c.06.42.12.84.6 1-.18.24.06.42.06.6a5.59 5.59 0 01-.3.61c.3.18.06.54.24.78a3.88 3.88 0 01-.48.54c.24.06.6.06.66.42s.36.84.06 1.26c.24.3.24.6-.18.84a1.4 1.4 0 001.2 0c.12 0 .3-.12.42-.12a8.86 8.86 0 011.26.06l1.2.18a4.54 4.54 0 01.06-.9c-.06-.42-.24-.84-.3-1.32 0-.12-.06-.24.12-.3v-.06c-.36-.42-.12-.84-.12-1.26a1.11 1.11 0 00-.12-.73c-.12-.18-.06-.54-.06-.78a2.8 2.8 0 01.18-1c.06-.06 0-.18 0-.24a.76.76 0 01.36-.06c-.36-.12-.42-.42-.42-.78s-.06-.48-.06-.72.06-.54.06-.84a2.18 2.18 0 00.42-.18c-.42-.06-.42-.06-.3-.42l.18-.48c-.3-.18-.24-.54-.12-.84s.24-.48 0-.72c.06-.48.06-.9.12-1.38a1.11 1.11 0 01.12-.42 4.09 4.09 0 000-1.21c0-.6.12-1.2.18-1.8 0-.42-.06-.78-.06-1.2a6.9 6.9 0 01.12-2c.06-.36-.06-.72 0-1.08a15.29 15.29 0 01.12-2.34c0-.24-.06-.48-.06-.72s.19-.6-.06-.9c0-.06.12-.12.19-.25a.55.55 0 01-.13-.78c.06-.06 0-.18 0-.3a17.87 17.87 0 01.19-3.17c.06-.24.06-.54.12-.84.06-.78.18-1.56.3-2.34a2.16 2.16 0 01.12-.66A1.11 1.11 0 0017.85 6c.36-.42.84-.24 1.2-.24a2.52 2.52 0 001 .06h.36c.12 0 .3 0 .36-.06a.28.28 0 01.36-.06 5.82 5.82 0 001 .06c.12 0 .24-.12.42-.18a.79.79 0 001 .12 1 1 0 01.72-.06.51.51 0 00.42 0 3.32 3.32 0 011.08.12c.24.06.54.18.78-.06a.45.45 0 01.3-.06 1.32 1.32 0 01.48-.06c.12 0 .31-.06.37 0 .3.18.6-.18.84.06.12-.12.3-.18.36-.42a18.71 18.71 0 00.06-2.59.36.36 0 01.04-.23 7.25 7.25 0 01.3-1.08 5.55 5.55 0 00-.6-.3 1.66 1.66 0 00-.58-.02 3.3 3.3 0 00-.54.42c-.19-.12-.43-.18-.61-.3.03-.28-.36-.22-.36-.46a.21.21 0 00-.06.12 1.59 1.59 0 01-.36.3.53.53 0 01-.42-.08c-.24-.06-.48-.18-.72-.24-.18.12-.36.3-.66.18s-.54.06-.66-.34a.85.85 0 01-.9.48c-.3.24-.6 0-1 .12a.81.81 0 01-.48-.12c-.08-.08-.35-.18-.44.12 0 .06-.18.06-.18.06-.12-.18-.24 0-.36 0a1.41 1.41 0 01-.48.12c-.18-.06-.42 0-.54-.12-.3-.12-.48-.12-.66.12-.24-.18-.36-.38-.69-.18a1.48 1.48 0 00-.72-.06c-.25.12-.55-.06-.79-.18-.48-.24-.6-.18-1 .18-.12-.06-.24-.18-.42-.06S14.78 1 14.66.9a.4.4 0 00-.36.1.55.55 0 01-.6.06c-.42-.18-.84 0-1.26-.12-.24 0-.42.3-.66.12-.24.24-.54.06-.84.12-.06.06-.18 0-.24 0s-.12-.12-.3-.06a1.83 1.83 0 01-1.14.12 1.67 1.67 0 00-.6-.06L8.54 1h-.12a.76.76 0 01-.78.18 2 2 0 00-.6 0c-.19 0-.37.06-.55.06L5.35 1h-.24c-.18.18-.36.06-.54.06A14.62 14.62 0 003 1C2.35 1 1.69.9 1.09.84a.25.25 0 01-.2-.08zm30.06 21.66c.49.48.55.48.19 1.08-.25.42-.37.9-.61 1.32a.08.08 0 000 .12.56.56 0 01-.18.61c.12.3-.12.42-.3.6s-.12.24 0 .42.06.18.12.3c-.24.12.18.24 0 .36s-.06.3-.06.54c-.12-.06-.24-.06-.36-.12a.32.32 0 00-.18.48c.3.36.12.66.18 1s-.06.42-.24.48l.36.36a.83.83 0 01-.24.18h.18c0 .42.42.78.06 1.14a.3.3 0 00-.06.18c.3.3 0 .48 0 .78a1.31 1.31 0 01.18.3l-.12.18c.06.3.06.48.12.72s.06.18.06.3.18.36.06.54.18.3.12.48 0 .3.06.36a10.46 10.46 0 01.66 1.93c.13.24.25.54.43.84a7.57 7.57 0 002 2.52 8.17 8.17 0 002 1.26 18.18 18.18 0 002.52 1 9.31 9.31 0 001.26.24c.6.12 1.2.3 1.8.36a6.22 6.22 0 002.11 0 3 3 0 011-.06 4.52 4.52 0 001.8-.24 8.68 8.68 0 001.32-.54c.66-.24 1-.84 1.44-1.26.06-.42.48-.6.6-.9.18-.54.6-1 .84-1.5a10.21 10.21 0 00.6-1.92l.18-.48a9.73 9.73 0 00.3-1.27 12.34 12.34 0 00.31-1.44 20 20 0 00.42-3.24c.06-1 .18-1.92.18-2.82a9.52 9.52 0 00-.3-2.89c.12-.36-.12-.66-.18-1s-.18-.72-.31-1.08a6.83 6.83 0 00-1.38-2.28 12.71 12.71 0 00-2.64-2.1 21.24 21.24 0 00-2-1 12.23 12.23 0 00-3.6-.6.22.22 0 01-.18-.06 1.31 1.31 0 01-.18-.3c-.06 0-.13-.06-.19 0a8.1 8.1 0 01-1.68.24 3.23 3.23 0 00-1.26.48.85.85 0 01-.36.12c-.24-.06-.42.12-.66.18s-.36.24-.54.24A1 1 0 0036 18a7.82 7.82 0 01-.9.6.34.34 0 00-.54 0v.4a.06.06 0 01-.06.06c-.12.12-.36.06-.3.36 0 .12-.24.36-.42.42a4.53 4.53 0 01-.84.66c-.12.06-.12.3-.24.42a1.49 1.49 0 01-.48-.06c0 .18.06.3.06.48a1.17 1.17 0 00-.42.06.83.83 0 01.18.24c-.3.6-.48.78-1.08.78zm17.84 8.23c0 .06-.06.18 0 .24a8.69 8.69 0 01-.42 2.1 2.83 2.83 0 01-.36.9c-.12.36-.18.72-.3 1l-.24.36a9.31 9.31 0 00-1 1.15c-.24.3-.6.36-.78.66-.12.12-.18.3-.36.36s-.24.3-.3.36-.06.06-.12.18l-.48-.18c.06.24 0 .36-.24.42-.06 0-.18.12-.3.12s-.24.3-.42.06c-.06-.06-.3 0-.36.12a10.17 10.17 0 01-1.32.24l-.42.06c-.13.06-.25.12-.37.06s-.42-.18-.54.12a.23.23 0 00-.36 0 2 2 0 01-.36-.18c-.06 0-.12-.06-.24-.12s-.42.18-.48-.06-.36-.06-.36-.24c-.06 0-.12-.06-.18-.06-.66.12-1-.48-1.68-.54a2.54 2.54 0 01.3-.42 1.21 1.21 0 01-1.2-.3 1.56 1.56 0 01-.54-1c-.42-.06-.6-.18-.72-.55-.06-.18-.18-.3-.24-.48a2.82 2.82 0 01.18-.54c-.18.06-.24.06-.3.12v-.06a1.82 1.82 0 01.3-.42c-.06-.12-.42 0-.24-.3.06-.12-.06-.3-.06-.48-.24-.06-.54-.12-.48-.48-.36-.12-.12-.48-.24-.72l.18-.12c-.12-.24-.24-.42-.36-.66.06-.06.18-.12.24-.24s.12-.12.12-.18c-.06-.24.06-.3.24-.36-.18-.12-.36-.18-.42-.3a3.35 3.35 0 01-.3-.48l.54-.36c-.06-.06-.12-.06-.18-.12a2.47 2.47 0 01.16-.43l.3.18v-.06l-.3-.36c0-.18.06-.36.06-.54s-.24-.18-.48-.24c.12-.06.18-.18.3-.3a4.58 4.58 0 01.54.54c.24-.18.12-.36.06-.54h-.42v-.18c0-.06.06-.12 0-.18a.45.45 0 010-.54c.06-.24.3-.18.42-.36-.12 0-.24-.06-.42-.06.54-.3.48-.72.42-1.27l.78.36a5.58 5.58 0 00-.3-.6 3.88 3.88 0 01.54-.48c-.06-.18-.18-.36-.24-.54.24-.12.48-.3.78-.48.18-.66.18-.66.66-.66v-.6a.87.87 0 01.42-.12.85.85 0 01.12.36c.06 0 .06 0 .12-.06S37 22 37 21.86h.06a.83.83 0 01.18.24c.24-.06.06-.18.12-.36s.12-.18.24-.24.12.06.18.06.24-.42.54-.3c.12-.36.18-.72.66-.66.18-.3.54-.12.78-.24 0 .06.06.12.06.24.18-.18.36-.3.6-.18h.18c.54-.24 1.09 0 1.69 0 .12 0 .3 0 .36.18s.42.3.66.3a7.08 7.08 0 001.2.24c.06 0 .18.06.18.12.36.36.78.6 1.14.9s.9.78 1.32 1.14a1 1 0 01.42.66.68.68 0 00.18.48 1.33 1.33 0 01.3.66 4 4 0 00.42 1.45 6.06 6.06 0 01.18 1v1.86a1.46 1.46 0 01.06 1.34zm13.63 8.35a1.21 1.21 0 00.48.24 3.43 3.43 0 01.48-.42 2.5 2.5 0 01.12.36.51.51 0 01-.36.12c.06.3.42.3.24.48.18.24-.12.3 0 .48-.18.12-.36.18-.42.24H63c.18 0 .24.12.18.24s-.12.18-.12.24a.31.31 0 00.12.24h.12a1.09 1.09 0 01-.48 1l-.48.18c.24 0 .36.06.48.06-.12.3-.54 0-.48.48h.36c.12.06.18.12.3.18s.18.24.12.42a1.39 1.39 0 00-.24.6l-.42-.24a.06.06 0 00.06.06c.06.12.12.12 0 .18s-.24.06-.24-.06 0-.12-.12-.12-.18.12-.3.12c.21 0 .37.07.42.26s-.06.12-.12.18.06.06.12.06a.22.22 0 00.18-.06c.12-.24.42-.06.48-.3.18.3-.24.36-.12.54a1.85 1.85 0 01.12.48c-.24-.3-.48 0-.66.06a4.21 4.21 0 00.54.36.35.35 0 01.06.49c-.06 0 0 .12 0 .18s.06.12.06.24 0 .3-.06.3-.18 0-.36-.06l-.66.3a1.45 1.45 0 001 .24v.24a1.64 1.64 0 00.24.42 1.17 1.17 0 00-.48.06v.06c.12.06.24.06.36.12s-.12.3-.24.42.48.36.18.66c.18.18.12.42.06.72-.12 0-.18-.06-.3-.12-.12.12.3.24 0 .36a.54.54 0 00.3-.06c-.06.12-.06.3-.12.48a.06.06 0 00.06.06.64.64 0 01.84 0 1.5 1.5 0 001 .18 5.49 5.49 0 011.43-.05c.12 0 .18-.06.3-.12a2.13 2.13 0 00-.24-.54c.12-.12.24-.18.3-.36l-.18-.12c-.06 0-.12-.06-.18-.06l.18-.18c0-.3-.12-.6.12-1v-.12c-.06-.66-.06-.66.18-1.08 0-.12-.06-.24-.06-.36l.18-.24c0-.06 0-.06-.06-.06s-.12.06-.18.12c0-.18-.06-.3 0-.36a.38.38 0 000-.36c0-.19.06-.31.06-.55s.12-.3.06-.36a.75.75 0 01.24-.78.65.65 0 01-.3-.06v-.78c.06 0 .18.06.24.06s.06-.12.12-.24l-.06-.06h-.06c0-.12.06-.18.06-.3a.22.22 0 01-.06-.18 5.85 5.85 0 00-.3-.66 6.28 6.28 0 01.48-.66c-.12-.3-.3-.6-.12-.9a2.15 2.15 0 01-.42-.6c.12-.06.24-.06.36-.12-.12-.54 0-1.08-.42-1.5.06-.18.06-.36.12-.6-.18-.24-.18-.36 0-.66l.06-.06c0-.12-.24-.18 0-.36v-.3c-.06-.06-.12-.06-.12-.12a1 1 0 01-.12-.61c.06 0 .06-.06 0-.12-.3-.18 0-.3.12-.48.06 0 .12.06.18.06.54-.24.9.24 1.14.48a5.19 5.19 0 00.6.43 2 2 0 01.84.66.47.47 0 00.48.12.46.46 0 01.54.06c.06.18.42.12.54.42 0 .06.18.12.36.12 0-.06.06-.12.12-.18.06.12.12.3.3.18l.42.06a1.49 1.49 0 00.48.06 3.42 3.42 0 01.78-.06 2.25 2.25 0 00.6.06 1.08 1.08 0 01.54.24v-.3l.42-.18a.06.06 0 00.06-.06c0-.36.36-.36.55-.36a1 1 0 00.9-.36c.06-.06.18-.06.36-.12.36-.12.6-.18.78-.48.06-.06.18-.19.3 0a2.5 2.5 0 00.36-.12c.12.18.24.18.3.12a.32.32 0 00.12-.25h-.18c-.06-.24.06-.3.12-.3v-.3c.06-.12.06-.48.36-.36.06-.06.06-.12.06-.24h.42a.93.93 0 01.84-1.2c-.24-.06-.3-.12-.18-.42s.06-.66.36-.78c-.12-.24.18-.48.24-.78a7.2 7.2 0 00.18-1.2c0-.24.12-.42.12-.66l.18-.84c.06-.18.18-.42.24-.66a.83.83 0 01.18-.24c-.42-.3-.06-.66-.12-1 .24-.06.12-.24.12-.36s.06-.3 0-.48a1.42 1.42 0 01.18-1 5.55 5.55 0 00.12-1.74 1.29 1.29 0 010-.48 14.62 14.62 0 00-.06-1.62.6.6 0 01.06-.1c-.3-.24-.18-.6-.18-.78a.44.44 0 00-.12-.36c-.24-.24-.18-.66-.36-.9v-.18a2.6 2.6 0 01-.66-1.2.46.46 0 00-.3-.12.6.6 0 01-.3-.24 1.86 1.86 0 00-.78-.9 1.31 1.31 0 01-.18-.3.22.22 0 00-.18.06 9.82 9.82 0 00-1.08-1c-.36.12-.72-.12-1.2-.24-.06 0-.06 0-.06-.06-.06-.3-.3-.24-.36-.18a2.8 2.8 0 01-1.21.06 1.84 1.84 0 00-1 .18c-.12.12-.18.18-.36.06a.65.65 0 00-.3-.06 4.7 4.7 0 01-.84.3 12 12 0 01-1.26.37.82.82 0 00-.6.36.21.21 0 01-.12.06 3.82 3.82 0 00-1.38.72 2.61 2.61 0 01-.42.36c-.12-.18-.24-.36-.48-.36V16a.45.45 0 01.24-.12c.18-.3-.36-.3-.18-.61h-.78c-.72-.06-1.44-.06-2.1-.12s-.79.25-.85.79a2.88 2.88 0 01-.48 1.32h.24c.06.24.18.48.24.66a1.4 1.4 0 00-.42.42.87.87 0 00.42.12l-.18.3a1.36 1.36 0 01-.06.24.4.4 0 010 .6.89.89 0 00-.06.42.89.89 0 01-.06.54c-.06.06 0 .18 0 .24a1 1 0 01.12.3c-.06.24-.06.3-.18.42s-.12.12-.06.24.06.48.18.66a.18.18 0 010 .24.92.92 0 00-.12.66c.12.18-.3.3 0 .48.06 0-.06.3-.18.42s.3.24 0 .3c.24.3-.12.6.06.9-.18.25 0 .49 0 .73v.66c0 .42-.06.78-.06 1.08v1a21.16 21.16 0 000 2.76c0 .06.06.12 0 .12-.3.42-.06.66-.12 1.14a.76.76 0 01-.06.36c-.12.06.18.12 0 .36a.12.12 0 00-.12.12.64.64 0 00-.18.3.46.46 0 01.18-.06l.18-.12a15.75 15.75 0 01-.06 3.37 5.94 5.94 0 01-.12 1.08c0 .18-.18.3-.24.42a1.85 1.85 0 01-.6-.06c.06.24.24.12.48.18a3.9 3.9 0 01-.62.08zm12.33-6.91h.22l-1 .6-.18-.36c-.06.06-.06.06-.06.12A.89.89 0 0173 33a1.14 1.14 0 01-.78-.06c-.06-.06-.18-.06-.18 0a2.74 2.74 0 01-2.28-.18 7.09 7.09 0 01-1.08-.66.87.87 0 01-.36-.54.7.7 0 00-.66-.42c0-.18-.3-.3-.06-.6-.54-.36-.12-.78-.24-1.2s0-1-.06-1.56a3.49 3.49 0 01.06-1.56c.06-.06-.18-.3.12-.42a.34.34 0 01-.12-.31c-.06-.24.06-.42.06-.6s-.06-.42-.06-.66.06-.48.12-.66.18-.12.18-.18v-.78c.06-.3 0-.78.42-1a.73.73 0 01-.12-.9c.12-.24.06-.66.6-.6l-.12-.18c.06-.06.18-.12.3-.24s.12-.12.18-.12.24-.06.3-.12a.64.64 0 01.78-.05 1.8 1.8 0 01.48.24c.18.18.18.06.24-.06s.18-.48.42-.48a.13.13 0 00.12-.12c.24-.36.66-.3 1-.3s.36.06.6-.06.24.12.3-.12c0-.06.06-.06.18-.06h.84a2.25 2.25 0 00.66.06l.73.18a3.68 3.68 0 011.08.42c.12.12.24.12.3.24s.3.3.48.48.42.36.48.6.12.78.48.9c0 .42.42.66.36 1.14v.24a.79.79 0 00.3.9c0 .06.06.12.06.18a8 8 0 010 1.2A6.29 6.29 0 0179 26c0 .06-.12.12-.18.12a.68.68 0 01.06.48 6.48 6.48 0 01-.3 1.26c0 .12-.06.18-.12.3.12.12 0 .24 0 .36l-.24.36a3.55 3.55 0 01-.36-.24 1.59 1.59 0 00-.3.36c-.06 0-.06.06 0 .06a.21.21 0 00.06.12c0-.12.06-.12.18-.12a.45.45 0 01.24.06c-.18.06-.24.12-.36.12l.06.42a2.39 2.39 0 01-.24.18c-.18-.06-.24.06-.3.12s-.24 0-.18.24-.36.06-.12.3c0 0-.06.12-.12.12a.77.77 0 01-.3.42c-.18 0-.42-.3-.6-.06v.06h.21c-.06.36-.18.54-.54.6h-.12a.56.56 0 01-.55.17.89.89 0 01-.38-.26zm21.84-15.67c-.9 0-1.8.42-2.64.18a.83.83 0 00-.18.24c-.42-.3-.42-.3-1 .06 0 .18.06.36.06.48s0 .54-.24.72c0 0 0 .18.06.18.24.12.12.42.12.6a3.86 3.86 0 00-.3 1.44c0 .06-.06.12-.06.06a2.64 2.64 0 01.12.6 1.25 1.25 0 01-.06.66c0 .18-.12.48-.06.48.36.24-.12.24-.06.42s0 .18.06.3a1.34 1.34 0 010 .84.65.65 0 000 .66 2 2 0 01.06.84.92.92 0 00-.06.79 1.84 1.84 0 01-.06 1.38c-.06.12 0 .24 0 .36s.06.36 0 .48.18.36.06.48a.37.37 0 00.06.36c0 .42-.06.78-.06 1.2a1.84 1.84 0 00.12 1.26c.06.12.12.36 0 .48s-.12.3 0 .42c-.18.12-.06.36-.06.54s.12.24.12.3c-.24.36.06.48.18.66-.06.18-.18.42-.12.48.12.24 0 .54.12.78s0 .48.06.73-.12.24-.18.42c.42.3.18.6-.06 1 .12.06.18.06.24.12v2.4a5.58 5.58 0 01.6.3.83.83 0 01.24-.18v.24c.24 0 .48-.06.66-.06 0-.24.18-.36.42-.36s.66.06 1 .06.6-.36.48-.54-.18-.12-.12-.24a.27.27 0 000-.3 2.93 2.93 0 01-.06-1v-1.38a5 5 0 01.18-1.87l-.06-.24a3.82 3.82 0 00.12-.42c-.18-.06-.24-.24-.24-.48.06-.6.06-1.26.06-1.86v-1a15.72 15.72 0 00.12-1.59 6.84 6.84 0 01.12-2.7l-.06-.3c0-.12-.06-.24-.06-.36 0-.61 0-1.27.06-1.93a11.72 11.72 0 01.12-1.38V20.9a10.62 10.62 0 00.06-1.38c0-.6.06-1.26.12-1.86 0-.06 0-.18.06-.18a1.75 1.75 0 00-.06-.96zm-2.88-5c.06.12.24.18.36.3.12-.18.24 0 .36 0s.3-.06.42-.12.6-.06.84-.3a8.78 8.78 0 01.54-.78 2.37 2.37 0 00.3-.84 3.38 3.38 0 000-.78 2.66 2.66 0 00-.45-.71c-.24.12-.24-.18-.3-.3-.42.06-.78.06-1.14.12-.06.06-.18.06-.24.12a3.88 3.88 0 00-.48.54c-.3.3-.18.72-.24 1.08a3.7 3.7 0 00.03 1.62zm31.23 5.89a1.53 1.53 0 01-.12-.42c0-.36-.42-1.08-.78-1.14a7 7 0 00-1.62-.24 7.48 7.48 0 01-.79.18c-.24.06-.48-.36-.84-.06-.12.06-.3 0-.36-.3-.3.48-.78.36-1.08.42-.12.06-.3-.06-.36 0a2 2 0 01-1.44.12 3.81 3.81 0 00-1.38.18 1.41 1.41 0 01-.48.12.5.5 0 00-.48.3 2.25 2.25 0 01-.6.06 10.62 10.62 0 00-2.4 1.44c-.18.24-.55.36-.79.54a.36.36 0 01-.24.06c-.24.36-.66.54-.9 1s-.42.42-.48.72c0 .12-.18.24-.3.24-.42.18-.48.24-.48.72 0 .12-.06.18-.12.36a.54.54 0 00-.18.6.18.18 0 010 .24A3.14 3.14 0 00108 24c-.06.24-.12.48-.36.54.06.42.24.84-.18 1.15l.36.3c-.06.06-.18.18-.24.18a.87.87 0 01.12.42l-.3.48c.18.18.06.3 0 .48a.64.64 0 00.06.84.66.66 0 010 .48.85.85 0 00-.06.54 1.25 1.25 0 01.06.66c.3.24.3.3.42.78-.3.24-.3.36 0 .6a.88.88 0 01.24.72c0 .24-.06.54.24.72a3.35 3.35 0 01.3.48v.06c.42.12.24.66.66.78a.3.3 0 01-.06.18.21.21 0 00.18.3c.3.06.36.18.36.42.06.48.42.72.66 1.09s.6.42.72.72c.42 0 .61.24.85.6a1.5 1.5 0 00.9.66c.12 0 .18.06.3.12.24.3.72.36 1 .72a.22.22 0 00.18.06c.3 0 .48.42.84.42.06 0 .06.06.12.12a.57.57 0 00.12.42c.12.06.3 0 .42 0a.53.53 0 00.42.06.34.34 0 01.42.06c.24.18.54.18.78.36s.42.42.78.42V41l1.08.18a1.43 1.43 0 00.54.18c.18.06.3.18.54.06s.3.12.48.18h.12a1 1 0 01.6.06c.31.12.67 0 .67-.3a4.26 4.26 0 01.3-1.74l.18-.72c-.24-.06-.12-.24-.06-.48.06-.06.18-.24.12-.24-.18-.24 0-.42.12-.66a.39.39 0 00-.06-.54 1.23 1.23 0 01-1 .06h-.25a7.26 7.26 0 00-1.14-.06c-.3-.36-.9 0-1.2-.3-.66.06-1-.36-1.5-.6-.12-.06-.24.24-.42-.06a.62.62 0 00-.42-.25c-.54 0-.72-.42-1.08-.6-.12-.12-.24-.3-.48-.24a.22.22 0 01-.18-.06 4.36 4.36 0 01-.54-.48 3.77 3.77 0 00-.72-.66 3.31 3.31 0 01-1.14-1.56 9.59 9.59 0 01-.66-2 3.17 3.17 0 01-.06-.78 10.17 10.17 0 00.06-1.32c-.12-.66.24-1.14.18-1.8 0-.06.12-.12.24-.24V26a1.31 1.31 0 00-.24-.3 1 1 0 01.18-.37c.12-.12.3-.12.3-.24s.24.06.36-.06a1 1 0 000-.42c-.12-.18.06-.3.06-.48-.12.06-.18.12-.24.12a.06.06 0 01-.06-.06c.06-.12.24-.18.24-.3-.06-.3.24-.36.36-.48l.36-.48a1.31 1.31 0 00-.18-.3 6.35 6.35 0 00.6-.72c.12.06.18.12.24.12a.87.87 0 00.12-.42.45.45 0 00-.12-.24.21.21 0 00.12-.06.19.19 0 00.12-.06 1.8 1.8 0 01.84-.66c.18-.06.3-.24.48-.36a1.13 1.13 0 00.72-.12c-.18-.24-.18-.42.06-.6l1 .18c.06-.06.12-.18.12-.12.24.06.36-.24.54 0 .18-.12.54-.06.6-.42.06.12.18.18.3.36a1.93 1.93 0 00.06-.48.65.65 0 01.48.12l.3.36.6-.6.3.3c.06 0 .06 0 .12-.06a.56.56 0 01.73 0 1.08 1.08 0 00.54.24 1.88 1.88 0 00.6-.3l.66.18a1.05 1.05 0 01.3-.24c0-.12-.06-.18-.12-.3.24-.24.36-.48.6-.72a1.5 1.5 0 01-.24-.42zm23.14-.23a2.08 2.08 0 01-.9-.66c-.18-.24-.6-.36-.84-.54s-.43-.06-.55-.36c0-.06-.12-.12-.18-.12l-1-.37H144a8.2 8.2 0 00-1.14-.12 3.55 3.55 0 00-1.2.24c-.24.06-.36-.06-.36-.24a1.34 1.34 0 01-1.26.12H140a.42.42 0 01-.18.43l-.48.12a3.31 3.31 0 00-.24-.43h-.31c0 .16-.39.12-.29.32a.22.22 0 01.18.06c0 .12 0 .36-.24.3h-.12c-.3.48-.9.6-1.32.9-.06.06-.18.12-.3.24l-.6.6c-.18-.3-.36.12-.61 0a.79.79 0 01.06.84c-.18.24-.24.6-.48.78s0 .54-.18.72-.06.48-.12.72-.18.6-.24.84a1 1 0 000 .84 1 1 0 01.06.42c.06.18.18.3.24.48v.48a1.09 1.09 0 00.36.84c.3.24.36.54.55.78s.24.73.54.91c.12.06.12.24.18.36a.4.4 0 00.42.36c.36-.06.6.24.84.48l.48.3c.06.12.12-.18.3 0a2 2 0 00.84.3 1.31 1.31 0 01.3.18 3.66 3.66 0 001 .72c.06.06.12.12.18.12.36-.12.54.18.84.36l.48.3a.8.8 0 01.54.36 1.43 1.43 0 00.66.36 4.77 4.77 0 011.08.84 1.62 1.62 0 00.48.42 1.45 1.45 0 01.66.78c.06.18.3.36.3.54s.13.36.19.6.18.18.24.3-.06-.06-.12 0h-.06a2.07 2.07 0 01.3.66 1.54 1.54 0 01-.3.72c-.31-.06-.25.24-.37.36s-.18.37-.3.43c-.42.18-.72.3-.84.66-.3-.18-.36.24-.66.18a3.42 3.42 0 01-.78-.06c-.6 0-1.2 0-1.86-.06-.3 0-.6-.06-.9-.06a7.38 7.38 0 01-2.76-.84 14.31 14.31 0 01-2.11-.85c-.42-.18-.66.06-1 .24.18.18.42.36.18.79-.06.06-.06.3-.06.42l.42 1.38a.06.06 0 01.06.06c.48.06.42.42.48.78.31-.12.43 0 .61.24a2.33 2.33 0 001 .9c0 .06-.06.12-.12.24.18.24.42.06.54 0a.37.37 0 01.42-.06 1.66 1.66 0 00.54.06c.12 0 .06.36.3.18a1.21 1.21 0 00.24.48 3.35 3.35 0 01.48-.3c.12 0 .24.24.42.36a1.31 1.31 0 01.18-.3c.18.24.3.54.6.42-.06-.06-.06-.12-.18-.18.24-.06.3 0 .48.12s.36.18.6-.18c.42.12.84.24 1.32.42 0 .06.12.06.12.06.24-.36.6-.12.84-.3s.42-.12.6.06.42 0 .6-.12.48-.12.54-.36a.85.85 0 01.49-.3 8.4 8.4 0 001-.6l1.38-.54a.46.46 0 01.3-.12.85.85 0 01-.12-.36s.06 0 .06-.12a5.24 5.24 0 001.2-1.38 5.08 5.08 0 00.54-1.45 4.25 4.25 0 00.18-2.1c-.06-.3-.18-.6-.24-.84v-.06c.06-.6-.48-.78-.72-1.2a2 2 0 01-.24-.84h-.3a1.8 1.8 0 01-.72-.78.65.65 0 00-.24-.3A4.86 4.86 0 00147 29c-.42-.12-.72-.54-1.09-.78a1.26 1.26 0 00-.36-.24c-.6-.3-1.2-.6-1.8-1a8.78 8.78 0 01-.78-.54c-.36-.18-.72-.24-.84-.66a.51.51 0 00-.36-.25c-.66-.18-1-.72-1.56-1.08l-.54-.36a1.44 1.44 0 01-.36-.48 3.79 3.79 0 01.24-.54c-.18 0-.3.06-.54.06l-.18-.78a1.82 1.82 0 00-.3-.42.89.89 0 01.36-.06c-.3-.66-.12-1.2.6-1.86a.06.06 0 00-.06-.06c-.06-.06-.12 0-.18-.06a1.19 1.19 0 01.66-.84l1-.36a1.33 1.33 0 01.84 0c.06.06.24-.06.3-.06.3-.06.54-.18.84.12a1.09 1.09 0 011 .06 4.4 4.4 0 001.2.3.86.86 0 01.66.18c.31.24.79 0 1-.3a11 11 0 01.78-1.44c.03-.19.27-.25.47-.37z" fill="#fff"/><path d="M33 5.65a.45.45 0 01-.12.24c-.18.18-.3.36-.06.6.06 0 .06.12 0 .18s-.06.36-.12.48a.83.83 0 000 .54.91.91 0 01-.18.78c-.36.66-.36.72.12 1.2a1.69 1.69 0 00-.12 1.08l-.24.06a4.63 4.63 0 00-1.56-.42s-.12 0-.12-.06c-.18-.36-.48-.24-.78-.24h-.18v-.24l-.6.18a.76.76 0 01-.04-.36c-.24.36-.6.18-.9.36.06-.06.06-.18.12-.24-.12 0-.24-.06-.3 0s-.61-.18-.73.36c-.3-.36-.78.06-1-.42a3.48 3.48 0 01-1.92 0c-.06.06-.3.06-.36.24-.24.24-.3 0-.48-.12-.3.24-.54.48-1 .3-.18-.12-.42 0-.6 0s-.36.24-.6 0c-.12.3-.48 0-.66.18 0 .06-.18 0-.3-.06-.36-.06-.48 0-.54.36a.5.5 0 01-.36.54c-.18.06-.24 0-.42-.06a.36.36 0 00-.06.24.85.85 0 00.36.12c.48.06.48.06.66.48.18-.06.36-.18.54-.24l-.3-.48a5.55 5.55 0 01.3-.6c.24 0 .42.18.66.36a2.69 2.69 0 00-.06.66 2 2 0 01-.38 1.35c-.06.06 0 .18 0 .3a.85.85 0 01.12.36c.06.12.12.3.06.36-.36.24-.12.6-.24 1a1 1 0 00-.3.12l.3.18a2.5 2.5 0 01-.36.85 2.5 2.5 0 01.36-.12.62.62 0 00.06.24c-.24.18.06.6-.42.6.18.36.36.6 0 .9-.18.12.12.18.18.36a7 7 0 00-.3.66 1.26 1.26 0 01.36.24l-.36.18v.18c.06.3 0 .66.24 1 .06.06 0 .24-.06.42a1.26 1.26 0 01-.24.36l.18.18c-.06.3-.06.48-.12.72h.06V22c-.3-.12-.36.12-.48.3.18 0 .3-.06.42-.06s.06.06.06.12c.06.24.12.48-.24.54l.18.18c-.06.12-.12.3-.18.42l.36.36c-.12.18-.18.24-.18.84a2 2 0 01-.48.18l.48.18a1.31 1.31 0 00-.18.3c.06.06.12.06.24.12a4.45 4.45 0 00-.3 1.81c0 .36.12.66.12 1a3.23 3.23 0 01-.18.6c.06.06.3.18.3.3a.22.22 0 01-.06.18.77.77 0 01-.42.3c.06.06.12.06.12.12s.12 0 .12.06a1 1 0 00.12.72c0 .06-.06.12-.06.24s-.06.24 0 .36.06.24-.12.36v.3a1.82 1.82 0 01.17 1.32l.06.24a.86.86 0 01-.18.84c-.18.3-.24.3.06.54.06.06.12.06.24.12l-.18.72v.18l.18.43c-.3-.06-.36.18-.48.3.12.36.72.36.54.84a.81.81 0 01-.06.9l.54 1.5a2.6 2.6 0 00-.06.3c-.06.18-.18.36.12.42.06 0 .12.12.12.12-.06.36.24.66.12 1a.21.21 0 00.06.12 2.83 2.83 0 01.3 1.44 1.58 1.58 0 00-.72-.06c-.36.06-.72-.12-1.14.12a3.2 3.2 0 01-1.14.24h-.66c-.18.06-.36-.06-.54.12a1.24 1.24 0 01-.67.06.22.22 0 01-.18-.06 1.52 1.52 0 00-1.14.06l-.66.18c-.3.12-.54-.12-.72-.36l-.9-1.08c-.18-.24-.24-.42-.42-.66a2.29 2.29 0 00-.66-.84c-.24-.24-.24-.54-.42-.72a.36.36 0 01.06-.48c.24-.18.24-.18 0-.36s-.12-.48.06-.84a1.53 1.53 0 01.42.12c0-.06.06-.12.12-.24l-.78-.18a.22.22 0 00-.06-.18l.24-.18a1 1 0 01-.24-.72c.06-.24 0-.54.42-.54a.8.8 0 00-.36-.3l.18-.67c-.18-.18-.54-.24-.24-.6a1 1 0 00-.12-.3c.12 0 .18-.06.36-.06-.12-.12-.24-.18-.3-.24s.24-.24 0-.42-.06-.42-.06-.6.12-.24.24-.36H11a2.5 2.5 0 01.12-.36c0-.12.06-.18.06-.3s-.18-.42-.12-.6.18-.36 0-.54 0-.12 0-.18v-.66a1.26 1.26 0 00.36-.24c-.06-.06-.06-.18-.12-.3H11c0-.42-.18-.84.18-1.26a2.28 2.28 0 00-.36-.3c.24-.24.3-.48.12-.72a.74.74 0 00.24-.84c-.06-.24-.3-.6.24-.72a4 4 0 01-.24-.91c.36-.24.12-.54.06-.9a1 1 0 010-.42 7.39 7.39 0 00-.12-1.2 3.17 3.17 0 01.12-1.68.46.46 0 000-.48c-.06-.06 0-.24 0-.36a4.05 4.05 0 00-.12-.84c-.06-.24-.12-.42.06-.6a.38.38 0 000-.36c0-.06-.12-.24-.12-.3.24-.48 0-1.08.18-1.62a.46.46 0 00.12-.3 5.41 5.41 0 00.18-1.69c0-.66.18-1.32.18-1.92a4.61 4.61 0 00-.18-1.8 1.71 1.71 0 00-1-.06 2.49 2.49 0 01-.72-.24l-.24.18-1-.18c-.12.06-.24.18-.42.3a.83.83 0 00-.18-.24 1.69 1.69 0 01-.98-.04c-.13-.06-.31.06-.43.06-.3 0-.54.36-.78 0a1.68 1.68 0 01-1.68.12.83.83 0 01-.18-.24c-.12-.12-.12-.24-.36-.24a.21.21 0 01-.14-.03 7.19 7.19 0 01-.66-.72 1.19 1.19 0 00-.72-.48c-.12 0-.18-.06-.3-.12A4.8 4.8 0 01.31 6.37a.9.9 0 01.06-.78v-.18a.69.69 0 01-.18-.67.06.06 0 00.06-.06c-.42-.3-.18-.66-.18-1a5.49 5.49 0 01-.06-1L.07 2A2.05 2.05 0 01.37.72h.24a1 1 0 01.39.42 1.27 1.27 0 00-.24.6.51.51 0 000 .42 2.29 2.29 0 01.06.9c.06.66.06 1.38.12 2a9.55 9.55 0 00.3 1.09c.78-.18 1.56-.3 2.34-.42a2.45 2.45 0 011.14.06h.12a4.69 4.69 0 012.05-.12 4.21 4.21 0 011.5.06 3.82 3.82 0 01.42.12.89.89 0 00.42-.06 2.41 2.41 0 011.44-.18 6.52 6.52 0 001.08.06c.18 0 .36.06.48.06v.54a5.16 5.16 0 01-.06 1 4.15 4.15 0 000 1.92 21.58 21.58 0 01.48 3.36v.12c-.36.3-.12.66-.12 1v.6l-.18.18a3.54 3.54 0 01-.12 2.23.45.45 0 000 .54c.12.06.12.3.06.42A5.84 5.84 0 0012.2 19c0 .12-.12.24-.24.42.48.24.48.36.36.9a4.85 4.85 0 00-.06 1l-.26-.06v.12c.36.18.3.54.24.84a1.66 1.66 0 00.06 1.2.72.72 0 01-.24 1 .13.13 0 00-.12.12c0 .36.42.24.6.48-.06.12-.18.18-.24.24s-.3.24-.06.55a.47.47 0 010 .66c-.3.48-.3.3-.3.84 0 .18-.06.36 0 .48s0 .18.06.24c.18.24.12.42-.12.6a.83.83 0 01.18.24l.18.66v.18a.61.61 0 01-.24.42v.06a1.31 1.31 0 01.24.3 1.05 1.05 0 01.24.3c.06.06 0 .18-.06.24h-.36a5.9 5.9 0 00.3 1 .6.6 0 00.06.18 1.18 1.18 0 00-.36.84c.06.06.24.12.24.24s0 .24-.06.48c.06 0 .12.06.24.12a.19.19 0 00-.06.12h-.52c.06.42.12.84.6 1-.18.24.06.42.06.6a5.59 5.59 0 01-.3.61c.3.18.06.54.24.78a3.88 3.88 0 01-.48.54c.24.06.6.06.66.42s.36.84.06 1.26c.24.3.24.6-.18.84a1.4 1.4 0 001.2 0c.12 0 .3-.12.42-.12a8.86 8.86 0 011.26.06l1.2.18a4.54 4.54 0 01.06-.9c-.06-.42-.24-.84-.3-1.32 0-.12-.06-.24.12-.3v-.06c-.36-.42-.12-.84-.12-1.26a1.11 1.11 0 00-.12-.73c-.12-.18-.06-.54-.06-.78a2.8 2.8 0 01.18-1c.06-.06 0-.18 0-.24a.76.76 0 01.36-.06c-.36-.12-.42-.42-.42-.78s-.06-.48-.06-.72.06-.54.06-.84a2.18 2.18 0 00.42-.18c-.42-.06-.42-.06-.3-.42l.18-.48c-.3-.18-.24-.54-.12-.84s.24-.48 0-.72c.06-.48.06-.9.12-1.38a1.11 1.11 0 01.12-.42 4.09 4.09 0 000-1.21c0-.6.12-1.2.18-1.8 0-.42-.06-.78-.06-1.2a6.9 6.9 0 01.12-2c.06-.36-.06-.72 0-1.08a15.29 15.29 0 01.12-2.34c0-.24-.06-.48-.06-.72s.19-.6-.06-.9c0-.06.12-.12.19-.25a.55.55 0 01-.13-.78c.06-.06 0-.18 0-.3a17.87 17.87 0 01.19-3.17c.06-.24.06-.54.12-.84.06-.78.18-1.56.3-2.34a2.16 2.16 0 01.12-.66A1.11 1.11 0 0017.85 6c.36-.42.84-.24 1.2-.24a2.52 2.52 0 001 .06h.36c.12 0 .3 0 .36-.06a.28.28 0 01.36-.06 5.82 5.82 0 001 .06c.12 0 .24-.12.42-.18a.79.79 0 001 .12 1 1 0 01.72-.06.51.51 0 00.42 0 3.32 3.32 0 011.08.12c.24.06.54.18.78-.06a.45.45 0 01.3-.06 1.32 1.32 0 01.48-.06c.12 0 .31-.06.37 0 .3.18.6-.18.84.06.12-.12.3-.18.36-.42a18.71 18.71 0 00.06-2.59.36.36 0 01.04-.23 7.25 7.25 0 01.3-1.08 5.55 5.55 0 00-.6-.3 1.66 1.66 0 00-.58-.02 3.3 3.3 0 00-.54.42c-.19-.12-.43-.18-.61-.3.03-.28-.36-.22-.36-.46a.21.21 0 00-.06.12 1.59 1.59 0 01-.36.3.53.53 0 01-.42-.08c-.24-.06-.48-.18-.72-.24-.18.12-.36.3-.66.18s-.54.06-.66-.34a.85.85 0 01-.9.48c-.3.24-.6 0-1 .12a.81.81 0 01-.48-.12c-.08-.08-.35-.18-.44.12 0 .06-.18.06-.18.06-.12-.18-.24 0-.36 0a1.41 1.41 0 01-.48.12c-.18-.06-.42 0-.54-.12-.3-.12-.48-.12-.66.12-.24-.18-.36-.38-.69-.18a1.48 1.48 0 00-.72-.06c-.25.12-.55-.06-.79-.18-.48-.24-.6-.18-1 .18-.12-.06-.24-.18-.42-.06S14.78 1 14.66.9a.4.4 0 00-.36.1.55.55 0 01-.6.06c-.42-.18-.84 0-1.26-.12-.24 0-.42.3-.66.12-.24.24-.54.06-.84.12-.06.06-.18 0-.24 0s-.12-.12-.3-.06a1.83 1.83 0 01-1.14.12 1.67 1.67 0 00-.6-.06L8.54 1h-.12a.76.76 0 01-.78.18 2 2 0 00-.6 0c-.19 0-.37.06-.55.06L5.35 1h-.24c-.18.18-.36.06-.54.06A14.62 14.62 0 003 1C2.35 1 1.69.9 1.09.84.91.84.79.72.91.48h1.8a4.85 4.85 0 011.86 0c.6 0 1.2-.06 1.8 0A5 5 0 018 .48a.18.18 0 00.24 0c.18-.12.36 0 .6 0s.6-.06.9-.06l.54-.18c.06.18.06.3.12.54a3 3 0 00.48-.42 1.36 1.36 0 001.5 0 5.15 5.15 0 011-.18c.18-.06.36-.06.54-.12a.65.65 0 01.3.06c.18.06.42.18.6 0 .36.3.6-.12 1-.12a5.49 5.49 0 001 .06c.06.18.24.42-.06.72a1.35 1.35 0 01.49-.06 2.25 2.25 0 01.06-.6c.42.06 1-.06 1.38.24a.76.76 0 00.36.06 1.84 1.84 0 011 .24 3.54 3.54 0 01.24-.48 10.17 10.17 0 011.38.06 8.51 8.51 0 011.33.3 1.27 1.27 0 011.5-.3.21.21 0 00.12.06 8.16 8.16 0 012.7 0h.49c.12-.06.3-.12.42.06a.45.45 0 00.3.06h1a.94.94 0 01.78.42l.3.48a20.18 20.18 0 012 2.46A14.55 14.55 0 0033.46 5c-.3.17-.46.35-.46.65zm23 26.66a1.23 1.23 0 01-.48.9c-.06 0-.06.18-.06.24s.18.06.3.12c-.3.24.12.66-.24 1a1.31 1.31 0 01-.3-.18.21.21 0 00-.12.06c.12.42-.06.9.18 1.32a.06.06 0 01-.06.06c-.24.25-.18.67-.42.91a.83.83 0 01-.24.18c-.48.3-.54.54-.06.9a.31.31 0 00-.24.12c-.12.06-.06.12 0 .18s0 .18 0 .18c-.18 0-.18.12-.12.24s0 .3-.18.48a8.15 8.15 0 00-.72.72v.06c.12.54-.18.72-.54 1a4.21 4.21 0 00-.36.54c.06 0 .06.06.12.06h.18v.12l-.24.18a2.3 2.3 0 01-.66.66c-.24.12-.18.48-.43.66s-.18.3-.42.3a.27.27 0 00-.24.18c-.12.3-.3.36-.6.42a.6.6 0 00-.18.06c-.06.42-.48.42-.72.6s-.36.12-.48.18-.24.24-.36.3A.45.45 0 0148 45a1.34 1.34 0 00-.9.48s-.12.12-.18.12a6.12 6.12 0 00-1.8.18c-.24.06-.54.06-.84.12-.12 0-.24.06-.36-.06a.66.66 0 00-.48 0 2.93 2.93 0 01-1.44-.02c-.3 0-.6-.12-.91-.12s-.6-.06-.9-.06a6.26 6.26 0 01-1.5-.48 1.76 1.76 0 01-.6-.18 7.2 7.2 0 01-1.92-1c-.12-.12-.24-.12-.42-.18l.24-.12a1.32 1.32 0 00-.48-.06 4 4 0 00-1.8-1.5c-.12 0-.18-.12-.24-.18l-.66-.9c-.06-.12-.06-.3-.12-.48l-.36.18a2 2 0 00-.84-.9c-.12-.06-.12-.36-.24-.48s-.37-.54-.61-.78l-.12-.18c.18-.36-.12-.48-.3-.72a2.35 2.35 0 01-.48-.6 2.46 2.46 0 01-.06-.66c-.06-.24-.06-.48-.18-.61s-.12-.54-.3-.72.06-.3 0-.36.24-.36 0-.54 0-.36-.06-.54a4.78 4.78 0 01-.18-.9c-.06-.3-.18-.6.18-.84-.3-.36 0-.72 0-1.14-.36.06-.3-.3-.48-.48.36-.3.06-.6.12-1s.06-.66.12-1.08c.18-.12.3-.3.12-.66a1.2 1.2 0 01.12-.9c0-.12.12-.18.06-.3s-.06-.48.24-.6a1.41 1.41 0 00-.18-.31c.12-.06.24-.06.36-.12v-.66c0-.24.18-.48.06-.72a.88.88 0 01.24-.12c.06-.24.06-.42.12-.6l.18-.6c.12.06.18.12.3.18l.12-.3a2.5 2.5 0 00-.36-.12l.36-.24a.21.21 0 01.06.12l.18.18c.49.48.55.48.19 1.08-.25.42-.37.9-.61 1.32a.08.08 0 000 .12.56.56 0 01-.18.61c.12.3-.12.42-.3.6s-.12.24 0 .42.06.18.12.3c-.24.12.18.24 0 .36s-.06.3-.06.54c-.12-.06-.24-.06-.36-.12a.32.32 0 00-.18.48c.3.36.12.66.18 1s-.06.42-.24.48l.36.36a.83.83 0 01-.24.18h.18c0 .42.42.78.06 1.14a.3.3 0 00-.06.18c.3.3 0 .48 0 .78a1.31 1.31 0 01.18.3l-.12.18c.06.3.06.48.12.72s.06.18.06.3.18.36.06.54.18.3.12.48 0 .3.06.36a10.46 10.46 0 01.66 1.93c.13.24.25.54.43.84a7.57 7.57 0 002 2.52 8.17 8.17 0 002 1.26 18.18 18.18 0 002.52 1 9.31 9.31 0 001.26.24c.6.12 1.2.3 1.8.36a6.22 6.22 0 002.11 0 3 3 0 011-.06 4.52 4.52 0 001.8-.24 8.68 8.68 0 001.32-.54c.66-.24 1-.84 1.44-1.26.06-.42.48-.6.6-.9.18-.54.6-1 .84-1.5a10.21 10.21 0 00.6-1.92l.18-.48a9.73 9.73 0 00.3-1.27 12.34 12.34 0 00.31-1.44 20 20 0 00.42-3.24c.06-1 .18-1.92.18-2.82a9.52 9.52 0 00-.3-2.89c.12-.36-.12-.66-.18-1s-.18-.72-.31-1.08a6.83 6.83 0 00-1.38-2.28 12.71 12.71 0 00-2.64-2.1 21.24 21.24 0 00-2-1 12.23 12.23 0 00-3.6-.6.22.22 0 01-.18-.06 1.31 1.31 0 01-.18-.3c-.06 0-.13-.06-.19 0a8.1 8.1 0 01-1.68.24 3.23 3.23 0 00-1.26.48.85.85 0 01-.36.12c-.24-.06-.42.12-.66.18s-.36.24-.54.24A1 1 0 0036 18a7.82 7.82 0 01-.9.6.34.34 0 00-.54 0v.4a.06.06 0 01-.06.06c-.12.12-.36.06-.3.36 0 .12-.24.36-.42.42a4.53 4.53 0 01-.84.66c-.12.06-.12.3-.24.42a1.49 1.49 0 01-.48-.06c0 .18.06.3.06.48a1.17 1.17 0 00-.42.06.83.83 0 01.18.24c-.3.6-.48.78-1.08.78-.37-.66-.37-.72.24-.78 0-.3 0-.48.3-.6a1.1 1.1 0 00.42-.6c.06-.36.36-.42.66-.48a.87.87 0 01.12-.42.46.46 0 01.12-.3c.06-.06.18-.06.3-.12s.12-.12.18-.12.06-.24.18-.06c.06 0 .3-.36.36-.48s.12-.3.18-.24c.3 0 .42-.3.6-.42l.66-.48.9-.54 1.08-.36c.18 0 .3 0 .42-.18a.43.43 0 01.36-.18 2.73 2.73 0 001.38-.3h.18c.6.12 1.2-.18 1.75-.06a4 4 0 01.84.06.54.54 0 01.06.3.33.33 0 00.36.24c.42.06.78.06 1.14.12a4.63 4.63 0 01.9.12 9.6 9.6 0 012.7 1 10.75 10.75 0 011.44.72 18.43 18.43 0 011.86 1 2 2 0 011 .84.19.19 0 01.06.12c.42.06.54.42.72.72a2 2 0 00.36.18c.36.18.3.54.36.9.36-.06.48.24.66.48a9.76 9.76 0 01.66 1.38 5.05 5.05 0 01.18 1.08l.24.24a4.15 4.15 0 01-.12.85l.6-.12c-.3.24-.18.66-.36 1a.85.85 0 00.36.12c-.06.18.12.42-.06.54v.12c.3.06 0 .42.24.6s.24.12.06.3c0 .06-.06.12-.12.18.18 0 .24-.06.36-.06.06.48.06.48-.48.36-.06.24-.06.24.18.3.06 0 .12.06.18.12l.24-.18c.06.06.12.12.06.12a.89.89 0 01-.06.42c-.12.18-.06.3.12.36l-.42.72c.61.34.43.82.33 1.36zm-7.27-1.56c0 .06-.06.18 0 .24a8.69 8.69 0 01-.42 2.1 2.83 2.83 0 01-.36.9c-.12.36-.18.72-.3 1l-.24.36a9.31 9.31 0 00-1 1.15c-.24.3-.6.36-.78.66-.12.12-.18.3-.36.36s-.24.3-.3.36-.06.06-.12.18l-.48-.18c.06.24 0 .36-.24.42-.06 0-.18.12-.3.12s-.24.3-.42.06c-.06-.06-.3 0-.36.12a10.17 10.17 0 01-1.32.24l-.42.06c-.13.06-.25.12-.37.06s-.42-.18-.54.12a.23.23 0 00-.36 0 2 2 0 01-.36-.18c-.06 0-.12-.06-.24-.12s-.42.18-.48-.06-.36-.06-.36-.24c-.06 0-.12-.06-.18-.06-.66.12-1-.48-1.68-.54a2.54 2.54 0 01.3-.42 1.21 1.21 0 01-1.2-.3 1.56 1.56 0 01-.54-1c-.42-.06-.6-.18-.72-.55-.06-.18-.18-.3-.24-.48a2.82 2.82 0 01.18-.54c-.18.06-.24.06-.3.12v-.06a1.82 1.82 0 01.3-.42c-.06-.12-.42 0-.24-.3.06-.12-.06-.3-.06-.48-.24-.06-.54-.12-.48-.48-.36-.12-.12-.48-.24-.72l.18-.12c-.12-.24-.24-.42-.36-.66.06-.06.18-.12.24-.24s.12-.12.12-.18c-.06-.24.06-.3.24-.36-.18-.12-.36-.18-.42-.3a3.35 3.35 0 01-.3-.48l.54-.36c-.06-.06-.12-.06-.18-.12a2.47 2.47 0 01.14-.43l.3.18v-.06l-.3-.36c0-.18.06-.36.06-.54s-.24-.18-.48-.24c.12-.06.18-.18.3-.3a4.58 4.58 0 01.54.54c.24-.18.12-.36.06-.54h-.42v-.18c0-.06.06-.12 0-.18a.45.45 0 010-.54c.06-.24.3-.18.42-.36-.12 0-.24-.06-.42-.06.54-.3.48-.72.42-1.27l.78.36a5.58 5.58 0 00-.3-.6 3.88 3.88 0 01.54-.48c-.06-.18-.18-.36-.24-.54.24-.12.48-.3.78-.48.18-.66.18-.66.66-.66v-.6a.87.87 0 01.42-.12.85.85 0 01.12.36c.06 0 .06 0 .12-.06S37 22 37 21.86h.06a.83.83 0 01.18.24c.24-.06.06-.18.12-.36s.12-.18.24-.24.12.06.18.06.24-.42.54-.3c.12-.36.18-.72.66-.66.18-.3.54-.12.78-.24 0 .06.06.12.06.24.18-.18.36-.3.6-.18h.18c.54-.24 1.09 0 1.69 0 .12 0 .3 0 .36.18s.42.3.66.3a7.08 7.08 0 001.2.24c.06 0 .18.06.18.12.36.36.78.6 1.14.9s.9.78 1.32 1.14a1 1 0 01.42.66.68.68 0 00.18.48 1.33 1.33 0 01.3.66 4 4 0 00.42 1.45 6.06 6.06 0 01.18 1v1.86a1.46 1.46 0 01.06 1.34zm-15-2.28a2.18 2.18 0 00-.42.18 3.82 3.82 0 01.12-.42c.15-.12.21.12.27.24zm3.84-.36a10.34 10.34 0 00-.42 1.26v.18c.18.36-.12.72.12 1a.22.22 0 01-.06.18.51.51 0 000 .42l.18 1.5a7 7 0 00.48 2.22 1.54 1.54 0 00.3.72 2 2 0 01.36.61c.12.3.18.6.54.78a.46.46 0 01.12.3c.18.42.36.72.9.72a3.42 3.42 0 01.78.06 3 3 0 001.24-.06c.36-.12.78-.06 1.08-.18a4.18 4.18 0 001.38-.66 7.74 7.74 0 002.16-3c.18-.36.24-.84.72-1.08l-.18-.36c.18-.24.36-.42.54-.66-.06-.18-.18-.36.06-.6.06-.06.12-.36.06-.42-.18-.24-.06-.36.06-.54v-.12h-.24c.06-.3.18-.54.24-.84a1.43 1.43 0 01-.3-1.08c0-.3.12-.54.12-.78s.12-.24 0-.36a2.37 2.37 0 01-.36-.9c0-.18-.18-.3-.18-.42 0-.37-.18-.67-.12-1a.08.08 0 000-.12l-.48-.72c-.24-.24-.42-.54-.84-.48a.85.85 0 01-.36-.12 3.49 3.49 0 00-1.92-.24c-.06 0-.18-.12-.3-.06s-.24.12-.3.12a1.19 1.19 0 00-1.08.24 2.93 2.93 0 01-.79.24.76.76 0 00-.42.24 1.28 1.28 0 01-.72.48 1.4 1.4 0 00-.42.42 6.2 6.2 0 01-1.08 1c-.06 0-.06.12-.06.18s0 .18-.06.18a2.89 2.89 0 00-.48 1h-.18c.18.27 0 .45-.12.75zm24.14 19c-.3-.12 0-.3 0-.48s.24-.18.06-.42c.12.12.24.12.3.18l.24-.37c-.12 0-.18-.06-.3-.06a.83.83 0 00.18-.24 1.82 1.82 0 00-.42-.3c.06-.12.12-.12.24-.18-.12-.18-.12-.42-.3-.54v-.5c.3.06.54.06.6.3 0 .06-.06.12-.12.18s.06.06.12.06a.22.22 0 00.18-.06c.12-.24.42-.06.48-.3.18.3-.24.36-.12.54a1.85 1.85 0 01.12.48c-.24-.3-.48 0-.66.06a4.21 4.21 0 00.54.36.35.35 0 01.06.49c-.06 0 0 .12 0 .18s.06.12.06.24 0 .3-.06.3-.18 0-.36-.06a3.21 3.21 0 00-.78-.36c.09.3.23.39-.09.48zm22.4-17c-.3.36-.12.84-.18 1a1.12 1.12 0 01-.42 1c0 .12.06.12.06.24a2 2 0 01-.36.18 2.5 2.5 0 00.36.12c-.24.48-.36.9-.6 1.32-.12.18-.18.48-.3.6a.22.22 0 00-.06.18c.06.36 0 .36-.36.36-.12-.06-.24 0-.24.24 0 0-.12.06-.12.12a.83.83 0 00.24.18.75.75 0 00-.24.37c-.36-.13-.6.12-1 .3.06.06.18.18.24.12s.24.18.18.18c-.24.06-.12.3-.3.42l-.36.42a1.48 1.48 0 01-.54.24c-.18 0-.12.12-.18.24a.64.64 0 00-.3.18c.06.6-.18 1-.84 1a.36.36 0 01-.24-.06v.24c0 .12 0 .18-.12.12a.6.6 0 00-.54.06c-.18.06-.42.06-.54.12a3.55 3.55 0 01-.84.36c-.06-.06-.12-.06-.24-.12a.06.06 0 01-.06.06c.06.12.06.24-.12.24a7.2 7.2 0 01-1.21.24 2.43 2.43 0 01-.66 0c-.18-.06-.24.24-.48.18a7.28 7.28 0 00-1.08.06c-.06 0-.06.06-.12.06-.3-.36-.66-.06-1.08-.06 0 0-.18.06-.18 0-.18-.36-.54-.18-.84-.3a1.66 1.66 0 00-.54-.06c-.12-.06-.3 0-.42 0-.12.18-.12.42-.24.54s0 .48-.06.72v.3c-.06.06-.12.06-.12.12s.06.06.06.12a1.93 1.93 0 00.06.48c-.06 0-.12.12-.3.3.36.3.3.66.24 1.08a.89.89 0 00-.06.36.6.6 0 00-.24.3.32.32 0 00.18.24.11.11 0 00-.06.18c.06.3.06.3-.18.36a.36.36 0 00.06.24c.18.3 0 .54-.06.79a.46.46 0 00.06.6c.24.18.24.18.12.54A.57.57 0 0069 48c.06.12-.06.3-.06.54l.12.24c-.18.06-.36.12-.6.18l.18.12c.18.18.3.3.3.54-.12.06-.12.24-.18.42l-.12.18a.64.64 0 01.36.12 2.43 2.43 0 01-.3.54c.12.12.12.3-.12.42a3 3 0 01.42.48c-.12.06-.12.06-.18.06.12.06.12.3.18.42a.06.06 0 00.06.06c-.24.36.06.6 0 1s-.06.48-.24.54-.3.12-.36.24a.88.88 0 01-.9.42c-.18 0-.3-.06-.42.12s-.18.18-.36.12a1.89 1.89 0 00-1-.06c-.06 0-.18-.06-.18 0-.61.18-1-.24-1.39-.54a.19.19 0 01-.06-.12 4.21 4.21 0 00-1.32-1.74 1.3 1.3 0 01-.54-.84c.06 0 .12 0 .24-.12-.6-.24-.54-.72-.66-1.08s.12-.6-.12-.78c-.06-.12 0-.24 0-.42A.76.76 0 0062 49c0-.12.06-.3 0-.42s.12-.18.18-.36a3.68 3.68 0 00-.24-.36 1.59 1.59 0 00-.3-.36c.06 0 .06-.06.18-.18a1.45 1.45 0 001 .24v.24a1.64 1.64 0 00.24.42 1.17 1.17 0 00-.48.06v.06c.12.06.24.06.36.12s-.12.3-.24.42.48.36.18.66c.18.18.12.42.06.72-.12 0-.18-.06-.3-.12-.12.12.3.24 0 .36a.54.54 0 00.3-.06c-.06.12-.06.3-.12.48a.06.06 0 00.06.06.64.64 0 01.84 0 1.5 1.5 0 001 .18 5.49 5.49 0 011.47-.16c.12 0 .18-.06.3-.12a2.13 2.13 0 00-.24-.54c.12-.12.24-.18.3-.36l-.18-.12c-.06 0-.12-.06-.18-.06l.18-.18c0-.3-.12-.6.12-1v-.12c-.06-.66-.06-.66.18-1.08 0-.12-.06-.24-.06-.36l.18-.24c0-.06 0-.06-.06-.06s-.12.06-.18.12c0-.18-.06-.3 0-.36a.38.38 0 000-.36c0-.19.06-.31.06-.55s.12-.3.06-.36a.75.75 0 01.24-.78.65.65 0 01-.3-.06v-.78c.06 0 .18.06.24.06s.06-.12.12-.24l-.06-.06h-.06c0-.12.06-.18.06-.3a.22.22 0 01-.06-.18 5.85 5.85 0 00-.3-.66 6.28 6.28 0 01.48-.66c-.12-.3-.3-.6-.12-.9a2.15 2.15 0 01-.42-.6c.12-.06.24-.06.36-.12-.12-.54 0-1.08-.42-1.5.06-.18.06-.36.12-.6-.18-.24-.18-.36 0-.66l.06-.06c0-.12-.24-.18 0-.36v-.3c-.06-.06-.12-.06-.12-.12a1 1 0 01-.12-.61c.06 0 .06-.06 0-.12-.3-.18 0-.3.12-.48.06 0 .12.06.18.06.54-.24.9.24 1.14.48a5.19 5.19 0 00.6.43 2 2 0 01.84.66.47.47 0 00.48.12.46.46 0 01.54.06c.06.18.42.12.54.42 0 .06.18.12.36.12 0-.06.06-.12.12-.18.06.12.12.3.3.18l.42.06a1.49 1.49 0 00.48.06 3.42 3.42 0 01.78-.06 2.25 2.25 0 00.6.06 1.08 1.08 0 01.54.24v-.3l.42-.18a.06.06 0 00.06-.06c0-.36.36-.36.55-.36a1 1 0 00.9-.36c.06-.06.18-.06.36-.12.36-.12.6-.18.78-.48.06-.06.18-.19.3 0a2.5 2.5 0 00.36-.12c.12.18.24.18.3.12a.32.32 0 00.12-.25h-.18c-.06-.24.06-.3.12-.3v-.3c.06-.12.06-.48.36-.36.06-.06.06-.12.06-.24h.42a.93.93 0 01.84-1.2c-.24-.06-.3-.12-.18-.42s.06-.66.36-.78c-.12-.24.18-.48.24-.78a7.2 7.2 0 00.18-1.2c0-.24.12-.42.12-.66l.18-.84c.06-.18.18-.42.24-.66a.83.83 0 01.18-.24c-.42-.3-.06-.66-.12-1 .24-.06.12-.24.12-.36s.06-.3 0-.48a1.42 1.42 0 01.18-1 5.55 5.55 0 00.12-1.74 1.29 1.29 0 010-.48 14.62 14.62 0 00-.06-1.62.6.6 0 01.06-.1c-.3-.24-.18-.6-.18-.78a.44.44 0 00-.12-.36c-.24-.24-.18-.66-.36-.9v-.18a2.6 2.6 0 01-.66-1.2.46.46 0 00-.3-.12.6.6 0 01-.3-.24 1.86 1.86 0 00-.78-.9 1.31 1.31 0 01-.18-.3.22.22 0 00-.18.06 9.82 9.82 0 00-1.08-1c-.36.12-.72-.12-1.2-.24-.06 0-.06 0-.06-.06-.06-.3-.3-.24-.36-.18a2.8 2.8 0 01-1.21.06 1.84 1.84 0 00-1 .18c-.12.12-.18.18-.36.06a.65.65 0 00-.3-.06 4.7 4.7 0 01-.84.3 12 12 0 01-1.26.37.82.82 0 00-.6.36.21.21 0 01-.12.06 3.82 3.82 0 00-1.38.72 2.61 2.61 0 01-.42.36c-.12-.18-.24-.36-.48-.36V16a.45.45 0 01.24-.12c.18-.3-.36-.3-.18-.61h-.78c-.72-.06-1.44-.06-2.1-.12s-.79.25-.85.79a2.88 2.88 0 01-.48 1.32h.24c.06.24.18.48.24.66a1.4 1.4 0 00-.42.42.87.87 0 00.42.12l-.18.3a1.36 1.36 0 01-.06.24.4.4 0 010 .6.89.89 0 00-.06.42.89.89 0 01-.06.54c-.06.06 0 .18 0 .24a1 1 0 01.12.3c-.06.24-.06.3-.18.42s-.12.12-.06.24.06.48.18.66a.18.18 0 010 .24.92.92 0 00-.12.66c.12.18-.3.3 0 .48.06 0-.06.3-.18.42s.3.24 0 .3c.24.3-.12.6.06.9-.18.25 0 .49 0 .73v.66c0 .42-.06.78-.06 1.08v1a21.16 21.16 0 000 2.76c0 .06.06.12 0 .12-.3.42-.06.66-.12 1.14a.76.76 0 01-.06.36c-.12.06.18.12 0 .36a.12.12 0 00-.12.12.64.64 0 00-.18.3.46.46 0 01.18-.06l.18-.12a15.75 15.75 0 01-.06 3.37 5.94 5.94 0 01-.12 1.08c0 .18-.18.3-.24.42a1.85 1.85 0 01-.6-.06c.06.24.24.12.48.18-.42.12-.78 0-1 .24-.12-.42-.06-.6.3-.72 0-.18.06-.36.06-.54a2.6 2.6 0 00.3-.06l.06-.06c-.18-.06-.42-.06-.54-.12 0-.24-.06-.54.18-.66.06-.06.36.18.42.42a1.31 1.31 0 01.3-.18.06.06 0 00-.06-.06l-.24-.36c-.06-.06-.06-.18.06-.18a2 2 0 00.18-.36c-.12 0-.18-.06-.3-.06.36-.43.3-.55.06-.67.06 0 .12-.06.18-.06l-.06-.06c-.06 0-.06-.06-.12-.06l.36-.3c-.06-.06-.06-.18-.12-.3a5.28 5.28 0 00-.36.6l-.42-.72a2.25 2.25 0 00.66-.06 2.54 2.54 0 01-.3-.42.8.8 0 01.06-.3l-.48.12c.3-.3.24-.54.06-.6a.76.76 0 01-.06-.36 2 2 0 01.06-.6v-.24l.12-.12c.06 0 .12-.06.18-.12a.19.19 0 00.12-.06l-.18-.3a.85.85 0 01-.12-.36 2 2 0 010-.6.51.51 0 000-.42c-.12-.18 0-.3.18-.36-.12-.42-.3-.84.06-1.14a.76.76 0 000-.72 1.8 1.8 0 01.6-.24l-.42-.24c-.06 0-.06.06-.12.12-.24-.18-.06-.36-.12-.54s.54-.06.18-.36c.12-.24-.24-.36-.12-.54a3.07 3.07 0 00.12-.67v-1.8c.06-.24.3-.6.24-.84s.12-.48.12-.72.06-.42.06-.6a1.73 1.73 0 01.06-.78v-.24a6.33 6.33 0 01.12-1.5c.06-.06 0-.18 0-.24v-.9c0-.06.12-.18.18-.36s-.18-.18-.18-.24c0-.3.48-.6.06-1a.88.88 0 01.3-.36c.12-.06.06-.18 0-.24s-.06-.12 0-.3 0-.25 0-.37c.18-.12.36 0 .36-.24a1.71 1.71 0 011.33-.18c0 .06 0 .06.06.06.3-.12.66.06 1 .12s.54-.18.72-.06a2.88 2.88 0 00.72 0 1.25 1.25 0 01.78.12c.24.18.48.55.78.79a16.15 16.15 0 012-.85 5.85 5.85 0 012.16-.6 1.75 1.75 0 00.54-.12 3.1 3.1 0 011.81 0h.12a1.1 1.1 0 011 .12 6.22 6.22 0 00.6.24 8 8 0 01.72.36c.06.06.12.24.18.24a5.56 5.56 0 00.9.37v.3c.06.06.18.06.18.18a4.48 4.48 0 01.84.72c.12.12.3.24.36.36l.66.84c.06.12.06.24.24.24a1.22 1.22 0 01.06.3.21.21 0 01.12-.06v.24a1.18 1.18 0 01.24.48c-.12.12.24.18.06.36 0 .06.06.12.12.18s.36.3.36.48.18.24.12.48a3.37 3.37 0 00.42.78.21.21 0 00.06.12 1.39 1.39 0 00.24.6 1 1 0 00-.12.3 3.35 3.35 0 00.48.3.6.6 0 00-.3.24c.06.06.12.12.18.12a14.4 14.4 0 01.24 1.44v.54a4 4 0 000 .85c.12.18 0 .42 0 .66v.72c0 .6.06 1.2.06 1.74s-.14.94-.14 1.24zM61.68 43.48c.18-.24.06-.36.06-.48l.36-.24c-.18-.18-.42-.3-.24-.6s.06-.42.42-.36a1.49 1.49 0 01.06-.48c.12-.36.06-.48-.24-.72a.75.75 0 01.24-.78c.18-.06.12-.18-.06-.42a1.05 1.05 0 01.06-.3 1.21 1.21 0 00.48.24 3.43 3.43 0 01.48-.42 2.5 2.5 0 01.12.36.51.51 0 01-.36.12c.06.3.42.3.24.48.18.24-.12.3 0 .48-.18.12-.36.18-.42.24H63c.18 0 .24.12.18.24s-.12.18-.12.24a.31.31 0 00.12.24h.12a1.09 1.09 0 01-.48 1l-.48.18c.24 0 .36.06.48.06-.12.3-.54 0-.48.48h.36c.12.06.18.12.3.18s.18.24.12.42a1.39 1.39 0 00-.24.6l-.42-.24a.06.06 0 00.06.06c.06.12.12.12 0 .18s-.24.06-.24-.06 0-.12-.12-.12-.18.12-.3.12c-.18-.18.06-.24.12-.3-.24-.1-.36-.28-.3-.4zm.3 2.46h-.3c0-.06 0-.06.06-.06s.18 0 .26.06zm.42-10.57a2.61 2.61 0 01.24.42c-.36.06-.36 0-.24-.42zm5-9.12c.06-.06-.18-.3.12-.42a.34.34 0 01-.12-.31c-.06-.24.06-.42.06-.6s-.06-.42-.06-.66.06-.48.12-.66.18-.12.18-.18v-.78c.06-.3 0-.78.42-1a.73.73 0 01-.12-.9c.12-.24.06-.66.6-.6l-.12-.18c.06-.06.18-.12.3-.24s.12-.12.18-.12.24-.06.3-.12a.64.64 0 01.74-.08 1.8 1.8 0 01.48.24c.18.18.18.06.24-.06s.18-.48.42-.48a.13.13 0 00.12-.12c.24-.36.66-.3 1-.3s.36.06.6-.06.24.12.3-.12c0-.06.06-.06.18-.06h.84a2.25 2.25 0 00.66.06l.73.18a3.68 3.68 0 011.08.42c.12.12.24.12.3.24s.3.3.48.48.42.36.48.6.12.78.48.9c0 .42.42.66.36 1.14v.24a.79.79 0 00.3.9c0 .06.06.12.06.18a8 8 0 010 1.2A6.29 6.29 0 0179 26c0 .06-.12.12-.18.12a.68.68 0 01.06.48 6.48 6.48 0 01-.3 1.26c0 .12-.06.18-.12.3.12.12 0 .24 0 .36l-.24.36a3.55 3.55 0 01-.36-.24 1.59 1.59 0 00-.3.36c-.06 0-.06.06 0 .06a.21.21 0 00.06.12c0-.12.06-.12.18-.12a.45.45 0 01.24.06c-.18.06-.24.12-.36.12l.06.42a2.39 2.39 0 01-.24.18c-.18-.06-.24.06-.3.12s-.24 0-.18.24-.36.06-.12.3c0 0-.06.12-.12.12a.77.77 0 01-.3.42c-.18 0-.42-.3-.6-.06a3 3 0 01-.12-.72c.24-.06.3.48.54 0l-.2-.26c0-.18.18-.06.3-.06 0-.48.3-.66.78-.84-.06-.03-.18-.1-.18-.1a.11.11 0 01.06-.18c.24-.06.18-.24.24-.42a1.49 1.49 0 01.06-.54c.06-.24.12-.24.54-.24a.76.76 0 00.06.36l.36-.36-.42-.24c.18-.48.36-.9.12-1.32.06-.06.18-.12.24-.24s0-.19-.06-.31a.21.21 0 00.12-.06 4.13 4.13 0 00-.12-.78c-.06-.18-.12-.42-.42-.48A.83.83 0 0078 24c-.06 0-.12-.06-.18-.06a.4.4 0 00-.06-.6c-.24-.3-.12-.48-.06-.72 0-.06.12-.06.12-.06l-.18-.9c-.36.06-.54-.12-.9-.24a3.28 3.28 0 00-1.87-.12 4.25 4.25 0 01-.9.06l-.84.18c-.54.18-.9.3-1.38.42-.3.18-.66.3-.84.66-.06.06-.18.18-.12.24 0 .3.12.66-.06.9.18.12.06.36.06.54l-.48.18v.06h.48a1 1 0 00-.36.36 1 1 0 00.42-.24c0 .12.06.18.06.24s-.24.06-.36.12c.12.12.18.3.3.36a2 2 0 01-.54 1.09 1.8 1.8 0 01.48-.24c.06.42.06.48-.36.54a.83.83 0 00.18.24.45.45 0 01.12.24c-.24.24-.06.48-.18.72s.06.54.06.78h-.42c0 .18-.06.24-.06.42h.36v.06l-.18.36c0 .12 0 .24.12.3a.44.44 0 01.12.54c-.06 0-.12 0-.12.06s-.12.12-.12.18a.45.45 0 01-.06.42c.06 0 .06 0 .12.06a1 1 0 00.12.78c-.18.18-.36-.18-.54-.06h-.06c-.18.12-.42.06-.6.12a1.7 1.7 0 00.78.24.52.52 0 01.36.24.53.53 0 00.6.3 1.93 1.93 0 01.84-.06.37.37 0 00.42-.06 1.72 1.72 0 01.66-.36c0-.06.06-.06.12-.06s.18.12.18 0a.85.85 0 00.24-.12c.06.12.18.18.18.36.36-.3.72-.24 1.2-.24l-1 .6-.18-.36c-.06.06-.06.06-.06.12A.89.89 0 0173 33a1.14 1.14 0 01-.78-.06c-.06-.06-.18-.06-.18 0a2.74 2.74 0 01-2.28-.18 7.09 7.09 0 01-1.08-.66.87.87 0 01-.36-.54.7.7 0 00-.66-.42c0-.18-.3-.3-.06-.6-.54-.36-.12-.78-.24-1.2s0-1-.06-1.56a3.49 3.49 0 01.09-1.53zm6.72 5.52l.36-.24c.05.36-.19.24-.37.24zm.36-.24a.36.36 0 01.06-.24c.3-.12.54.12.78-.24-.06 0-.12-.06-.18-.06a.35.35 0 01.43-.12v.18h.54c-.06.36-.18.54-.54.6h-.12c-.38.35-.62.24-.98-.12zm.48.66h-.06V32h.1zm5 5.77v-.06h.24c0 .06 0 .12-.06.12H80a.06.06 0 00-.06-.02zm19.76 4.2c-.06.06-.06.24-.06.3a1.17 1.17 0 01-.49.72c-.36.12-.66.42-1.08.42a1.27 1.27 0 00-.6.24c-.12.06-.48-.06-.48.24-.3.06-.6.42-1 .24h-.36a5.13 5.13 0 01-1 0 .53.53 0 01-.48-.3c-.12-.24-.42-.24-.54-.54 0-.12-.24-.18-.42-.24a3.35 3.35 0 00.3-.48.85.85 0 01-.84.06c.06-.06.12-.12.18-.12l-.48-.7c-.06.06-.18.06-.24.12l-.06-.06c.06-.3-.24-.42-.24-.66a2.6 2.6 0 00-.06-.3c.18-.48.12-.72-.3-1a5.66 5.66 0 00.18-.54l.6.06-.36-.36c-.42-.3-.42-.48-.3-.9a1.46 1.46 0 000-.72c-.06-.54.06-1.14.06-1.74-.06-.31.12-.67.06-1a1.19 1.19 0 00-.12-.6.23.23 0 01.06-.36c-.06-.12-.18-.24-.12-.36a1.19 1.19 0 00-.06-.66c0-.3.12-.54 0-.78.36-.48-.18-1-.12-1.5a12.63 12.63 0 00.12-1.5V29a2.34 2.34 0 010-1.8 1.74 1.74 0 000-1 .76.76 0 01.12-.85 1.07 1.07 0 01-.24-1 7.33 7.33 0 00.06-1.62c0-.12.06-.24.06-.36a2.6 2.6 0 01.06-.3 3.94 3.94 0 01.06-1.68c.06-.24.06-.48.12-.78a1.73 1.73 0 00.06-.78.65.65 0 01-.06-.3.22.22 0 01-.06-.18c.06-.24.24-.54.18-.66a1.3 1.3 0 01-.06-.66c0-.12.18-.18.12-.36v-.42a.54.54 0 00.3-.06 3 3 0 01.78-.3s.12 0 .12-.06c.3-.36.6-.24.9-.06v.36a6.22 6.22 0 00.6-.24c.12.18.12.3.36.24a4.54 4.54 0 01.9-.06 3.88 3.88 0 011.44-.07 2 2 0 011.2 1l.51 1a.22.22 0 01.06.18c-.12.24.06.42.18.54a.44.44 0 010 .72l.37.36a1.41 1.41 0 00-.31.18c-.06.06-.06.3-.06.3.31.12.19.42.19.66.06.6 0 1.26 0 1.86-.13 0-.19 0-.25-.06-.06.24.06.3.31.3a1.58 1.58 0 00-.25.48 1.33 1.33 0 00.25.42c-.31.36 0 .72-.06 1.08-.07.18 0 .36-.13.54s0 .55.06.85a2.79 2.79 0 01-.54.18c.54.24.3.72.48 1.08s-.06.6-.36.84a.06.06 0 01-.06.06c.06.3.36.6.18 1 .37.06-.12.42.18.54l-.18.42c-.06.12-.18.18-.18.3s.12.3.12.42-.24.24-.12.42a1 1 0 01.12.6.31.31 0 01-.24.12 3 3 0 01.06 1.62 1.31 1.31 0 01.3.24.13.13 0 01-.12.12c0 .06-.06.12-.12.18-.24.24-.24.42.18.66a1 1 0 000 .91.63.63 0 01-.18 1l.24.42c-.18.12-.3.24-.48.36a2.44 2.44 0 01.48 1.14h-.3a3.44 3.44 0 00.24.42 1 1 0 01-.42-.06c.24.3.72.42.42.9.12 0 .18.06.3.06a.83.83 0 00-.24.18 4.47 4.47 0 01.31.72 1.71 1.71 0 00.24.72c.15.02.21.02.03.18zm-3.21-25.64c-.9 0-1.8.42-2.64.18a.83.83 0 00-.18.24c-.42-.3-.42-.3-1 .06 0 .18.06.36.06.48s0 .54-.24.72c0 0 0 .18.06.18.24.12.12.42.12.6a3.86 3.86 0 00-.3 1.44c0 .06-.06.12-.06.06a2.64 2.64 0 01.12.6 1.25 1.25 0 01-.06.66c0 .18-.12.48-.06.48.36.24-.12.24-.06.42s0 .18.06.3a1.34 1.34 0 010 .84.65.65 0 000 .66 2 2 0 01.06.84.92.92 0 00-.06.79 1.84 1.84 0 01-.06 1.38c-.06.12 0 .24 0 .36s.06.36 0 .48.18.36.06.48a.37.37 0 00.06.36c0 .42-.06.78-.06 1.2a1.84 1.84 0 00.12 1.26c.06.12.12.36 0 .48s-.12.3 0 .42c-.18.12-.06.36-.06.54s.12.24.12.3c-.24.36.06.48.18.66-.06.18-.18.42-.12.48.12.24 0 .54.12.78s0 .48.06.73-.12.24-.18.42c.42.3.18.6-.06 1 .12.06.18.06.24.12v2.4a5.58 5.58 0 01.6.3.83.83 0 01.24-.18v.24c.24 0 .48-.06.66-.06 0-.24.18-.36.42-.36s.66.06 1 .06.6-.36.48-.54-.18-.12-.12-.24a.27.27 0 000-.3 2.93 2.93 0 01-.06-1v-1.38a5 5 0 01.18-1.87l-.06-.24a3.82 3.82 0 00.12-.42c-.18-.06-.24-.24-.24-.48.06-.6.06-1.26.06-1.86v-1a15.72 15.72 0 00.12-1.59 6.84 6.84 0 01.12-2.7l-.06-.3c0-.12-.06-.24-.06-.36 0-.61 0-1.27.06-1.93a11.72 11.72 0 01.12-1.38V20.9a10.62 10.62 0 00.06-1.38c0-.6.06-1.26.12-1.86 0-.06 0-.18.06-.18a1.75 1.75 0 00-.06-.96zm-4.14-6.43v-.36a1.87 1.87 0 01.36-1.44c.24-.3.66-.42.84-.84h.3c.24-.36.3-.36.9-.3a2.58 2.58 0 001 0 2.89 2.89 0 01.72 0c.12 0 .18.12.24.18l.42.42a.85.85 0 01.36-.12 6.06 6.06 0 01.9.42c.18.12.54.06.54.42 0 .06.12.12.12.18.18.18.43.36.43.54a1.37 1.37 0 01-.19.84l-.12.12q.18.09.18.18v.54c.06.18.13.36-.18.48s-.3.36-.3.6c-.06.42-.48.48-.6.84a.06.06 0 01-.06.06c-.6.06-1.14.36-1.68.42a14.59 14.59 0 01-1.62 0c-.18-.06-.36-.18-.54-.24a7 7 0 01-1.56-1 .61.61 0 01-.24-.42 2.55 2.55 0 01-.22-1.52zm1.26 1.38c.06.12.24.18.36.3.12-.18.24 0 .36 0s.3-.06.42-.12.6-.06.84-.3a8.78 8.78 0 01.54-.78 2.37 2.37 0 00.3-.84 3.38 3.38 0 000-.78 2.66 2.66 0 00-.45-.66c-.24.12-.24-.18-.3-.3-.42.06-.78.06-1.14.12-.06.06-.18.06-.24.12a3.88 3.88 0 00-.48.54c-.3.3-.18.72-.24 1.08a3.7 3.7 0 00.03 1.62zM127 20.18a2 2 0 00-.42 1 11.36 11.36 0 01-.36 1.08 5.55 5.55 0 01-.3.6 3 3 0 01-.42-.48 1.11 1.11 0 00-.12.42l-.24-.36a1 1 0 01-1.2-.06c-.06-.12-.18-.3-.36-.18a.6.6 0 01-.18-.06c-.36-.42-1-.3-1.44-.42a2.56 2.56 0 00-1-.12c-.36.06-.78.18-1.26.24-.84 0-1.44.6-2.28.84a5 5 0 00-1.86 1.68c-.12.12-.06.3-.3.24l-.06.12a8.42 8.42 0 01-.72 1.69c.06 0 .12.06.18.12 0 .36-.24.36-.54.42a.85.85 0 01.48 1l-.18.6a3.35 3.35 0 00-.3.48 1.31 1.31 0 00-.18.3h.3a.46.46 0 00-.36.48c.48 0 .84 0 1.14.48l-.18.12c.12.06.18.12.3.18v.06c-.54.3.3.48-.06.78.48.06.78.24.78.66 0 .12.12.18.24.24.6.3 1.08.66 1.62 1s1.08.48 1.62.78a3.58 3.58 0 01.66.36 5.52 5.52 0 001.44.78c.06.06.18.06.18.12a1.86 1.86 0 001.51.48c.18.06.36.06.54.13.42.06.48.12.42.66l.12.18c-.06.06-.18.06-.36.18.24.06.42 0 .48.24s.06.42-.18.48c.3.48.6.84.9 1.32-.06 0-.12.12-.18.18l.42.18a7.85 7.85 0 01.3.9.75.75 0 00-.36.66 4.49 4.49 0 01-.24 1c-.12.36-.3.72-.42 1.14a2.75 2.75 0 01-.42.84c-.06.06-.12.24-.06.3.12.42-.18.66-.48.9l-.24-.18a5.55 5.55 0 00-.3.6c-.42.06-.72-.18-1-.24-.12.12-.25.18-.31.24a2.25 2.25 0 00-.6-.06.54.54 0 01-.3-.06c-.12-.12-.18-.18-.3-.06s-.06.06-.12.06l-.84-.18a1 1 0 01-.48-.6.83.83 0 01-.18.24c-.24-.24-.66-.3-.84-.6 0-.06-.12-.12-.18-.12-.3.12-.42-.24-.6-.3a1.47 1.47 0 00-.9-.3.42.42 0 01-.54-.42c-.06-.12-.12-.24-.3-.24h-.12c-.24-.48-.72-.54-1.08-.72a6.32 6.32 0 01-.66-.42 6.06 6.06 0 00-1-.78 3.85 3.85 0 01-.78-.6 5.08 5.08 0 00-.73-.48c-.24-.18-.54-.3-.54-.6a.7.7 0 00-.36-.36c-.3-.18-.48-.48-.78-.66s-.42-.54-.72-.78a9 9 0 01-.66-.78 5.55 5.55 0 00.3-.6c0-.06-.06-.19-.12-.19h-.18c-.06 0-.06.19-.12.25-.36-.12-.24-.37-.3-.55s.18-.24.06-.3a.76.76 0 00-.36-.06l.36-.36c-.36 0-.36-.06-.54-.24q.09 0 .18-.18a.56.56 0 01-.3-.6c.06-.18-.12-.36-.24-.6h-.12c-.06-.24-.18-.48-.24-.66s-.12-.36.12-.48c.06-.06.12-.18.24-.3-.18.06-.36.06-.54.12a1.23 1.23 0 00.06-1c0-.36-.18-.72-.18-1.08.06-.12.06-.3.12-.42s.06-.36.06-.6c.36-.18.36-.18.3-.54 0-.18-.12-.36.06-.48v-.18c-.24-.18 0-.48-.12-.72 0-.06.06-.12.12-.18A.64.64 0 00107 26a3 3 0 010-.73.37.37 0 00.12-.42 1.75 1.75 0 01.12-.54c.06-.3 0-.54.12-.72s.12-.54.18-.78a7.88 7.88 0 01.3-.9c.06-.06.06-.18.12-.36a.85.85 0 00.36-.12c.06-.12.06-.36.18-.42.18-.24-.18-.36 0-.54s.18-.06.24-.12l.18-.12c-.06-.36.24-.36.42-.54.06 0 .12-.06.18-.06.06-.18.06-.3.18-.42l.24-.18v-.12l-.12-.18q.09-.18.18-.18c.12-.06.24-.06.24-.12.18-.24.36-.18.54-.18a7.93 7.93 0 001-1v.3c.06 0 .12.12.12.12s.18-.06.18-.12c0-.36.24-.48.42-.6s.06-.12.12-.18c.36.36.48-.18.78-.18.18-.36.54-.42.9-.6s.42-.18.42-.36l.6-.18a1.2 1.2 0 01.66-.06c.24 0 .3-.19.54-.13.06 0 .06.06.18.19l.36-.25a.55.55 0 00.78 0c.12.06.24.19.36.19a1.65 1.65 0 00.36-.31c.12.12.18.24.36.31a1.56 1.56 0 00.36-.25.57.57 0 01.78-.06.8.8 0 00.54-.06 1.74 1.74 0 011-.18 1.41 1.41 0 00.43-.18l.18.24a.63.63 0 01.78 0 .54.54 0 00.42.18 1.64 1.64 0 011.2.49.51.51 0 00.3.18c.72.06.9.72 1.14 1.26a3.16 3.16 0 00.18.72c.06.12.24.36.36.6.06.06.18.12.18.24a1.28 1.28 0 00.42 1c.13.13.07.55-.19.61zm-2.16-2.82a1.53 1.53 0 01-.12-.42c0-.36-.42-1.08-.78-1.14a7 7 0 00-1.62-.24 7.48 7.48 0 01-.79.18c-.24.06-.48-.36-.84-.06-.12.06-.3 0-.36-.3-.3.48-.78.36-1.08.42-.12.06-.3-.06-.36 0a2 2 0 01-1.44.12 3.81 3.81 0 00-1.38.18 1.41 1.41 0 01-.48.12.5.5 0 00-.48.3 2.25 2.25 0 01-.6.06 10.62 10.62 0 00-2.4 1.44c-.18.24-.55.36-.79.54a.36.36 0 01-.24.06c-.24.36-.66.54-.9 1s-.42.42-.48.72c0 .12-.18.24-.3.24-.42.18-.48.24-.48.72 0 .12-.06.18-.12.36a.54.54 0 00-.18.6.18.18 0 010 .24A3.14 3.14 0 00108 24c-.06.24-.12.48-.36.54.06.42.24.84-.18 1.15l.36.3c-.06.06-.18.18-.24.18a.87.87 0 01.12.42l-.3.48c.18.18.06.3 0 .48a.64.64 0 00.06.84.66.66 0 010 .48.85.85 0 00-.06.54 1.25 1.25 0 01.06.66c.3.24.3.3.42.78-.3.24-.3.36 0 .6a.88.88 0 01.24.72c0 .24-.06.54.24.72a3.35 3.35 0 01.3.48v.06c.42.12.24.66.66.78a.3.3 0 01-.06.18.21.21 0 00.18.3c.3.06.36.18.36.42.06.48.42.72.66 1.09s.6.42.72.72c.42 0 .61.24.85.6a1.5 1.5 0 00.9.66c.12 0 .18.06.3.12.24.3.72.36 1 .72a.22.22 0 00.18.06c.3 0 .48.42.84.42.06 0 .06.06.12.12a.57.57 0 00.12.42c.12.06.3 0 .42 0a.53.53 0 00.42.06.34.34 0 01.42.06c.24.18.54.18.78.36s.42.42.78.42V41l1.08.18a1.43 1.43 0 00.54.18c.18.06.3.18.54.06s.3.12.48.18h.12a1 1 0 01.6.06c.31.12.67 0 .67-.3a4.26 4.26 0 01.3-1.74l.18-.72c-.24-.06-.12-.24-.06-.48.06-.06.18-.24.12-.24-.18-.24 0-.42.12-.66a.39.39 0 00-.06-.54 1.23 1.23 0 01-1 .06h-.25a7.26 7.26 0 00-1.14-.06c-.3-.36-.9 0-1.2-.3-.66.06-1-.36-1.5-.6-.12-.06-.24.24-.42-.06a.62.62 0 00-.42-.25c-.54 0-.72-.42-1.08-.6-.12-.12-.24-.3-.48-.24a.22.22 0 01-.18-.06 4.36 4.36 0 01-.54-.48 3.77 3.77 0 00-.72-.66 3.31 3.31 0 01-1.14-1.56 9.59 9.59 0 01-.66-2 3.17 3.17 0 01-.06-.78 10.17 10.17 0 00.06-1.32c-.12-.66.24-1.14.18-1.8 0-.06.12-.12.24-.24V26a1.31 1.31 0 00-.24-.3 1 1 0 01.18-.37c.12-.12.3-.12.3-.24s.24.06.36-.06a1 1 0 000-.42c-.12-.18.06-.3.06-.48-.12.06-.18.12-.24.12a.06.06 0 01-.06-.06c.06-.12.24-.18.24-.3-.06-.3.24-.36.36-.48l.36-.48a1.31 1.31 0 00-.18-.3 6.35 6.35 0 00.6-.72c.12.06.18.12.24.12a.87.87 0 00.12-.42.45.45 0 00-.12-.24.21.21 0 00.12-.06.19.19 0 00.12-.06 1.8 1.8 0 01.84-.66c.18-.06.3-.24.48-.36a1.13 1.13 0 00.72-.12c-.18-.24-.18-.42.06-.6l1 .18c.06-.06.12-.18.12-.12.24.06.36-.24.54 0 .18-.12.54-.06.6-.42.06.12.18.18.3.36a1.93 1.93 0 00.06-.48.65.65 0 01.48.12l.3.36.6-.6.3.3c.06 0 .06 0 .12-.06a.56.56 0 01.73 0 1.08 1.08 0 00.54.24 1.88 1.88 0 00.6-.3l.66.18a1.05 1.05 0 01.3-.24c0-.12-.06-.18-.12-.3.24-.24.36-.48.6-.72a1.5 1.5 0 01-.24-.42zm27.58 18.74c0 .54-.48.72-.66 1.32.06.24.24-.06.48 0a2.07 2.07 0 00-.3.66c0 .36-.24.42-.48.78v-.66a2 2 0 00-.36.18.66.66 0 00.48.72.75.75 0 01-.6.66.71.71 0 00.3.3l-.12.12c-.12.18-.36.3-.36.6l-.18.12a1.87 1.87 0 00-.72 1 1.28 1.28 0 01-.6.66l-.72.48a1.05 1.05 0 01-1 .3c-.06-.06-.18.06-.3.12.06.12.12.12.18.18a1.12 1.12 0 01-.42.36c-.06.06-.24.06-.24.06-.36-.18-.42-.12-.48.06s-.12.12-.12.18a.06.06 0 01-.06.06c-.12 0-.31-.18-.37.06a.45.45 0 01-.24.12 4.54 4.54 0 01-.9.06 2.12 2.12 0 01-.06-.36 1.26 1.26 0 01-1.56 0 2.79 2.79 0 00.54-.18c0-.24-.18-.24-.36-.18s-.18-.3-.24-.42a1.71 1.71 0 00-.48.42 2 2 0 00.36.36c-.3.06-.48.06-.72.12a4.43 4.43 0 00-.72.12 1.41 1.41 0 00-.12-.48c-.12.06-.36.18-.3-.06s-.12-.18-.12-.36c-.06.3-.18.54-.24.84a2.66 2.66 0 00-.66-.48.83.83 0 01.24-.18.55.55 0 00-.3-.18c-.12.18-.12.3-.24.42-.12-.06-.24-.24-.42-.36s-.48.12-.6 0a2 2 0 01-.78-.42c-.24-.06-.3-.24-.18-.42a.33.33 0 00.18-.3h-.06a5.66 5.66 0 00-.54.18c.06.12.3.18.06.36-.12-.18-.3-.3-.42-.48a3.65 3.65 0 00-1.2-1.32c-.37-.36-.79-.6-.91-1 0-.06-.06-.12-.12-.18-.54-.24-.78-.78-1.08-1.14 0-.06-.06-.12-.12-.24.12 0 .18-.12.24-.18.36-.18.36-.18.18-.54-.06-.06-.06-.12-.06-.24a.22.22 0 01-.06-.18c0-.06.06-.12.06-.24s.06-.12.18-.18a1.8 1.8 0 01-.24-.48 1.8 1.8 0 00.6-.24.76.76 0 010-1h-.24a5.16 5.16 0 00.06-1 3.48 3.48 0 011.82.6 5.63 5.63 0 00.9.36c.54.18 1.08.3 1.56.48a2.64 2.64 0 00.78.25 9.65 9.65 0 001.86.06 2.05 2.05 0 011.08.24c.6-.12 1.32 0 1.74-.55.06-.24-.42-.06-.3-.42.06-.12-.12-.3-.12-.48a2 2 0 00-.6-1c-.36-.36-.66-.78-1-1.08a10.22 10.22 0 01-1.32-.9 4.58 4.58 0 00-.66-.48 1.55 1.55 0 01-.66-.42c-.06-.06-.3-.06-.36-.18s-.3 0-.3-.24l-.18-.12a3.88 3.88 0 01-.54-.48c-.12-.06-.18-.18-.24-.24a3.44 3.44 0 00-.66-.66l-.36-.24c-.24 0 0-.3-.3-.24a.13.13 0 01-.12-.12 1.48 1.48 0 00-.55-.78 3.2 3.2 0 01-.6-1.74c-.06-.3-.12-.55-.42-.55s-.24-.18-.24-.36c0-.54 0-.54-.54-.66 0-.24-.06-.54.3-.72.18-.18-.06-.42-.18-.54a.47.47 0 00.24-.24c-.06 0-.06-.06-.06 0a.93.93 0 00-.48.12c-.06-.36.18-.24.3-.36a2.92 2.92 0 01-.66-.24v-.06a.34.34 0 01.12-.42c.06-.06.06-.12.12-.12s-.06-.06-.06-.12a.48.48 0 01-.18-.66 5.18 5.18 0 01.6-1h.36a.64.64 0 01-.3-.78l.48-1.08c.06-.36.42-.54.6-.9a.13.13 0 01.12-.12c.36-.12.61-.24.91-.36.06 0 .12 0 .12-.06.18-.18.48-.36.66-.54a2 2 0 00-.48-.18 1.31 1.31 0 00.3-.18c.12-.06.24.12.36.12.3 0 .12.24.24.3.24-.24.36-.78.9-.84v-.31a1.11 1.11 0 00-.3.25c0-.12-.18-.25-.12-.31a1.59 1.59 0 01.36-.3c.24-.12.24.18.3.24a.76.76 0 00.36-.06c.24.37-.36.24-.24.49a.22.22 0 01.18.06c0 .12 0 .36-.24.3h-.12c-.3.48-.9.6-1.32.9-.06.06-.18.12-.3.24l-.6.6c-.18-.3-.36.12-.61 0a.79.79 0 01.06.84c-.18.24-.24.6-.48.78s0 .54-.18.72-.06.48-.12.72-.18.6-.24.84a1 1 0 000 .84 1 1 0 01.06.42c.06.18.18.3.24.48v.48a1.09 1.09 0 00.36.84c.3.24.36.54.55.78s.24.73.54.91c.12.06.12.24.18.36a.4.4 0 00.42.36c.36-.06.6.24.84.48l.48.3c.06.12.12-.18.3 0a2 2 0 00.84.3 1.31 1.31 0 01.3.18 3.66 3.66 0 001 .72c.06.06.12.12.18.12.36-.12.54.18.84.36l.48.3a.8.8 0 01.54.36 1.43 1.43 0 00.66.36 4.77 4.77 0 011.08.84 1.62 1.62 0 00.48.42 1.45 1.45 0 01.66.78c.06.18.3.36.3.54s.13.36.19.6.18.18.24.3-.06-.06-.12 0h-.06a2.07 2.07 0 01.3.66 1.54 1.54 0 01-.3.72c-.31-.06-.25.24-.37.36s-.18.37-.3.43c-.42.18-.72.3-.84.66-.3-.18-.36.24-.66.18a3.42 3.42 0 01-.78-.06c-.6 0-1.2 0-1.86-.06-.3 0-.6-.06-.9-.06a7.38 7.38 0 01-2.76-.84 14.31 14.31 0 01-2.11-.85c-.42-.18-.66.06-1 .24.18.18.42.36.18.79-.06.06-.06.3-.06.42l.42 1.38a.06.06 0 01.06.06c.48.06.42.42.48.78.31-.12.43 0 .61.24a2.33 2.33 0 001 .9c0 .06-.06.12-.12.24.18.24.42.06.54 0a.37.37 0 01.42-.06 1.66 1.66 0 00.54.06c.12 0 .06.36.3.18a1.21 1.21 0 00.24.48 3.35 3.35 0 01.48-.3c.12 0 .24.24.42.36a1.31 1.31 0 01.18-.3c.18.24.3.54.6.42-.06-.06-.06-.12-.18-.18.24-.06.3 0 .48.12s.36.18.6-.18c.42.12.84.24 1.32.42 0 .06.12.06.12.06.24-.36.6-.12.84-.3s.42-.12.6.06.42 0 .6-.12.48-.12.54-.36a.85.85 0 01.49-.3 8.4 8.4 0 001-.6l1.38-.54a.46.46 0 01.3-.12.85.85 0 01-.12-.36s.06 0 .06-.12a5.24 5.24 0 001.2-1.38 5.08 5.08 0 00.54-1.45 4.25 4.25 0 00.18-2.1c-.06-.3-.18-.6-.24-.84v-.06c.06-.6-.48-.78-.72-1.2a2 2 0 01-.24-.84h-.3a1.8 1.8 0 01-.72-.78.65.65 0 00-.24-.3A4.86 4.86 0 00147 29c-.42-.12-.72-.54-1.09-.78a1.26 1.26 0 00-.36-.24c-.6-.3-1.2-.6-1.8-1a8.78 8.78 0 01-.78-.54c-.36-.18-.72-.24-.84-.66a.51.51 0 00-.36-.25c-.66-.18-1-.72-1.56-1.08l-.54-.36a1.44 1.44 0 01-.36-.48 3.79 3.79 0 01.24-.54c-.18 0-.3.06-.54.06l-.18-.78a1.82 1.82 0 00-.3-.42.89.89 0 01.36-.06c-.3-.66-.12-1.2.6-1.86a.06.06 0 00-.06-.06c-.06-.06-.12 0-.18-.06a1.19 1.19 0 01.66-.84l1-.36a1.33 1.33 0 01.84 0c.06.06.24-.06.3-.06.3-.06.54-.18.84.12a1.09 1.09 0 011 .06 4.4 4.4 0 001.2.3.86.86 0 01.66.18c.31.24.79 0 1-.3a11 11 0 01.78-1.44c.12-.18.36-.24.6-.36h.6a.83.83 0 01.72.6c.12.36.42.54.6.9a2.84 2.84 0 00.6.6.82.82 0 01.06 1 3.31 3.31 0 00-.54 1.38c0 .18-.18.3-.24.48s0 .42-.06.6c-.24.36-.48.84-.78 1.26l-1.86-.9c-.18-.36-.6-.24-.9-.24a4 4 0 01-.79-.24 2 2 0 00-.84-.12 12.27 12.27 0 00-2.1 0 6.55 6.55 0 00-.78 1c0 .18.12.36.06.48s-.12.24-.3.42a4 4 0 01.18.42c.18.06.48-.06.54.24.3-.06.36.3.66.3s.36.31.48.49.12.3.3.3.3.18.3.3c0 .3.24.36.48.3l.6-.18c.36.3.6 1 1.33.84l-.3.3c.36-.06.66 0 .78.3l.54-.18.18.36c.06 0 .06 0 .06.06.3.06.6 0 .78.3a.19.19 0 00.12.06.45.45 0 00.36.54c.3.12.48.12.72.24-.12.54-.12.54.48.48.06.18.42.24.24.54a.42.42 0 00.3.24c.3.06.3.42.42.6s.42.48.24.84l.12.06c.06.24.42.36.18.6v.12c.36.36.3.9.6 1.26a1.25 1.25 0 01.3 1.2c.15.27-.15.45-.15.76zm-12.85-21.45l.48.48H140a.42.42 0 01-.18.43l-.48.12a3.31 3.31 0 00-.24-.43c.17-.25.35-.42.47-.6zm8.43 2.53a2.08 2.08 0 01-.9-.66c-.18-.24-.6-.36-.84-.54s-.43-.06-.55-.36c0-.06-.12-.12-.18-.12l-1-.37H144a8.2 8.2 0 00-1.14-.12 3.55 3.55 0 00-1.2.24c-.24.06-.36-.06-.36-.24a1.34 1.34 0 01-1.26.12.9.9 0 01.84-.6c.06-.06.06-.06.12-.06a9.63 9.63 0 011.86 0c.12 0 .24-.06.36-.06a.59.59 0 01.78.36 1.49 1.49 0 01.48-.06 5.1 5.1 0 011.57.6c.6.31 1.08.73 1.56 1l.06.06a.77.77 0 01.33.81z" fill="#f60"/></g></svg>