<svg xmlns="http://www.w3.org/2000/svg" viewBox="0 0 77 45"><path fill-rule="evenodd" fill="#FFF" d="M74.489 13.5c-.199.151-.4.302-.5.552-.05.049-.15.049-.25.099-.099.05-.15.2-.199.3 0 .15-.101.25-.301.2-.05.349-.25.55-.55.849.101 0 .201-.048.25-.048-.049.149-.049.249-.1.35 0 .049-.1.049-.199.099 0-.25-.301-.099-.401-.25-.15-.151-.3-.25-.449-.35.049-.1.1-.199.049-.301 0-.099-.1-.149-.199-.199h-.301l.1-.1c-.049-.05-.149-.1-.2-.201-.05-.049-.15-.099-.25-.199.25-.2.45-.45.7-.6.351-.35.8-.65 1.25-.951l.15-.149c.15-.05.301-.2.4-.15.2 0 .35.15.45.299.05.101.15.151.3.201.1.049.2.1.301.2.149.099.149.25-.051.349zm-3 2.201c.301.15.5.45.651.7.049.1.15.15.25.25.199.15.4.4.4.75 0 .051 0 .2.049.2.201.15.15.45.35.6v.1c-.149.35.15.55.15.85 0 .051.1.1.1.2.05.05.05.15.05.25 0 .201-.099.5.2.7-.1.05-.2.05-.25.1-.1.25.05.4.101.6.049.15.1.25.149.4v.1c-.149.15-.149.15.05.25-.3.35-.55.701-.5 1.202l.25.249c-.15 0-.25 0-.449.049.149.05.25.1.299.152-.299.25-.4.549-.5.948-.1.2-.199.4-.299.5-.301.45-.551.951-.9 1.2-.451.401-.85.75-1.451.902-.649.298-1.399.348-2.1.649-.4-.05-.85-.101-1.299-.101-.25-.049-.5-.049-.75-.098l-.701-.152a9.121 9.121 0 00-1.25-.349c-.151-.05-.35-.101-.549-.2-.102-.05-.202-.151-.102-.35a2.439 2.439 0 00-.6-.101c-.099.55-.25 1.05-.15 1.601.051.199.202.399.301.55 0 .099.099.201.199.349.051-.048.102-.048.202-.099-.052.099-.1.15-.1.2a.57.57 0 00.25.25c.048.1.199.149.299.201.051.049.15.049.15.1.151.199.35.149.551.098.25-.049.449-.098.75-.198l.199.049c.2.25.45.2.6.1.201-.1.25.049.35.15.15.051.201-.199.351 0h.199c.301-.101.651.051.95.1h.15c.301-.049.5.049.75.1.35.15.85.25 1.25.3.301.1.6.1.9.25.35.149.801.251 1.1.45.451.3.85.65 1.1 1.05 0 .05.05.15.101.15.35.15.399.5.399.75.101.45.3.8.5 1.2-.1.05-.2.05-.25.1.05.15.05.3.15.4.15.151-.1.251-.1.35.151.1.1.2 0 .3h.2v.101c-.149.25-.2.5.05.699.051.051 0 .15 0 .25-.05.2-.05.4-.099.6 0 .051.049.051.049.1-.2 0-.2.25-.2.4l-.3.401c.201.099.201.25.15.399-.15.05-.25.05-.4.05v.25c.05.4-.149.701-.25 1-.049.051-.049.101-.1.101-.25.149-.449.45-.699.649-.151.102-.25.301-.35.45-.051.151-.201.251-.351.352.05.049.05.049.05.098h.301v.051c-.051.049-.101.049-.15.049-.301.052-.6.052-.85.301-.25.3-.65.25-1 .3h-.5c-.101.049-.15.099-.25.099-.301-.099-.551-.3-.9-.05-.25-.099-.451-.099-.75-.049-.051 0-.1.099-.151.099l-.099-.199c-.151 0-.35-.051-.451.149-.049.05-.149.05-.2.05-.3-.05-.55.051-.8-.05-.149-.049-.399.05-.549.05-.301-.349-.651-.25-1-.25h-.202c-.349-.149-.648-.3-1.1-.199-.048 0-.198.05-.349-.15 0-.101-.25-.101-.401-.101-.048.101-.15.201-.25.101-.048-.049-.1-.101-.1-.15-.05-.149-.15-.1-.198-.051-.052-.199-.15-.098-.25-.098h-.65c-.152 0-.25-.152-.452-.052 0 .052-.2-.049-.299-.1-.151-.15.049-.25.199-.4-.4.051-.798 0-1.048-.3-.151-.149-.202-.25-.302-.5-.349 0-.55-.249-.599-.7-.051-.049-.1-.198-.301-.149-.1 0-.15-.049-.25-.101l.15-.35c-.199-.15-.15-.5-.5-.549.051-.151.1-.25.1-.4a1.07 1.07 0 00-.25-.201s-.049-.049 0-.049c.15-.25.1-.599 0-.901-.049-.3.1-.499.1-.749 0-.2.15-.401.101-.551 0-.249.199-.45.25-.7 0-.25 0-.499.1-.749a9.51 9.51 0 01.9-1.551c.199-.199.449-.4.699-.601.1-.098.302-.149.25-.399 0 0 .052-.05.151-.05.099-.099.199-.199.349-.25.1-.15-.05-.25.052-.4.148-.2.048-.35-.302-.499 0-.101 0-.201-.05-.25 0-.1-.1-.201-.1-.25 0-.301-.15-.501-.298-.801-.202-.45-.102-.9.099-1.351.099-.2.25-.398.349-.649.35.199.6-.051.902-.101.098-.2-.052-.349-.202-.399a.653.653 0 01-.299-.199l-.151-.152c-.099-.098-.198-.2-.25-.348-.15-.302-.25-.602-.448-.902-.102-.15-.102-.25-.102-.4.05-.35.05-.35-.2-.55v-.199c.1-.301.052-.501-.099-.801-.051-.099 0-.3.049-.45.05-.049.102-.1 0-.2 0-.05-.049-.099 0-.15.15-.25 0-.548.102-.75.099-.299 0-.4-.251-.549.35-.201.199-.5.251-.801.048-.15.048-.299.198-.5.151-.1.151-.35.2-.55.102-.25.102-.5.15-.75 0-.149.15-.3.202-.45.099-.049.198-.1.198-.15.25-.45.652-.8 1-1.15.1-.049.25-.1.25-.299l.052-.052c.25-.099.448-.149.6-.398.098-.151.349-.201.599-.301.449-.2 1-.45 1.5-.7.051 0 .1-.049.151-.049.349.099.599 0 .9-.151.35-.151.699 0 1.049-.151.051 0 .051.052.1.052.4.049.4.049.55-.25.1.25.2.25.6 0 .051.099.1.198.15.25.301-.151.301-.151.551.049.1-.049.1-.25.299-.101.051.052.15-.099.25-.149.1.1.15.201.15.35.051.101.1-.149.25 0 .051.049.25.35.401.101.049 0 .15.049.199.099.1.3.301.349.551.45.4.149.799.501.949.899a.7.7 0 00.15.201zm-9.301 17.851c-.25-.149-.298-.149-.45.15.152 0 .25-.049.302-.049v.049c-.102.1-.25.1-.4.2v.25c.048.25 0 .551-.152.7-.098.201-.3.4-.4.601-.1.099-.1.25-.1.399l.152-.1c0 .1 0 .201-.052.25l-.25.1c.1.102.15.2.202.3.1.052.148.15.25.2-.102.101-.15.15-.302.201h.302c-.052.049-.052.099-.052.15.152.7.6 1.149 1.152 1.549.048.05.15.05.198.05.052 0 .151 0 .151.05.099.201.25.15.449.201.352 0 .702.15 1 .25.051 0 .151.049.202 0 .199-.051.4 0 .599.049h.25c.35 0 .7 0 .95-.049.25 0 .5-.051.75-.051.05 0 .201-.098.25-.049.201.049.4.049.601 0 .199 0 .35-.049.549-.101.4-.049.701-.149 1.051-.3.15-.099.299-.25.349-.399.1-.25.2-.301.35-.301.15 0 .301-.05.451-.05.1 0 .199-.149.199-.149-.15-.2.1-.401-.05-.6-.049-.051 0-.201 0-.25l.55-.151c-.25-.25-.25-.4-.099-.5.15-.1.099-.15.099-.3V35.703h.151c.099-.05.099-.201.15-.25.1-.15.1-.351.1-.551 0-.05-.151-.1-.201-.15-.149.05-.2.05-.35.15.201-.35.15-.6-.15-.7 0-.1.05-.2.05-.25-.199-.15-.4-.2-.65-.299l.1-.101-.25-.249c-.1-.051-.149-.101-.2-.15-.05-.051-.199-.1-.349-.2a.371.371 0 00-.201.1c-.299-.1-.5-.201-.7-.301-.349-.2-.699-.149-1.05-.25-.45-.05-.85.05-1.25-.3-.049-.05-.1-.05-.149-.05-.25-.05-.451-.1-.65-.1-.35-.05-.651-.05-.952-.05-.099 0-.25 0-.398-.05-.201-.05-.352 0-.5.2l-.202.15c0-.05-.048-.05-.048-.1l-.051-.05-.151.1s-.048 0-.048-.05h-.202c-.048.05-.099.1-.099.15-.051.4-.099.4-.551.45-.048.1-.148.251-.2.45h-.05c-.1.051.05.2 0 .3zm8.801-13.051c-.05-.1-.15-.2-.15-.299 0-.101.1-.201.15-.301-.25 0-.349-.099-.3-.3.101-.2-.049-.25-.049-.399a1.111 1.111 0 00-.25-.401c-.151-.25-.151-.6-.5-.6-.1 0-.201-.15-.25-.25-.1-.2-.25-.35-.451-.499-.149-.051-.25-.051-.35-.151-.25-.3-.549-.4-.9-.5-.399 0-.85-.15-1.2-.3a.684.684 0 01-.199-.15c-.15-.2-.301-.35-.551-.3-.15.05-.349.15-.5.1-.199-.1-.25.15-.4.15-.1-.05-.299-.05-.449-.05-.1.05-.25.05-.25.15-.202.25-.452.35-.702.4-.048 0-.048 0-.048.05l.048.2c-.048.2-.1.501-.199.55-.301.201-.449.35-.449.65h-.4c0 .15-.202.3.048.451l-.048.099c0 .301-.202.6-.1.95.048.1-.102.15-.25.25l.5.35c-.202.05-.352.05-.452.05-.1.301-.25.5.151.75.051.051.099.2.151.301v.549c0 .25.048.401.298.5.051.05.352.151.15.35 0 .051.1.102.151.15.051.05.151.05.151.101.048.301.349.399.5.649.099.1.298.25.548.25.051-.049.102.05.151.05.25.25.551.45.849.401.452-.05.801.099 1.202.2h.15c.199 0 .35-.101.549-.051.1.051.201.101.301.051.199-.101.349-.2.549-.051.05 0 .15 0 .15-.05.15-.25.4-.25.65-.3 0-.049.051-.15.1-.25.1-.099.201-.25.25-.25.35.051.35-.199.5-.348.051-.052.15-.052.201-.102-.051-.348.399-.399.399-.7-.049 0-.1-.05-.149-.05l.299-.3.35-.15c0-.25-.2-.45.05-.649v-.101c-.199-.2.051-.249.051-.398-.051-.102-.051-.202-.051-.251.051-.051.051-.101 0-.201zM46.641 35.852c-.1 0-.201 0-.301-.1-.099-.15-.299-.2-.449-.299-.15-.05-.25-.05-.301-.25 0-.05-.099-.101-.199-.15l-.301-.301c-.099-.1-.151-.2-.25-.35-.151-.15-.349-.3-.299-.55 0-.05 0-.1-.05-.1-.2-.3-.401-.65-.552-1l-.148-.5c0-.1 0-.15-.05-.2l-.151-.15c-.049-.05-.049-.1-.099-.1v-.05c.05-.099.05-.15.05-.2 0 0 0-.05-.05-.05 0 0-.052 0-.152.05v-.05s0 .05-.048.05c-.05-.2-.202-.2-.3-.1-.152.1-.302.15-.402.25-.65.55-1.25 1.2-1.948 1.601-.1.049-.202.199-.25.249-.152.15-.302.4-.452.4-.398.05-.549.35-.799.5-.201.151-.401.35-.651.501l-1 .549c-.099-.15-.15-.299-.3-.099-.049.05-.1.149-.2.099-.15-.15-.25-.049-.4 0-.25.05-.449.151-.699.151-.301-.051-.551-.051-.75.199-.1-.05-.151-.1-.201-.1-.25.05-.45.1-.7.1l-.199.05c-.15-.199-.4-.15-.601-.15-.649-.049-1.2-.349-1.799-.5-.051-.049-.151-.099-.151-.15-.199-.3-.55-.35-.8-.499 0-.101 0-.151.05-.251.015-.024-.099-.45-.099-.45-.151-.15-.301-.249-.5-.4l-.1-.449-.051-.051c0-.049 0-.1-.05-.15-.25-.2-.149-.4-.049-.65l-.301-.35c.301 0 .051-.3.201-.4.199-.1.299-.25.199-.499-.15.1-.15.399-.349.298-.051-.198-.1-.298-.1-.449.1 0 .1-.301.299-.099.051-.1.1-.251.1-.301-.25-.1-.149-.35-.2-.5.2-.05.401.05.5-.249-.15-.051-.349-.101-.5-.152l.45-.949c-.049-.051-.149-.1-.25-.2.101 0 .15-.051.201-.051 0-.149 0-.3.049-.399 0-.1.05-.2.15-.249l.201-.152c0-.098-.051-.149-.051-.2V27.153c.051-.051.151-.152.301-.251 0 0 .049 0 .1.051.049.048.15.149.25.048.099-.099.049-.2.049-.25 0-.148.05-.399.101-.45.35-.05.25-.3.35-.499.349-.1.549-.301.5-.649 0-.2.049-.302.25-.352.049 0 .049-.099.099-.149-.199-.051-.3-.051-.449-.051v-.1c.25.05.449.05.699.1l-.15-.35c.201 0 .35 0 .35-.25 0-.049.05-.099.101-.199l.199.199c0-.199.051-.348.051-.549.399 0 .799-.049.75-.601.049.102.1.15.149.2.25-.098.451-.2.601-.45.049-.05.149-.1.199-.1.7-.15 1.25-.65 1.901-.9.349.101.699.101 1-.149.049-.051.15-.051.199-.051.201 0 .4-.05.6-.05.201.05.352-.1.55-.149l.052-.201c.099 0 .148-.048.148 0 .55.15 1.05 0 1.5-.35.05-.05.15-.05.25-.05.15 0 .352 0 .5-.05.202-.05.452-.099.602-.2.148-.1.25-.3.298-.45 0-.15.1-.4-.098-.55-.052-.05-.052-.149-.052-.2.15-.198.102-.3-.048-.449-.052 0-.1-.101-.052-.101.1-.25-.098-.4-.15-.6-.048-.1-.1-.199-.1-.3-.1-.55-.448-1-.85-1.4-.4-.4-.8-.7-1.448-.65-.052 0-.102-.05-.151-.05-.551-.101-1.1-.2-1.701-.25-.2 0-.35.05-.549.101-.051 0-.1.1-.1.199-.15-.099-.201-.199-.301-.25-.4.151-.849.051-1.05.45-.1 0-.2-.049-.299-.049 0 .049-.051.099-.1.149-.101.15-.25.3-.451.1l-.199.05c-.25 0-.201.2-.25.3-.451.1-.85-.05-1.051.4 0 .05-.049.05-.1.1-.25.1-.449.25-.699.4l-.451-.95c.15-.25.201-.45.051-.7-.051-.199-.201-.5.049-.7-.049-.1-.1-.201-.2-.3l.301-.2c.299-.15.549-.399.85-.55.299-.2.599-.401.9-.651.049 0 .149-.099.199-.099.2.05.301-.049.401-.25l.349.15c.151-.1.25-.2.35-.25.15-.051.301-.1.451-.1.199 0 .399.049.5-.25l.21-.018.39.218c.099-.1.15-.2.199-.3.051.1.1.149.1.2.101-.1.201-.2.3-.2.151.05.25.149.35.25l.301-.3.15.1c.1.2.299.15.399.05.15-.201.3-.05.5-.05.3.05.3.05.451.25a.843.843 0 01.199-.25c0 .05.051.05.051.05 0 .049-.051.1-.051.15.051.05.1.05.202.1.148.1.35.2.548.2.25.05.5.05.75-.05 0 .149 0 .251.052.399.298-.049.298-.049.448.151.1.051.152.099.25.099.35.151.702.351.85.601.202.35.5.6.75.899l-.148.25c.2.151.35.25.45.451.099.15.198.3.25.5.05.15-.052.35 0 .4.198.2.099.55.349.7.051 0 .25.151.099.35-.048.05 0 .151 0 .25.052.15.052.25.102.4v.15c.148.15.148.4.35.502.049.048.049.198.049.348.051.05-.049.151-.049.2.049.25.1.5.1.75-.051.201.25.4 0 .65l.099.1c.051.05.1.15.1.201-.1.399.15.799.051 1.2 0 .05 0 .099.05.099.149.201.1.452.049.652 0 .098-.049.25-.049.348l.299 1.601c.051.1.051.25.1.35.051.201.051.45.15.65-.299.05-.299.05-.15.3.051.099.15.3.101.399-.15.45.049.801.25 1.151l-.15.099c.049.25-.1.552.15.751 0 .05.049.151 0 .151-.101.2 0 .35.1.499.049.1.15.25.1.299-.151.151.05.301.05.451-.05.15.1.35.149.501v.25c.101.249-.1.599.15.849h.301c-.15.1-.201.15-.301.25.151.4.25.8.401 1.2.05.2.099.401.15.55l.449 1.05c.1.25 0 .351-.15.451-.399.249-.85.4-1.299.549zm-4.15-8.3c.05-.149-.052-.251-.052-.399 0-.051-.048-.102-.048-.152-.202-.149-.202-.299-.15-.5.05-.149 0-.349 0-.549l-.052-.5c.052-.151.15-.35-.048-.451-.052 0-.052-.099 0-.099.15-.101.048-.25.048-.401 0-.099-.048-.25-.048-.4.1-.299-.052-.5-.202-.649h-.5c-.048.1-.1.25-.148.45-.102 0-.202.05-.302.099-.198.05-.4.151-.55.1-.25 0-.5.051-.6.2-.048.101-.048.2-.048.2-.102.05-.151.05-.25.05-.102 0-.202-.099-.25-.05-.352.151-.352.151-.702.151-.1 0-.25 0-.299.199-.051.15-.201.102-.301 0-.15.251-.349.351-.599.302-.051.25-.1.399-.151.5-.349.149-.599.299-.9.398 0 .301-.199.051-.35.151-.05.349-.199.549-.599.7-.301.051-.5.349-.5.7-.051.35-.051.35-.35.399-.301.05-.351.101-.351.401.05.201.15.4.101.551-.101.249.149.149.1.298-.201.201-.451.351-.701.551v.3c.25.1.4.35.701.25 0-.05.099.05.15.1-.301 0-.601.049-.851 0-.25 0-.35.151-.45.35-.05.1-.05.251.1.351.051.049.1.15.1.199-.149.25.101.2.201.301-.1.049-.151.099-.25.099.5.5.5.5.849.35-.05.1-.05.2-.099.3.25.05.449.1.65.1.1 0 .299 0 .35-.05.25-.25.5-.1.75-.1.299-.05.699.15.9-.2.149.05.199.1.299.1.25-.05.451-.3.701-.3.049-.25.35-.25.449-.45.1-.199.2-.4.5-.349l.051-.051c.049-.25.149-.25.35-.149.151.1.25.048.349-.101.25-.351.6-.55 1-.65 0-.15.052-.25.052-.3.148-.151.298-.2.398-.3.102.051.15.051.202.1 0-.1-.052-.201-.1-.299.148-.051.298-.051.398-.152l.702-.599c.1-.1.198-.1.35-.2 0-.05-.052-.201 0-.3.198-.2 0-.401 0-.6zM24.09 2.201c0 .699.052 1.449-.048 2.149-.05.201-.202.25-.3.351-.201-.201-.451.099-.701-.051-.049-.05-.201 0-.299 0-.152 0-.251 0-.402.051-.099 0-.198 0-.25.049-.198.201-.448.1-.65.05-.299-.05-.6-.15-.899-.099-.15.049-.25.049-.351 0-.199-.101-.449 0-.6.049-.349.15-.599.1-.799-.1-.15.051-.25.15-.351.15-.299-.05-.549.05-.85-.05-.099-.049-.199-.049-.299.05-.05.05-.201.05-.3.05h-.301c-.299.05-.549 0-.799-.05-.301 0-.701-.15-1 .2.15.4.15.55-.051.951-.049.149-.099.35-.099.549-.1.651-.2 1.3-.25 1.951-.051.25-.051.5-.1.7-.1.9-.201 1.75-.15 2.649 0 .101.05.2 0 .251-.151.25-.1.5.099.65-.049.1-.15.15-.15.2.201.25 0 .5.051.75 0 .2.05.401.05.599-.15.651-.05 1.302-.101 1.951-.049.3.051.6 0 .901-.149.549-.1 1.049-.1 1.6 0 .349.051.649.051 1-.051.5-.15 1-.15 1.5.05.299.05.649 0 1a.905.905 0 00-.1.349c-.051.402-.051.75-.1 1.151.2.2.049.399 0 .599-.101.25-.15.55.1.7l-.15.402c-.1.299-.1.299.25.348-.151.101-.25.101-.35.151 0 .25-.051.45-.051.701 0 .198.1.398.051.599 0 .299.049.549.35.65-.1 0-.2 0-.301.05 0 .05.051.149 0 .2-.149.25-.1.55-.149.851 0 .2-.05.499.049.649.151.25.1.399.1.6 0 .35-.199.7.101 1.049v.052c-.15.049-.101.149-.101.249.051.4.201.75.25 1.1 0 .25-.1.501-.049.751l-1-.151c-.35-.05-.701-.05-1.051-.05-.099 0-.25.101-.349.101-.301.1-.651.199-1 0 .349-.201.349-.451.15-.7.25-.351.049-.701-.051-1.051-.049-.301-.349-.301-.549-.35.149-.149.299-.3.399-.451-.149-.199.051-.5-.199-.649.099-.2.199-.351.25-.5 0-.15-.2-.299-.051-.5-.399-.101-.449-.45-.5-.801h.451s0-.05.049-.099c-.1-.05-.149-.1-.199-.1.05-.2.099-.3.05-.4 0-.1-.15-.15-.201-.201.051-.25.051-.5.301-.7 0 0-.051-.099-.051-.149a5.119 5.119 0 01-.25-.8h.301c.049-.05.1-.15.049-.199a.834.834 0 00-.199-.25c-.051-.102-.151-.201-.2-.25v-.051c.1-.101.2-.2.2-.351v-.15l-.151-.55c-.049-.099-.099-.149-.15-.2.201-.149.25-.299.101-.5-.05-.05 0-.149-.05-.198-.051-.102 0-.251 0-.402 0-.45 0-.299.25-.7.15-.2.15-.4 0-.55-.2-.25-.1-.299.05-.45.049-.05.149-.098.2-.2-.151-.2-.5-.1-.5-.399 0-.051.05-.101.099-.101.301-.25.401-.549.201-.85-.15-.35-.15-.65-.05-1 .05-.25.099-.55-.2-.699v-.101l.2.05c0-.299 0-.55.05-.8.1-.45.1-.55-.3-.75.099-.15.199-.25.199-.35-.049-.399.051-.8.101-1.2.049-.1.049-.3-.05-.35-.1-.2-.1-.301 0-.45.3-.601.199-1.2.099-1.851l.151-.149v-.5c0-.25-.2-.551.099-.8v-.1c0-.951-.25-1.851-.4-2.8-.1-.5-.149-1.051 0-1.6.051-.251.051-.551.051-.801V4.8c-.1 0-.25-.05-.401-.05-.299 0-.599 0-.901-.049-.398-.101-.798 0-1.198.149-.1.05-.2.05-.35.05-.1-.05-.202-.05-.35-.1-.4-.099-.852-.099-1.25-.05-.602 0-1.151-.15-1.702.1h-.1c-.25-.1-.699-.1-.949-.05-.65.1-1.301.2-1.951.35-.1-.35-.199-.599-.25-.9C.79 3.702.79 3.1.739 2.551c0-.25.051-.5-.05-.751a.435.435 0 010-.35c0-.15.101-.35.201-.5L.939.7c.5.05 1.05.1 1.55.1.45 0 .901 0 1.35.05.15 0 .301.1.452-.05h.198l.95.2c.15 0 .3-.05.452-.05.198 0 .348-.05.5 0 .25.05.448.05.65-.15h.1l.1.15c.25 0 .348 0 .5.05.348.05.65.05.948-.1.151-.05.202-.05.25.05.052 0 .151.05.202 0 .25-.05.5.1.699-.1.201.15.35-.1.551-.1.35.1.699-.05 1.049.1.15.1.351.05.5-.05.101-.05.201-.1.301-.05.099.05.25.2.349.15.151-.1.25 0 .35.05.301-.3.4-.35.801-.15.199.1.449.25.65.15.199-.05.4 0 .6.05h.05c.25-.2.35 0 .549.15.151-.2.301-.2.551-.1.1.1.299.05.449.1.151 0 .25-.05.401-.1.099 0 .199-.15.3 0 0 0 .149 0 .149-.05.051-.25.301-.2.4-.1.151.1.301.1.401.1.3-.1.55.1.8-.1.35.05.549-.1.75-.4.1.35.35.2.549.3.25.1.401-.05.551-.15.199.05.4.15.6.2.099.05.25.1.349.05.1-.05.201-.15.302-.25 0-.05.048-.099.048-.099 0 .199.352.149.301.349.151.1.349.15.501.25.15-.15.299-.25.448-.35.15 0 .302 0 .452.05.15.05.298.15.5.25-.101.3-.202.6-.25.9-.052.051-.052.15-.052.201z"/><path fill-rule="evenodd" fill="#F60" d="M27.541 4.701a.373.373 0 01-.1.199c-.15.15-.25.301-.049.5.049 0 .049.1 0 .15-.15.1-.051.3-.101.401a.707.707 0 000 .45c.05.25 0 .449-.149.649-.301.55-.301.601.1 1.001-.1.299-.201.6-.1.9L26.941 9c-.4-.2-.85-.299-1.299-.349 0 0-.1 0-.1-.051-.15-.299-.4-.199-.65-.199h-.15v-.2l-.5.149c-.052-.1-.052-.199-.052-.299-.198.299-.5.15-.75.299.052-.049.052-.149.101-.199-.101 0-.201-.051-.25 0-.149.15-.5-.151-.601.3-.25-.3-.649.049-.85-.351-.5.101-1.048.201-1.599 0-.051.051-.25.051-.301.201-.199.199-.25 0-.399-.1-.25.2-.451.399-.8.25-.151-.101-.35 0-.5 0-.2-.05-.301.2-.5 0-.1.25-.401 0-.551.149 0 .051-.149 0-.25-.049-.299-.051-.399 0-.449.299 0 .2-.051.351-.301.45-.149.051-.199 0-.35-.05-.049.05-.049.151-.049.202.1.048.2.098.299.098.401.051.401.051.551.401.15-.05.299-.151.449-.201l-.25-.399c.051-.15.151-.301.25-.501.201 0 .35.15.551.301-.051.2-.051.399-.051.55 0 .4-.099.799-.349 1.099-.051.051 0 .151 0 .25.05.101.099.2.099.301.051.101.1.25.051.3-.301.2-.1.5-.201.8-.049 0-.149.049-.25.1l.25.15c-.049.25-.149.45-.299.7.1-.05.15-.05.299-.1 0 .1.051.199.051.199-.2.151.05.5-.35.5.15.301.299.5 0 .75-.15.101.1.151.15.301-.101.15-.15.35-.25.55.1.05.2.1.299.201l-.299.149v.15c.049.25 0 .55.2.8.05.05 0 .201-.051.35-.049.1-.1.201-.199.301l.15.149c-.051.25-.051.4-.1.6h.049v.05c-.25-.1-.299.1-.4.25.15 0 .25-.05.351-.05.049.05.049.05.049.1.051.2.1.4-.199.451l.15.149c-.05.1-.101.25-.15.35l.299.3c-.1.15-.149.2-.149.7-.101.05-.201.101-.4.15l.4.15c-.05.052-.101.15-.15.25.049.051.1.051.199.1-.25.451-.199.951-.25 1.5 0 .3.1.55.1.85 0 .15-.1.301-.149.5.049.051.25.15.25.25 0 .051 0 .101-.05.15-.051.1-.2.201-.35.25.049.05.1.05.1.1.05 0 .099 0 .099.051 0 .2-.049.399.1.599 0 .051-.049.101-.049.201s-.051.2 0 .299c.049.101.049.201-.1.3v.25c.149.351.25.651.149 1.051l.051.2c.099.249 0 .499-.151.699-.15.25-.199.25.051.452.049.048.1.048.199.1l-.15.6v.149l.15.35c-.25-.05-.299.15-.4.25.101.301.601.301.451.7.15.25.1.551-.051.75l.451 1.25c0 .051-.05.15-.05.25-.051.15-.151.301.099.35.051 0 .1.1.1.1-.049.3.201.55.101.85 0 .051.049.1.049.1.25.35.201.75.25 1.201-.25-.051-.449-.101-.599-.051-.301.051-.6-.1-.95.1-.25.15-.601.15-.951.202h-.549c-.15.048-.3-.052-.451.098-.15.1-.349.05-.549.05-.05 0-.101 0-.15-.05a1.287 1.287 0 00-.951.05l-.549.15c-.25.1-.451-.1-.6-.298l-.75-.901c-.15-.201-.201-.35-.351-.551-.149-.25-.299-.55-.549-.7-.202-.2-.202-.45-.35-.6-.102-.149-.05-.299.049-.399.201-.151.201-.151 0-.301-.151-.149-.099-.4.051-.7.1 0 .199.05.35.1 0-.05.05-.1.099-.2l-.651-.15c0-.05 0-.1-.048-.149l.199-.151c-.099-.15-.25-.349-.199-.6.048-.199 0-.45.35-.45a.654.654 0 00-.302-.25l.151-.549c-.151-.152-.449-.201-.199-.5 0-.051-.051-.152-.1-.251.1 0 .148-.05.299-.05-.099-.101-.199-.149-.25-.2 0-.1.201-.2 0-.351-.199-.149-.049-.349-.049-.499 0-.1.1-.2.2-.301h-.302c.052-.149.052-.2.102-.299 0-.1.049-.151.049-.249 0-.152-.151-.35-.099-.501.099-.151.15-.3 0-.451-.052-.049 0-.099 0-.149v-.551c.099-.05.198-.099.3-.199-.05-.051-.05-.149-.102-.251h-.25c0-.35-.148-.699.151-1.049a1.932 1.932 0 00-.299-.25c.2-.201.25-.399.1-.599.199-.202.298-.402.199-.702-.049-.2-.25-.5.201-.6a3.225 3.225 0 01-.201-.75c.301-.199.099-.449.051-.75 0-.1-.051-.199 0-.349 0-.35-.051-.7-.1-1.001-.05-.5-.102-.95.1-1.4.048-.1.1-.25 0-.4-.051-.05 0-.2 0-.3 0-.25-.051-.45-.1-.7-.05-.199-.102-.35.049-.501.051-.048.051-.199 0-.299 0-.05-.099-.201-.099-.25.198-.4 0-.899.15-1.35a.388.388 0 00.1-.25c.15-.45.15-.95.15-1.4 0-.55.15-1.1.15-1.6s.049-1-.15-1.501c-.25-.05-.5-.149-.801-.05-.151 0-.349-.099-.599-.2l-.2.15c-.25-.049-.5-.099-.8-.15-.1.051-.2.15-.35.25a.685.685 0 00-.152-.199c-.3.05-.55.099-.9-.051-.1-.049-.25.051-.35.051-.25 0-.448.3-.65 0-.449.3-.9.3-1.4.099-.049-.049-.1-.099-.149-.199-.101-.1-.101-.201-.301-.201-.05 0-.099-.049-.099-.049-.201-.201-.401-.4-.551-.6a.992.992 0 00-.6-.401c-.099 0-.15-.05-.25-.099C.89 6.701.54 6.051.29 5.3c-.051-.2-.101-.45.049-.65V4.5a.565.565 0 01-.15-.549c.05 0 .05-.051.05-.051-.349-.25-.15-.55-.15-.85C.04 2.8.04 2.5.04 2.201L.089 1.7C.04 1.3.14.95.339.6H.54c.149.05.25.2.35.35-.1.15-.201.35-.201.5a.435.435 0 000 .35c.101.251.05.501.05.751.051.549.051 1.151.1 1.699.051.301.15.55.25.9C1.739 5 2.39 4.9 3.04 4.8c.25-.05.699-.05.949.05h.1c.551-.25 1.1-.1 1.702-.1.398-.049.85-.049 1.25.05.148.05.25.05.35.1.15 0 .25 0 .35-.05.4-.149.8-.25 1.198-.149.302.049.602.049.901.049.151 0 .301.05.401.05v.45c0 .25 0 .55-.051.801-.149.549-.1 1.1 0 1.6.15.949.4 1.849.4 2.8v.1c-.299.249-.099.55-.099.8v.5L10.34 12c.1.651.201 1.25-.099 1.851-.1.149-.1.25 0 .45.099.05.099.25.05.35-.05.4-.15.801-.101 1.2 0 .1-.1.2-.199.35.4.2.4.3.3.75-.05.25-.05.501-.05.8l-.2-.05v.101c.299.149.25.449.2.699-.1.35-.1.65.05 1 .2.301.1.6-.201.85-.049 0-.099.05-.099.101 0 .299.349.199.5.399-.051.102-.151.15-.2.2-.15.151-.25.2-.05.45.15.15.15.35 0 .55-.25.401-.25.25-.25.7 0 .151-.052.3 0 .402.05.049 0 .148.05.198.149.201.1.351-.102.5a.666.666 0 01.151.2l.151.55v.15c0 .151-.1.25-.2.351v.051c.049.049.149.148.2.25.099.098.15.149.199.25.051.049 0 .149-.049.199h-.301c.051.25.151.55.25.8 0 .05.051.149.051.149-.25.2-.25.45-.301.7.051.051.201.101.201.201.049.1 0 .2-.05.4.05 0 .099.05.199.1-.049.049-.049.099-.049.099h-.452c.052.351.102.7.501.801-.149.201.051.35.051.5-.051.149-.151.3-.25.5.25.149.05.45.199.649-.1.151-.25.302-.399.451.2.049.5.049.549.35.1.35.301.7.051 1.051.199.249.199.499-.15.7.349.199.699.1 1 0 .099 0 .25-.101.349-.101.35 0 .701 0 1.051.05l1 .151c-.051-.25.049-.501.049-.751-.049-.35-.199-.7-.25-1.1 0-.1-.049-.2.101-.249v-.052c-.3-.349-.101-.699-.101-1.049 0-.201.051-.35-.1-.6-.099-.15-.049-.449-.049-.649.049-.301 0-.601.149-.851.051-.051 0-.15 0-.2.101-.05.201-.05.301-.05-.301-.101-.35-.351-.35-.65.049-.201-.051-.401-.051-.599 0-.251.051-.451.051-.701.1-.05.199-.05.35-.151-.35-.049-.35-.049-.25-.348l.15-.402c-.25-.15-.201-.45-.1-.7.049-.2.2-.399 0-.599.049-.401.049-.749.1-1.151 0-.099.049-.25.1-.349.05-.351.05-.701 0-1 0-.5.099-1 .15-1.5 0-.351-.051-.651-.051-1 0-.551-.049-1.051.1-1.6.051-.301-.049-.601 0-.901.051-.649-.049-1.3.101-1.951 0-.198-.05-.399-.05-.599-.051-.25.15-.5-.051-.75 0-.05.101-.1.15-.2-.199-.15-.25-.4-.099-.65.05-.051 0-.15 0-.251-.051-.899.05-1.749.15-2.649.049-.2.049-.45.1-.7.05-.651.15-1.3.25-1.951 0-.199.05-.4.099-.549.201-.401.201-.551.051-.951.299-.35.699-.2 1-.2.25.05.5.1.799.05h.301c.099 0 .25 0 .3-.05.1-.099.2-.099.299-.05.301.1.551 0 .85.05.101 0 .201-.099.351-.15.2.2.45.25.799.1.151-.049.401-.15.6-.049.101.049.201.049.351 0 .299-.051.601.049.899.099.202.05.452.151.65-.05.052-.049.151-.049.25-.049.151-.051.25-.051.401-.051.099 0 .251-.05.3 0 .25.15.5-.15.701.051.098-.101.25-.15.3-.351.1-.7.048-1.45.048-2.149 0-.051 0-.15.052-.201.048-.3.149-.6.25-.9-.202-.1-.35-.2-.5-.25C23.742.8 23.59.8 23.44.8c-.149.1-.298.2-.448.35-.152-.1-.35-.15-.501-.25.051-.2-.301-.15-.301-.349 0 0-.048.049-.048.099-.101.1-.202.2-.302.25-.099.05-.25 0-.349-.05-.2-.05-.401-.15-.6-.2-.15.1-.301.25-.551.15-.199-.1-.449.05-.549-.3-.201.3-.4.45-.75.4-.25.2-.5 0-.8.1-.1 0-.25 0-.401-.1-.099-.1-.349-.15-.4.1 0 .05-.149.05-.149.05-.101-.15-.201 0-.3 0-.151.05-.25.1-.401.1-.15-.05-.349 0-.449-.1-.25-.1-.4-.1-.551.1-.199-.15-.299-.35-.549-.15h-.05c-.2-.05-.401-.1-.6-.05-.201.1-.451-.05-.65-.15-.401-.2-.5-.15-.801.15-.1-.05-.199-.15-.35-.05-.099.05-.25-.1-.349-.15-.1-.05-.2 0-.301.05-.149.1-.35.15-.5.05-.35-.15-.699 0-1.049-.1-.201 0-.35.25-.551.1-.199.2-.449.05-.699.1-.051.05-.15 0-.202 0-.048-.1-.099-.1-.25-.05-.298.15-.6.15-.948.1-.152-.05-.25-.05-.5-.05l-.1-.15h-.1c-.202.2-.4.2-.65.15-.152-.05-.302 0-.5 0-.152 0-.302.05-.452.05l-.95-.2h-.198c-.151.15-.302.05-.452.05C3.39.8 2.939.8 2.489.8c-.5 0-1.05-.05-1.55-.1C.79.7.689.6.79.4h1.5c.5-.199 1.049 0 1.549 0s1-.05 1.5 0c.452 0 .9-.15 1.35 0 .05.05.15.05.202 0 .15-.099.298 0 .5 0 .25 0 .5-.05.75-.05L8.59.201c.051.149.051.249.099.449.151-.099.25-.2.401-.349.451.299.849.199 1.25 0 .25-.1.551-.1.85-.151.15-.05.301-.05.451-.099.049 0 .15 0 .25.049.15.05.35.15.5 0 .299.25.5-.1.799-.1.25.051.551.051.851.051.049.15.2.349-.05.599.15-.05.25-.05.4-.05 0-.15 0-.299.049-.5.351.05.801-.049 1.15.201.1.049.201.049.301.049.35 0 .6.05.85.201.05-.101.099-.25.199-.401.4 0 .801 0 1.15.051.401.049.75.149 1.1.249.351-.3.75-.499 1.25-.249 0 0 .051.049.101.049.75-.199 1.5-.049 2.25 0h.399c.101-.049.25-.1.351.051.049.049.149.049.251.049h.799c.301 0 .5.15.651.35l.25.4c.599.65 1.199 1.3 1.699 2.05.201.35.451.65.701 1-.25.151-.4.301-.351.551zM51.34 34.202c-.299.2-.299.3.201.7-.201.35-.4.65-.55 1-.1.2-.2.2-.401.1-.049.15-.049.35-.099.4-.301.15-.5.45-.85.5-.051 0-.1-.15-.15 0-.051.251-.25.35-.45.45l-.65.15c-.051 0-.15-.049-.201-.049-.049-.05-.1-.101-.149-.05-.25.099-.5-.051-.701-.151-.299-.25-.65-.35-1-.35-.299-.05-.449-.15-.65-.35l-.949-1.2c-.302-.5-.6-1-.85-1.5l-.35-.6c-.102.25-.15.45-.202.6l-.448 1.101c-.1.1-.302.149-.452-.051.102.2-.048.301-.148.35-.102.1-.202.201-.302.25-.098.05-.198 0-.25.05-.25.35-.698.401-1.098.6-.1.052-.202.2-.35.302l.148.098c-.148.151-.25.251-.549.2-.099-.049-.25.051-.401.1-.05 0-.15 0-.15.05-.15.2-.4-.05-.549.1-.201.1-.4.1-.601.201-.049 0-.1 0-.149-.05-.301-.2-.601-.051-.9.05-.1 0-.201-.05-.35-.101-.351.201-.801.301-1.301.051-.15.099-.349.349-.599.099h-.051c-.199.051-.35 0-.5-.099-.1-.1-.299-.1-.5-.051-.199.051-.5-.1-.75-.2-.199-.099-.4-.3-.65-.35-.1 0-.1-.15-.2-.2-.15-.148-.199-.35-.5-.3-.15 0-.349-.05-.55 0-.149 0-.25-.2-.399-.3-.15-.049-.25-.25-.4-.4 0-.049.199-.149 0-.199 0-.051-.1.05-.151.05l-.199-.201c-.25-.15-.25-.2-.051-.399.051-.051.051-.101.051-.151.199 0 .449-.05.699-.1-.05.1-.05.15-.05.251.25.149.601.199.8.499 0 .051.1.101.151.15.599.151 1.15.451 1.799.5.201 0 .451-.049.601.15l.199-.05c.25 0 .45-.05.7-.1.05 0 .101.05.201.1.199-.25.449-.25.75-.199.25 0 .449-.101.699-.151.15-.049.25-.15.4 0 .1.05.151-.049.2-.099.15-.2.201-.051.3.099l1-.549c.25-.151.45-.35.651-.501.25-.15.401-.45.799-.5.15 0 .3-.25.452-.4.048-.05.15-.2.25-.249.698-.401 1.298-1.051 1.948-1.601.1-.1.25-.15.402-.25.098-.1.25-.1.3.1.048 0 .048-.05.048-.05v.05c.1-.05.152-.05.152-.05.05 0 .05.05.05.05 0 .05 0 .101-.05.2v.05c.05 0 .05.05.099.1l.151.15c.05.05.05.1.05.2l.148.5c.151.35.352.7.552 1 .05 0 .05.05.05.1-.05.25.148.4.299.55.099.15.151.25.25.35l.301.301c.1.049.199.1.199.15.051.2.151.2.301.25.15.099.35.149.449.299.1.1.201.1.301.1.449-.149.9-.3 1.299-.549.15-.1.25-.201.15-.451l-.449-1.05c-.051-.149-.1-.35-.15-.55-.151-.4-.25-.8-.401-1.2.1-.1.151-.15.301-.25h-.301c-.25-.25-.049-.6-.15-.849v-.25c-.049-.151-.199-.351-.149-.501 0-.15-.201-.3-.05-.451.05-.049-.051-.199-.1-.299-.1-.149-.201-.299-.1-.499.049 0 0-.101 0-.151-.25-.199-.101-.501-.15-.751l.15-.099c-.201-.35-.4-.701-.25-1.151.049-.099-.05-.3-.101-.399-.149-.25-.149-.25.15-.3-.099-.2-.099-.449-.15-.65-.049-.1-.049-.25-.1-.35l-.299-1.601c0-.098.049-.25.049-.348.051-.2.1-.451-.049-.652-.05 0-.05-.049-.05-.099.099-.401-.151-.801-.051-1.2a.371.371 0 00-.1-.201l-.099-.1c.25-.25-.051-.449 0-.65 0-.25-.051-.5-.1-.75 0-.049.1-.15.049-.2 0-.15 0-.3-.049-.348-.202-.102-.202-.352-.35-.502v-.15c-.05-.15-.05-.25-.102-.4 0-.099-.048-.2 0-.25.151-.199-.048-.35-.099-.35-.25-.15-.151-.5-.349-.7-.052-.05.05-.25 0-.4-.052-.2-.151-.35-.25-.5-.1-.201-.25-.3-.45-.451l.148-.25c-.25-.299-.548-.549-.75-.899-.148-.25-.5-.45-.85-.601-.098 0-.15-.048-.25-.099-.15-.2-.15-.2-.448-.151-.052-.148-.052-.25-.052-.399-.25.1-.5.1-.75.05-.198 0-.4-.1-.548-.2-.102-.05-.151-.05-.202-.1 0-.05.051-.101.051-.15 0 0-.051 0-.051-.05-.1.099-.15.15-.199.25-.151-.2-.151-.2-.451-.25-.2 0-.35-.151-.5.05-.1.1-.299.15-.399-.05l-.15-.1-.301.3c-.1-.101-.199-.2-.35-.25-.099 0-.199.1-.3.2 0-.051-.049-.1-.1-.2-.049.1-.1.2-.199.3-.201-.2 0-.5-.1-.651.199-.049.399-.099.649-.099h.75c.05 0 .101.099.201.15.199-.251.5-.15.799-.1l.4.15c.1 0 .202-.05.301-.05l.349.3c.7-.2 1.2.149 1.802.5.148-.3.35-.101.548-.101.1.051.202.101.302.201.1.049.15-.05.298 0 .75.25 1.401.65 2.001 1.15l.351.3c.25.15.45.4.6.65 0 .1.049.199.1.199.25.151.15.302.05.451.399 0 .399.3.5.55.2.4.399.8.549 1.25.151.4.401.75.35 1.201v.099c.4.6.4 1.3.451 1.95 0 .202.049.4.1.55.25.6.099 1.25.199 1.852l.15 1.499c.051.45 0 .9.051 1.349.1.701.049 1.402.35 2.05.05.151.15.351-.051.552.101.199.25.398.301.599.05.101-.051.25-.1.35-.051.3 0 .55.25.699.25.201.4.802.25 1.101l.449.45c.201.25-.199.35-.099.6.199 0 .25.1.4.201.35.35.549.749.449 1.199-.049.25-.049.4.25.4zm-18.101-3.4c.1-.199.2-.35.45-.35.25.049.55 0 .851 0-.051-.05-.15-.15-.15-.1-.301.1-.451-.15-.701-.25v-.3c.25-.2.5-.35.701-.551.049-.149-.201-.049-.1-.298.049-.151-.051-.35-.101-.551 0-.3.05-.351.351-.401.299-.049.299-.049.35-.399 0-.351.199-.649.5-.7.4-.151.549-.351.599-.7.151-.1.35.15.35-.151.301-.099.551-.249.9-.398.051-.101.1-.25.151-.5.25.049.449-.051.599-.302.1.102.25.15.301 0 .049-.199.199-.199.299-.199.35 0 .35 0 .702-.151.048-.049.148.05.25.05.099 0 .148 0 .25-.05 0 0 0-.099.048-.2.1-.149.35-.2.6-.2.15.051.352-.05.55-.1.1-.049.2-.099.302-.099.048-.2.1-.35.148-.45h.5c.15.149.302.35.202.649 0 .15.048.301.048.4 0 .151.102.3-.048.401-.052 0-.052.099 0 .099.198.101.1.3.048.451l.052.5c0 .2.05.4 0 .549-.052.201-.052.351.15.5 0 .05.048.101.048.152 0 .148.102.25.052.399 0 .199.198.4 0 .6-.052.099 0 .25 0 .3-.152.1-.25.1-.35.2l-.702.599c-.1.101-.25.101-.398.152.048.098.1.199.1.299-.052-.049-.1-.049-.202-.1-.1.1-.25.149-.398.3 0 .05-.052.15-.052.3-.4.1-.75.299-1 .65-.099.149-.198.201-.349.101-.201-.101-.301-.101-.35.149l-.051.051c-.3-.051-.4.15-.5.349-.099.2-.4.2-.449.45-.25 0-.451.25-.701.3-.1 0-.15-.05-.299-.1-.201.35-.601.15-.9.2-.25 0-.5-.15-.75.1-.051.05-.25.05-.35.05-.201 0-.4-.05-.65-.1.049-.1.049-.2.099-.3-.349.15-.349.15-.849-.35.099 0 .15-.05.25-.099-.1-.101-.35-.051-.201-.301a.37.37 0 00-.1-.199.265.265 0 01-.1-.351zm2.35.9c.201.05.4.05.6-.049.25-.151.4-.101.601.049.149-.1.299-.15.449-.2l.5-.349c.401-.251.75-.55 1.151-.801.401-.2.75-.45 1.049-.8.102-.149.25-.301.4-.399.302-.2.65-.351.802-.652 0-.049.098-.099.15-.099.298-.101.35-.151.298-.45 0-.35-.198-.651-.15-.999 0-.202-.1-.452-.148-.652 0-.099-.052-.199-.102-.3-.2.101-.35.151-.548.201 0-.05-.052-.1-.1-.151-.102.301-.202.401-.5.401-.302.049-.552.2-.75.4-.302.199-.602.449-.952.649a.96.96 0 00-.35.301c-.25.3-.699.449-.949.85-.051.051-.201.051-.301.051-.05.149-.05.399-.15.499-.199.25-.299.549-.549.75 0 0-.051 0-.051.049-.05 0-.05.051-.099.101l-.451 1.35c-.1.15-.049.201.15.25zm-2.1-14.801c.051-.05.1-.05.1-.1.201-.45.6-.3 1.051-.4.049-.1 0-.3.25-.3l.199-.05c.201.2.35.05.451-.1.049-.05.1-.1.1-.149.099 0 .199.049.299.049.201-.399.65-.299 1.05-.45.1.051.151.151.301.25 0-.099.049-.199.1-.199.199-.051.349-.101.549-.101.601.05 1.15.149 1.701.25.049 0 .099.05.151.05.648-.05 1.048.25 1.448.65.402.4.75.85.85 1.4 0 .101.052.2.1.3.052.2.25.35.15.6-.048 0 0 .101.052.101.15.149.198.251.048.449 0 .051 0 .15.052.2.198.15.098.4.098.55-.048.15-.15.35-.298.45-.15.101-.4.15-.602.2-.148.05-.35.05-.5.05-.1 0-.2 0-.25.05-.45.35-.95.5-1.5.35 0-.048-.049 0-.148 0l-.052.201c-.198.049-.349.199-.55.149-.2 0-.399.05-.6.05-.049 0-.15 0-.199.051-.301.25-.651.25-1 .149-.651.25-1.201.75-1.901.9-.05 0-.15.05-.199.1-.15.25-.351.352-.601.45-.049-.05-.1-.098-.149-.2.049.552-.351.601-.75.601 0 .201-.051.35-.051.549l-.199-.199c-.051.1-.101.15-.101.199 0 .25-.149.25-.35.25l.15.35c-.25-.05-.449-.05-.699-.1v.1c.149 0 .25 0 .449.051-.05.05-.05.149-.099.149-.201.05-.25.152-.25.352.049.348-.151.549-.5.649-.1.199 0 .449-.35.499-.051.051-.101.302-.101.45 0 .05.05.151-.049.25-.1.101-.201 0-.25-.048-.051-.051-.1-.051-.1-.051-.15.099-.25.2-.301.251V27.301c0 .051.051.102.051.2l-.201.152a.272.272 0 00-.15.249c-.049.099-.049.25-.049.399-.051 0-.1.051-.201.051.101.1.201.149.25.2l-.45.949c.151.051.35.101.5.152-.099.299-.3.199-.5.249.051.15-.05.4.2.5 0 .05-.049.201-.1.301-.199-.202-.199.099-.299.099 0 .151.049.251.1.449.199.101.199-.198.349-.298.1.249 0 .399-.199.499-.15.1.1.4-.201.4l.301.35c-.1.25-.201.45.049.65.05.05.05.101.05.15l.051.051a.612.612 0 01-.201.449c-.1-.05-.199-.05-.299-.05-.051-.049-.051-.049-.101-.049-.1-.051-.149-.201-.149-.301-.051-.3-.25-.6-.301-.9-.051-.15 0-.25.1-.25.25 0 .15-.2.201-.35l-.25.15c-.051-.15-.051-.15.049-.3 0-.049.051-.049.051-.1-.051-.15-.151-.299-.25-.5.048-.3.199-.601.25-.95.048-.3.25-.599.4-.901-.051 0-.15 0-.301-.048v-.501c0-.201.051-.401.25-.5.051-.05.1-.1.1-.15.051-.301.201-.501.6-.6-.2-.049-.299-.1-.399-.151.049-.199.1-.399.199-.649.051-.05.151-.101.301-.151-.15-.2-.101-.399.1-.549.15-.201.299-.35.5-.549.099.148.199.25.299.348a.612.612 0 00.3-.2v-.05c-.05-.098-.099-.2-.099-.25.049-.15 0-.2-.051-.299-.1-.151-.049-.351.1-.401.25-.05.351-.149.3-.399l.1-.1c.15 0 .15.299.35.15l-.1-.15c0-.1.201-.1.15-.301 0-.299.1-.348.45-.399.101-.051.201-.149.3-.251l.151-.199c.199-.101.4-.2.549-.401.05-.049.101-.099.101-.15l1.149-.45c.15-.05.3 0 .451-.05.049-.049 0-.2.199-.2.4 0 .701-.25 1-.35.4-.098.701-.45 1.15-.349.151.049.301-.051.45-.101.351-.2.75-.2 1.15-.25.301-.05.65-.149.952-.149.25-.051.5-.101.75-.101.398-.05.698-.25.75-.649-.15-.25-.302-.451-.4-.651l.15-.35c-.352-.15-.4-.2-.352-.649a.911.911 0 00-.35-.101c.052-.2.052-.35-.198-.3-.052.051-.052.1-.052.2-.4-.2-.75.05-1.15.15.05-.1.102-.199.15-.25l-.298-.2c-.151.1-.302.151-.401.4-.051.15-.301.2-.451.3-.049 0-.149-.1-.1-.15.051-.2-.1-.2-.199-.25-.051.1-.1.25-.201.25-.049.05-.149-.049-.299-.049-.051.149.049.499-.35.599-.051-.1-.101-.2-.201-.3h-.6v.5l-.65.15c-.25.1-.449.15-.699.202-.051 0-.1.098-.1.149-.051.35-.351.35-.551.499l-.25-.3c-.15.1-.3.2-.449.2-.15 0-.25-.2-.4-.299-.051-.051-.201-.1-.301-.151a1.13 1.13 0 01-.15-.25l-.149-.35c-.051.05-.201.1-.301.15-.349-.2-.55-.5-.849-.799.199-.201.299-.401.049-.651.05-.15 0-.35-.049-.45-.151-.2-.25-.4-.201-.65 0-.35-.149-.7-.25-1.1.101-.4.5-.65.851-.85.049-.049.1-.049.1-.049.199-.552.75-.651 1.15-.95.399-.251.85-.451 1.299-.602.201-.099.451-.149.701-.199.5-.15 1-.25 1.5-.35 0 0 .049 0 .049.049-.1.151-.25.301-.299.451-.101.299-.301.25-.5.25-.15 0-.301.049-.451.1-.1.05-.199.15-.35.25l-.349-.15c-.1.201-.201.3-.401.25-.05 0-.15.099-.199.099-.301.25-.601.451-.9.651-.301.151-.551.4-.85.55l-.301.2c.1.099.151.2.2.3-.25.2-.1.501-.049.7.15.25.099.45-.051.7l.451.95c.25-.15.449-.3.699-.4zM30.14 33.502c.199.151.349.25.5.4-.201.5-.451.4-.901.25-.15-.05-.25-.15-.349-.25-.1-.1-.151-.249-.202-.4.352.1.651.151.952 0zM76.189 15.802c.05-.101.05-.25.102-.35 0 0 .048 0 .099.048-.051.101-.051.201-.099.302h-.102zm-.148-.25c.048.149 0 .25.198.399.052 0 .1.2.052.25-.052.2-.052.35.148.5-.1.05-.148.1-.2.1-.198 0-.349.1-.4.25-.048.25-.199.3-.4.25.102.151.201.251.25.35-.2-.099-.35 0-.5.151.15.049.25.099.451.199-.051 0-.099 0-.151.05-.099 0-.15.05-.198.05 0 .05 0 .1.048.2-.15.1-.4.15-.35.5.151.05.35.2.5.35.302.25.45.551.45.9 0 .2-.049.45.15.6v.1c0 .202.051.451.1.801-.049.049-.1.15-.148.25-.052.099.298-.1.198.099-.05.051-.15.1-.198.2.048.051.099.051.198.101-.099.2-.4.2-.3.5.05 0 .15-.05.3-.05-.15.301-.25.649-.15 1.05-.1.1-.25.25-.449.399.25.15.099.4.099.601-.15.099-.3.099-.448.2.099.149.148.3.198.45-.15.051-.3.051-.449.1-.051.1-.051.299-.101.45.201.099.25.3.101.55-.051.049-.15.049-.25.049.1-.099.199-.149.1-.349-.151.2-.5.099-.5.349.049.201-.301.351.099.5h-.5c.051.152.051.3.051.451l-.801.201c.151.149-.25.199 0 .398-.25.25-.65.2-.8.601l-.25-.151v.25c-.049 0-.049.051-.049.051-.051 0-.151 0-.25-.051-.25.202-.5.451-.901.302 0 0-.15.049-.199.1-.15.299-.5.25-.75.299-.051 0-.051.049-.201.1l1.35.3c.5.149.951.35 1.351.7.449.3.949.699 1.399 1.101.201.199.4.449.55.699.051.1.051.2.051.351.199.049.35.149.399.399 0 .051.05.15.05.15.2.151.302.401.401.6.151.4.349.7.5 1.05.099.301.349.6.299.95 0 .05 0 .15.05.2.151.25.2.5.1.751-.048.199 0 .449 0 .65a.371.371 0 01-.1.2c0 .05-.05.099-.05.099.05.3-.2.55-.148.85.048.101.048.201-.052.25a.946.946 0 00-.099.4c.049.051-.051.201-.051.201-.35-.05-.35.399-.65.45.15.301.102.449-.2.699-.15.201-.25.302-.199.552-.351.199-.451.398-.4.749h-.301c-.1.399-.35.55-.75.45-.049-.051-.15.05-.299.1.1.049.149.099.199.099.051.051.1.051.151.051-.25.1-.401.35-.701.35-.149.049-.299.201-.45.299 0 0-.05.051-.099.051-.401 0-.651.1-.75.499a.276.276 0 01-.25.151c-.151 0-.201-.05-.35-.151-.101.101-.25.2-.4.301l-.35-.051c-.101-.05-.201-.099-.301-.099l-.15.4c-.1.05-.299.149-.299.1-.15-.149-.4-.1-.551-.401.051.2.051.301.051.45-.25 0-.551-.099-.801-.099l-.65.2c-.15-.299-.199-.299-.85 0l-.15-.15c-.1.049-.25.101-.35.15 0-.101-.05-.2-.15-.351l-.549.151c-.201-.05-.352-.151-.551-.199 0-.101-.051-.251-.15-.402-.151.051-.35.101-.5.2-.199.151-.35 0-.449-.099-.1-.101-.202-.101-.35-.101-.051 0-.102-.099-.202-.149-.048 0-.099.05-.099.05 0 .049-.051.049-.051.099-.25-.099-.5-.099-.75-.199l-.7-.351c-.05.051-.098.101-.15.151-.65-.3-1.298-.6-1.85-1l-.15-.101c-.25-.3-.5-.55-.75-.849a.394.394 0 00-.199-.201c-.401-.348-.801-.7-1.1-1.15-.101-.199-.201-.3-.25-.5 0-.149.049-.299.1-.5l-.151.101v-.201c-.05-.15 0-.199 0-.4 0-.1-.099-.199-.05-.35v-.15c.05-.25.05-.449-.149-.649-.051-.05-.101-.101-.101-.15.15-.201-.1-.451-.049-.651 0-.15-.1-.4-.1-.65 0-.15.1-.25.149-.5h.15c0-.15-.199-.349.051-.5.049 0 .049-.1 0-.15-.401-.1.099-.4-.051-.6.25 0 .15-.45.35-.45.05 0 .05-.1.101-.149-.051-.051-.15-.151-.15-.25-.051-.051-.1-.151.049-.201.05 0 .05-.149.101-.2.1-.15.149-.299.35-.2.049 0 .15 0 .15-.05.149-.35.25-.65.25-.95 0-.25.25-.399.35-.6.199.101.199.451.549.35.05-.35-.2-.7.101-1 .149-.051.399-.15.549.1 0 .051.15 0 .15 0v-.25h.25c-.099-.151-.25-.25-.349-.401-.051-.149-.051-.25-.051-.449a.634.634 0 01-.449-.35c-.151-.451-.301-.951-.301-1.4.051-.25 0-.551.25-.7.051-.051.202-.149.051-.301l.049-.05c.25-.049.25-.349.4-.5.051-.099.202-.149.301-.2.049 0 .099.051.199.101 0-.101 0-.2-.048-.25a3.448 3.448 0 00-.602-.601c-.2-.199-.35-.45-.399-.649-.051-.351-.25-.651-.4-.901 0-.15-.1-.25-.051-.348.1-.552 0-1.001 0-1.552 0-.299-.15-.7 0-1.05l-.049-.05c-.15-.2.049-.299.149-.35.05-.05.101-.05.15-.05-.049-.1-.199-.2-.199-.25.099-.149-.051-.2-.051-.25 0-.2.051-.45.051-.649 0-.301.199-.5.299-.801.05 0 .05 0 .15.05l-.25-.4c.1-.1.15-.2.201-.249.299-.201.299-.201.149-.551-.049-.05-.049-.05-.049-.1.151-.25.349-.4.549-.55.15-.1.3-.15.4-.2v-.1h-.4c.201-.15.3-.25.4-.35.1-.149.202-.25.452-.1 0-.049 0-.15.048-.25.1.05.202.05.302.05.048-.151.048-.25.098-.3 0-.05.052-.101.2-.15 0 0-.048-.05-.048-.099 0 0 0-.051-.052-.051.302.051.5-.051.702-.25l-.25-.15s.048 0 .048-.05h.35c.15-.2.3-.351.5-.549 0-.052.102-.052.15-.052.151 0 .25-.049.35-.198.051-.101.15-.151.301-.25a.95.95 0 00.75.198v-.648c.051.049.199.049.25.099.151.299.449.299.651.45.099-.151.298-.199.15-.45.148-.05.25-.15.35-.099.15.049.349 0 .5-.051.099 0 .25-.051.4.1.049.05.199.05.25 0 .049 0 .049-.151.049-.25.301.05.6.05.9.201.151.049.35 0 .5 0 .25.049.5 0 .7.199.05 0 .101.05.15.05.25-.101.451.101.701.201.299.099.5.25.799.349.15-.25.5-.25.65-.5.1-.299.5-.2.7-.401.15-.199.05-.649.451-.699.15-.051.25-.2.349-.35.151-.1.25-.151.35-.25.15-.05.25 0 .451-.05.049.05.149.149.199.149.151.051.25.051.301.2.049.051.199.101.299.151.15 0 .25.099.35.25.101.25.4.349.601.45.199.1.35.3.399.5.05.101.102.149.15.201.25.25.4.5.35.948-.049.25.05.451.05.75.052-.049.151-.049.302-.148-.151.199-.202.299-.25.45zm-5.651-.951c-.25-.101-.451-.15-.551-.45a.374.374 0 00-.199-.099c-.151.249-.35-.052-.401-.101-.15-.149-.199.101-.25 0 0-.149-.05-.25-.15-.35-.1.05-.199.201-.25.149-.199-.149-.199.052-.299.101-.25-.2-.25-.2-.551-.049-.05-.052-.099-.151-.15-.25-.4.25-.5.25-.6 0-.15.299-.15.299-.55.25-.049 0-.049-.052-.1-.052-.35.151-.699 0-1.049.151-.301.151-.551.25-.9.151-.051 0-.1.049-.151.049-.5.25-1.051.5-1.5.7-.25.1-.501.15-.599.301-.152.249-.35.299-.6.398l-.052.052c0 .199-.15.25-.25.299-.348.35-.75.7-1 1.15 0 .05-.099.101-.198.15-.052.15-.202.301-.202.45-.048.25-.048.5-.15.75-.049.2-.049.45-.2.55-.15.201-.15.35-.198.5-.052.301.099.6-.251.801.251.149.35.25.251.549-.102.202.048.5-.102.75-.049.051 0 .1 0 .15.102.1.05.151 0 .2-.049.15-.1.351-.049.45.151.3.199.5.099.801v.199c.25.2.25.2.2.55 0 .15 0 .25.102.4.198.3.298.6.448.902.052.148.151.25.25.348l.151.152a.653.653 0 00.299.199c.15.05.3.199.202.399-.302.05-.552.3-.902.101-.099.251-.25.449-.349.649-.201.451-.301.901-.099 1.351.148.3.298.5.298.801 0 .049.1.15.1.25.05.049.05.149.05.25.35.149.45.299.302.499-.102.15.048.25-.052.4-.15.051-.25.151-.349.25-.099 0-.151.05-.151.05.052.25-.15.301-.25.399-.25.201-.5.402-.699.601-.351.5-.65 1-.9 1.551-.1.25-.1.499-.1.749-.051.25-.25.451-.25.7.049.15-.101.351-.101.551 0 .25-.149.449-.1.749.1.302.15.651 0 .901-.049 0 0 .049 0 .049.1.051.201.15.25.201 0 .15-.049.249-.1.4.35.049.301.399.5.549l-.15.35c.1.052.15.101.25.101.201-.049.25.1.301.149.049.451.25.7.599.7.1.25.151.351.302.5.25.3.648.351 1.048.3-.15.15-.35.25-.199.4.099.051.299.152.299.1.202-.1.3.052.452.052h.65c.1 0 .198-.101.25.098.048-.049.148-.098.198.051 0 .049.052.101.1.15.1.1.202 0 .25-.101.151 0 .401 0 .401.101.151.2.301.15.349.15.452-.101.751.05 1.1.199h.202c.349 0 .699-.099 1 .25.15 0 .4-.099.549-.05.25.101.5 0 .8.05.051 0 .151 0 .2-.05.101-.2.3-.149.451-.149l.099.199c.051 0 .1-.099.151-.099.299-.05.5-.05.75.049.349-.25.599-.049.9.05.1 0 .149-.05.25-.099h.5c.35-.05.75 0 1-.3.25-.249.549-.249.85-.301.049 0 .099 0 .15-.049v-.051h-.301c0-.049 0-.049-.05-.098.15-.101.3-.201.351-.352.1-.149.199-.348.35-.45.25-.199.449-.5.699-.649.051 0 .051-.05.1-.101.101-.299.3-.6.25-1v-.25c.15 0 .25 0 .4-.05.051-.149.051-.3-.15-.399l.3-.401c0-.15 0-.4.2-.4 0-.049-.049-.049-.049-.1.049-.2.049-.4.099-.6 0-.1.051-.199 0-.25-.25-.199-.199-.449-.05-.699v-.101h-.2c.1-.1.151-.2 0-.3 0-.099.25-.199.1-.35-.1-.1-.1-.25-.15-.4.05-.05.15-.05.25-.1-.2-.4-.399-.75-.5-1.2 0-.25-.049-.6-.399-.75-.051 0-.101-.1-.101-.15-.25-.4-.649-.75-1.1-1.05-.299-.199-.75-.301-1.1-.45-.3-.15-.599-.15-.9-.25-.4-.05-.9-.15-1.25-.3-.25-.051-.449-.149-.75-.1h-.15c-.299-.049-.649-.201-.95-.1h-.199c-.15-.199-.201.051-.351 0-.1-.101-.149-.25-.35-.15-.15.1-.4.15-.6-.1l-.199-.049c-.301.1-.5.149-.75.198-.201.051-.4.101-.551-.098 0-.051-.099-.051-.15-.1-.1-.052-.251-.101-.299-.201a.57.57 0 01-.25-.25c0-.05.048-.101.1-.2-.1.051-.151.051-.202.099-.1-.148-.199-.25-.199-.349-.099-.151-.25-.351-.301-.55-.1-.551.051-1.051.15-1.601.202 0 .401.05.6.101-.1.199 0 .3.102.35.199.099.398.15.549.2.451.099.849.2 1.25.349l.701.152c.25.049.5.049.75.098.449 0 .899.051 1.299.101.701-.301 1.451-.351 2.1-.649.601-.152 1-.501 1.451-.902.349-.249.599-.75.9-1.2.1-.1.199-.3.299-.5.1-.399.201-.698.5-.948-.049-.052-.15-.102-.299-.152.199-.049.299-.049.449-.049l-.25-.249c-.05-.501.2-.852.5-1.202-.199-.1-.199-.1-.05-.25v-.1c-.049-.15-.1-.25-.149-.4-.051-.2-.201-.35-.101-.6.05-.05.15-.05.25-.1-.299-.2-.2-.499-.2-.7 0-.1 0-.2-.05-.25 0-.1-.1-.149-.1-.2 0-.3-.299-.5-.15-.85v-.1c-.2-.15-.149-.45-.35-.6-.049 0-.049-.149-.049-.2 0-.35-.201-.6-.4-.75-.1-.1-.201-.15-.25-.25-.151-.25-.35-.55-.651-.7a.7.7 0 01-.15-.201c-.15-.398-.549-.75-.949-.899zm4.15-1.45a1.043 1.043 0 00-.301-.2c-.15-.05-.25-.1-.3-.201-.1-.149-.25-.299-.45-.299-.099-.05-.25.1-.4.15l-.15.149c-.45.301-.899.601-1.25.951-.25.15-.45.4-.7.6.1.1.2.15.25.199.051.101.151.151.2.201l-.1.1h.301c.099.05.199.1.199.199.051.102 0 .201-.049.301.149.1.299.199.449.35.1.151.401 0 .401.25.099-.05.199-.05.199-.099.051-.101.051-.201.1-.35-.049 0-.149.048-.25.048.3-.299.5-.5.55-.849.2.05.301-.05.301-.2.049-.1.1-.25.199-.3.1-.05.2-.05.25-.099.1-.25.301-.401.5-.552.2-.099.2-.25.051-.349zm-3.551 8.2v.101c-.25.199-.05.399-.05.649l-.35.15-.299.3c.049 0 .1.05.149.05 0 .301-.45.352-.399.7-.051.05-.15.05-.201.102-.15.149-.15.399-.5.348-.049 0-.15.151-.25.25-.049.1-.1.201-.1.25-.25.05-.5.05-.65.3 0 .05-.1.05-.15.05-.2-.149-.35-.05-.549.051-.1.05-.201 0-.301-.051-.199-.05-.35.051-.549.051h-.15c-.401-.101-.75-.25-1.202-.2-.298.049-.599-.151-.849-.401-.049 0-.1-.099-.151-.05-.25 0-.449-.15-.548-.25-.151-.25-.452-.348-.5-.649 0-.051-.1-.051-.151-.101-.051-.048-.151-.099-.151-.15.202-.199-.099-.3-.15-.35-.25-.099-.298-.25-.298-.5v-.549c-.052-.101-.1-.25-.151-.301-.401-.25-.251-.449-.151-.75.1 0 .25 0 .452-.05l-.5-.35c.148-.1.298-.15.25-.25-.102-.35.1-.649.1-.95l.048-.099c-.25-.151-.048-.301-.048-.451h.4c0-.3.148-.449.449-.65.099-.049.151-.35.199-.55l-.048-.2c0-.05 0-.05.048-.05.25-.05.5-.15.702-.4 0-.1.15-.1.25-.15.15 0 .349 0 .449.05.15 0 .201-.25.4-.15.151.05.35-.05.5-.1.25-.05.401.1.551.3.049.05.1.1.199.15.35.15.801.3 1.2.3.351.1.65.2.9.5.1.1.201.1.35.151.201.149.351.299.451.499.049.1.15.25.25.25.349 0 .349.35.5.6.099.1.199.25.25.401 0 .149.15.199.049.399-.049.201.05.3.3.3-.05.1-.15.2-.15.301 0 .099.1.199.15.299.051.1.051.15 0 .201 0 .049 0 .149.051.251 0 .149-.25.198-.051.398zm-.75-1c-.05-.05 0-.1-.05-.149a.564.564 0 00-.149-.4c-.051-.1-.051-.201-.101-.35-.1-.499-.399-.801-.7-1.201-.099.05-.199.1-.25.15-.05 0-.199.05-.199 0-.15-.2-.351-.2-.551-.3-.349-.25-.4-.25-.75 0-.15.1-.3.2-.5.1-.099-.05-.25.05-.4.15-.199.15-.4.351-.6.55-.449.6-.9 1.15-1 1.9l-.15 1.25c-.049.151 0 .351.051.5 0 .25 0 .602.099.901 0 .149.051.299.151.35l.599.15c.25.049.401 0 .651.049.599 0 1.25-.049 1.799-.348l.601-.5c.199-.051.25-.2.399-.352.15-.05.4-.05.65-.099-.1-.351-.299-.101-.449-.05.049-.101.049-.151.099-.2.151-.25.35-.451.5-.65.1-.201.2-.501.301-.751.049-.25.199-.45-.051-.7zm-7.801 12.451c.452-.05.5-.05.551-.45 0-.05.051-.1.099-.15h.202c0 .05.048.05.048.05l.151-.1.051.05c0 .05.048.05.048.1l.202-.15c.148-.2.299-.25.5-.2.148.05.299.05.398.05.301 0 .602 0 .952.05.199 0 .4.05.65.1.049 0 .1 0 .149.05.4.35.8.25 1.25.3.351.101.701.05 1.05.25.2.1.401.201.7.301.05-.051.15-.1.201-.1.15.1.299.149.349.2.051.049.1.099.2.15l.25.249-.1.101c.25.099.451.149.65.299 0 .05-.05.15-.05.25.3.1.351.35.15.7.15-.1.201-.1.35-.15.05.05.201.1.201.15 0 .2 0 .401-.1.551-.051.049-.051.2-.15.25h-.151V35.852c0 .15.051.2-.099.3-.151.1-.151.25.099.5l-.55.151c0 .049-.049.199 0 .25.15.199-.1.4.05.6 0 0-.099.149-.199.149-.15 0-.301.05-.451.05-.15 0-.25.051-.35.301-.05.149-.199.3-.349.399-.35.151-.651.251-1.051.3-.199.052-.35.101-.549.101-.201.049-.4.049-.601 0-.049-.049-.2.049-.25.049-.25 0-.5.051-.75.051-.25.049-.6.049-.95.049h-.25c-.199-.049-.4-.1-.599-.049-.051.049-.151 0-.202 0-.298-.1-.648-.25-1-.25-.199-.051-.35 0-.449-.201 0-.05-.099-.05-.151-.05-.048 0-.15 0-.198-.05-.552-.4-1-.849-1.152-1.549 0-.051 0-.101.052-.15h-.302c.152-.051.2-.1.302-.201-.102-.05-.15-.148-.25-.2-.052-.1-.102-.198-.202-.3l.25-.1c.052-.049.052-.15.052-.25l-.152.1c0-.149 0-.3.1-.399.1-.201.302-.4.4-.601.152-.149.2-.45.152-.7v-.25c.15-.1.298-.1.4-.2v-.049c-.052 0-.15.049-.302.049.152-.299.2-.299.45-.15.05-.1-.1-.249 0-.3h.05c.052-.199.152-.35.2-.45zm1.202 4.75c.15.25.349.5.449.75.051.101.15.151.201.2.549.201 1 .25 1.6.201.099 0 .199 0 .349-.049.401-.052.801-.102 1.25-.201.151 0 .35-.05.5-.101.151 0 .301 0 .45-.148.3-.301.55-.551.9-.751.35-.15.6-.4.75-.601 0-.2 0-.398-.049-.6l.449-.25c-.15-.15-.099-.25.051-.4.049-.05.149-.1.1-.1-.051-.199.199-.299.15-.5-.051-.15-.15-.25-.201-.399-.049 0-.049-.051-.049-.101-.15-.15-.25-.35-.4-.5-.25.15-.451.35-.75.5-.051-.15-.151-.3-.201-.4-.049 0-.1.05-.149.05a.382.382 0 01-.201-.1c-.25-.1-.4-.1-.6.1-.15.1-.25.2-.449.05a.153.153 0 00-.201 0c-.4.1-.799.1-1.199 0-.301-.05-.451.15-.701.2 0 0-.049.1-.1.1-.049.05-.1.15-.199.15-.1.1-.25.15-.35.15-.201.1-.451.3-.701.3-.049 0-.1 0-.151.051-.148.05-.099.25-.25.3-.099 0-.148.2-.199.349.051.3-.151.55-.199.8-.102.3-.102.65.1.95zm-6.052-5.05c.051.05.1.101.201.15l-.15.15c-.051-.099-.1-.15-.151-.25.051 0 .051 0 .1-.05zm16.251 10.05c-.1.051-.15.102-.199.151l-.1-.151c.1 0 .149-.05.25-.05 0 0 0 .05.049.05z"/></svg>