<svg xmlns="http://www.w3.org/2000/svg" viewBox="0 0 249.13 32.08"><path d="M4.13 31a4 4 0 01-2.36-.8l-1.09-.9C.4 19.31.3 12.09.44 7.76s0-6.67-.18-7S-.08.23.07.07s5.19.27 6.28.85A4.83 4.83 0 009.28.87c6.37-1.44 9.3 1 11.19 3.58s2.65 5.45.76 8a11.8 11.8 0 01-4.07 3.36c-.61.32-.89.64-.89 1a36.5 36.5 0 002 4.75l2.27 4.76c.75 1.65 2.36 4.06 3.11 4.32.38.16.52.32.38.54s-.76.16-1.65-.22a6.56 6.56 0 01-2.74-2.4 35.7 35.7 0 01-3.26-6.2l-2.22-5c-1.18.75-3.78 1.07-7.79 1v10.35a2.73 2.73 0 01-.57 1.71 2.2 2.2 0 01-1.67.58zM6.4 16.53h.94c3 0 10.06-3.74 11.38-5.93s1-4.12-.52-6.2-1.37-2-3.49-1.87c-1.09.05-2.6.27-4.54.53S7 3.49 6.4 3.54zm28.76 6.41a3.07 3.07 0 00.56 1.71 8.36 8.36 0 002.46.69 38.66 38.66 0 006.19.43 2.91 2.91 0 001.41-.53 1.79 1.79 0 01.9-.43 3.11 3.11 0 011 .27c2.4 1.12-.24 2.35-1.23 2.51a41.9 41.9 0 01-4.45-.16c-2.46-.16-4.11-.32-4.91-.32-1.66 0-2.51-.75-4.16-3.1s-4-5.45-2.36-9.51a6.41 6.41 0 014.2-4 10 10 0 018.17.64c3 1.55 4.21 3.37 2.84 4.92s-3 2.13-7 2.24c-2 .05-3 .22-3.16.43a5.66 5.66 0 00-.28 2 18.55 18.55 0 00-.18 2.21zM40 11.77a14.18 14.18 0 00-1.7.11 2.59 2.59 0 00-.94.27.5.5 0 00-.19.58 4.26 4.26 0 01-.47 1.82c-.76 1.87-.85 2.14 1.46 1.82a9.58 9.58 0 002.6-.59c1.13-.37 1.27-.54.9-1.23a3.33 3.33 0 01-.32-1.55c0-.69 0-1.07-.14-1.12a4.49 4.49 0 00-1.2-.11zm25.65 2.35h-.1c-3.59 2.83-4.91 8.93-3.11 13.41.71 1.77.85 2 2 2a7 7 0 003-1.28c1.37-.86 2.18-1.23 2.36-1.12s.48.05.85-.16a2 2 0 01.86-.32 1.55 1.55 0 01.75.42l1 .7-.76.85c-1.09 1.23-4.91 3.48-6.42 3.48s-7-4.17-8.32-6.36-.56-8.82.66-11.38a7.38 7.38 0 012-2.73c1.37-1.07 1.56-1.07 4.06-.91a11.78 11.78 0 015.53 2.35 2.25 2.25 0 01.61.75c.24.59 1 3.1.76 3.53-.15.21-.57.11-1.33-.27-1.51-.75-3.11-2.3-3.11-3s-.52-.6-1.32.04zm32.82-2.24c2.13 2.4 3 8.17 2 11.86-.56 1.87-4.06 5.77-4.67 6.2a3.86 3.86 0 01-2.27 0c-1.18-.21-2-.32-2.5-.38a9.43 9.43 0 01-8.41-8c-.71-4-.29-6.57 1-8.87a9.93 9.93 0 015.24-4.06c2.83-.63 7.46.84 9.58 3.25zm-11 10.47c0 .86.24 1.28.85 3s.71 2 3.12 1.93a6 6 0 002.5-.54c2.08-1.17 2.6-7.37 1.52-11.27s-1.42-6-5-4.17c-1.75.91-2.79 3.58-3 8zm47.14 8.87a5.15 5.15 0 01-3.21-1.17 2.7 2.7 0 01-.38-1.66 43.51 43.51 0 00-1.7-8.82c-.62-1.55-.66-1.65-1.61-1.44-2.22.48-3.4 2.78-3.16 5.61s0 3.31-1.56 2.94-1.75-.75-1.8-3.9L121 18a4.54 4.54 0 00-.24-.9 3.36 3.36 0 01-.28-.75c-.14-.43-.29-1-.66-.86a11.79 11.79 0 00-4 2.41c-1.18 1.33-1.56 3.26-1.75 7.1l-.18 4.28-1 .26a3 3 0 01-3-.74 2.42 2.42 0 01-.38-.7 19.6 19.6 0 01-.51-1.9c-.38-2-1.51-12.61-1.51-14.37v-1.5h2.31c2.88 0 2.6-.27 2.79 3.58l.14 2.89 1.84-1.23c2.17-1.45 3.54-1.82 5.29-1.55a4.93 4.93 0 013.69 2.78c.09.32.42.37 1 .1 1.85-.8 4.35-.37 7.51 1.18a3.91 3.91 0 012.22 2.35 20.35 20.35 0 011.33 8c.05 1.78-.24 2.63-.99 2.79zm32.11 0a5.17 5.17 0 01-3.21-1.17 2.7 2.7 0 01-.38-1.66 42.83 42.83 0 00-1.7-8.82c-.61-1.55-.66-1.65-1.6-1.44-2.22.48-3.41 2.78-3.17 5.61s0 3.31-1.56 2.94-1.75-.75-1.79-3.9l-.23-4.78a4.54 4.54 0 00-.24-.9 3.36 3.36 0 01-.28-.75c-.14-.43-.28-1-.66-.86a11.77 11.77 0 00-4 2.41c-1.18 1.33-1.56 3.26-1.75 7.1l-.15 4.3-1 .26a3 3 0 01-3-.74 2.19 2.19 0 01-.37-.7 16.08 16.08 0 01-.43-1.92c-.38-2-1.51-12.61-1.51-14.37v-1.5H142c2.89 0 2.6-.27 2.79 3.58l.14 2.89 1.85-1.23c2.17-1.45 3.54-1.82 5.29-1.55a4.93 4.93 0 013.68 2.78c.09.32.42.37 1 .1 1.84-.8 4.34-.37 7.51 1.18a3.94 3.94 0 012.22 2.35 20.55 20.55 0 011.32 8c-.03 1.78-.31 2.63-1.07 2.79zm14.83-8.28a3.07 3.07 0 00.56 1.71 8.36 8.36 0 002.46.69 38.66 38.66 0 006.19.43 2.91 2.91 0 001.41-.53 1.82 1.82 0 01.9-.43 3.11 3.11 0 01.95.27c2.41 1.12-.24 2.35-1.23 2.51a42 42 0 01-4.44-.16c-2.46-.16-4.11-.32-4.91-.32-1.66 0-2.51-.75-4.16-3.1s-4-5.45-2.36-9.51a6.41 6.41 0 014.2-4 10 10 0 018.17.64c3 1.55 4.21 3.37 2.84 4.92s-3 2.13-6.95 2.24c-2 .05-3 .22-3.16.43a5.66 5.66 0 00-.28 2 21.17 21.17 0 00-.18 2.21zm4.82-11.17a13.89 13.89 0 00-1.7.11 2.59 2.59 0 00-1 .27.5.5 0 00-.19.58 4.26 4.26 0 01-.47 1.82c-.76 1.87-.85 2.14 1.46 1.82a9.58 9.58 0 002.6-.59c1.13-.37 1.28-.54.9-1.23a3.35 3.35 0 01-.28-1.55c0-.69 0-1.07-.15-1.12a4.45 4.45 0 00-1.16-.11zm22.71 2.35c0 .48 0 .75.14.75a16.18 16.18 0 001.33-1.28 5 5 0 012-1.39l1.27-.32a10.27 10.27 0 014.58 1.5c.95.69 2.46 3.79 3 6.09a35.55 35.55 0 01.28 9.94l-.23 2-1.66-.26a9.72 9.72 0 01-2.69-.75c-.75-.38-1.13-.7-1.13-1s.09-1.34.28-3.1.28-3.16.28-4.06c0-1.88-.85-7.86-1.22-8.45-.19-.27-.62-.16-1.33.43a17.83 17.83 0 00-4 5.34 12.33 12.33 0 00-.67 4.81c0 2.3.19 3.64.57 4.06.76.86.57 1.55-1.27 1.34s-3.4-1.07-3.64-1.71a26.86 26.86 0 01-.57-3.26c-.56-3.69-.85-13.95-.52-14.53.14-.27.48-.32 1-.11s1.28.48 2.27.85 1.61.59 1.84.7c.43.21.71.53.67.8a1.44 1.44 0 01-.34.53 1.71 1.71 0 00-.23 1.08zm38.11 9.51c0 4.65.29 7 .85 7s.57.11.43.49c-.24.69-1.18 1.22-2.46.21a7.51 7.51 0 01-1.79-2.46c-1.14-2.3-.76-2.67-2.6-1.82a6.44 6.44 0 01-2.79.65c-.94 0-1.46.15-1.51.42s-.42.32-.94.11a17.77 17.77 0 01-4.38-3.31 3.92 3.92 0 01-1.19-2.92 7.77 7.77 0 013.07-6.09 6.44 6.44 0 016.52-.59l1.47.7.23-2.78a72.92 72.92 0 011.66-10.79c.61-2.41 1-2.52 2.31-1.45.94.7 1.65 1.18 2.13 1.5.94.64 1 .8.85 2.08a141.89 141.89 0 00-1.85 19.05zm-5-1.87a23 23 0 01-.19-2.56 1.76 1.76 0 00-1-1.44c-.66-.43-1-.81-1-1.07a.45.45 0 00-.43-.48 3.09 3.09 0 00-2.36.64c-1.51 1.12-2.5 5.61-1.79 8 .14.48.33.8.52.86a8 8 0 001.6.1 5.59 5.59 0 003.07-1.17l1.75-1.23z" fill="#f60" data-name="レイヤー 2"/></svg>